<svg xmlns="http://www.w3.org/2000/svg" xmlns:xlink="http://www.w3.org/1999/xlink" width="500" zoomAndPan="magnify" viewBox="0 0 375 187.499995" height="250" preserveAspectRatio="xMidYMid meet" version="1.0"><defs><g/><clipPath id="742988da36"><path d="M 0.5 0 L 374 0 L 374 174 L 0.5 174 Z M 0.5 0 " clip-rule="nonzero"/></clipPath><clipPath id="fe948645b0"><path d="M 2 10 L 253 10 L 253 167 L 2 167 Z M 2 10 " clip-rule="nonzero"/></clipPath><clipPath id="e86eacfbb3"><path d="M -9.714844 28.933594 L 239.957031 -6.183594 L 260.195312 137.710938 L 10.523438 172.828125 Z M -9.714844 28.933594 " clip-rule="nonzero"/></clipPath><clipPath id="5e9669946f"><path d="M -9.714844 28.933594 L 239.957031 -6.183594 L 260.195312 137.710938 L 10.523438 172.828125 Z M -9.714844 28.933594 " clip-rule="nonzero"/></clipPath><clipPath id="d56ea7388c"><rect x="0" width="263" y="0" height="28"/></clipPath><clipPath id="9e6f8d5eed"><path d="M 38 87 L 373.425781 87 L 373.425781 147 L 38 147 Z M 38 87 " clip-rule="nonzero"/></clipPath><clipPath id="890426691c"><rect x="0" width="336" y="0" height="60"/></clipPath><clipPath id="179859d424"><rect x="0" width="374" y="0" height="174"/></clipPath></defs><g clip-path="url(#742988da36)"><g transform="matrix(1, 0, 0, 1, 0, 0)"><g clip-path="url(#179859d424)"><g clip-path="url(#fe948645b0)"><g clip-path="url(#e86eacfbb3)"><g clip-path="url(#5e9669946f)"><path fill="#ffffff" d="M 2.953125 118.710938 L 2.773438 117.082031 L 2.671875 115.546875 C 2.402344 111.449219 2.597656 107.289062 3.238281 103.183594 C 3.867188 99.078125 4.988281 95.027344 6.519531 91.132812 C 8.066406 87.242188 10.03125 83.5 12.378906 80 C 14.742188 76.507812 17.460938 73.238281 20.539062 70.308594 C 23.621094 67.390625 27.015625 64.765625 30.679688 62.5625 C 34.34375 60.355469 38.25 58.511719 42.324219 57.148438 C 46.398438 55.777344 50.605469 54.832031 54.878906 54.351562 C 56.304688 54.195312 57.742188 54.09375 59.179688 54.035156 C 59.535156 53.292969 59.894531 52.550781 60.269531 51.816406 C 61.882812 48.683594 63.71875 45.667969 65.742188 42.785156 C 67.761719 39.898438 70 37.160156 72.40625 34.582031 C 74.816406 32.007812 77.390625 29.578125 80.140625 27.367188 C 82.886719 25.148438 85.78125 23.113281 88.804688 21.285156 C 91.832031 19.464844 94.988281 17.859375 98.234375 16.476562 C 101.480469 15.082031 104.828125 13.9375 108.226562 13.027344 C 111.628906 12.109375 115.082031 11.421875 118.5625 10.996094 L 121.007812 10.734375 L 122.378906 10.625 L 123.78125 10.523438 C 124.695312 10.472656 125.546875 10.453125 126.429688 10.417969 C 127.304688 10.390625 128.183594 10.40625 129.0625 10.410156 C 132.566406 10.460938 136.070312 10.753906 139.53125 11.28125 C 142.992188 11.820312 146.410156 12.601562 149.75 13.605469 C 153.09375 14.609375 156.351562 15.867188 159.503906 17.316406 C 162.664062 18.769531 165.695312 20.457031 168.601562 22.328125 C 171.511719 24.191406 174.273438 26.273438 176.878906 28.519531 C 180.597656 31.726562 183.972656 35.300781 186.957031 39.152344 C 189.035156 38.671875 191.132812 38.308594 193.234375 38.0625 C 193.78125 38 194.328125 37.949219 194.875 37.902344 L 194.925781 37.898438 C 194.890625 37.902344 195.300781 37.847656 195.140625 37.867188 L 195.160156 37.867188 L 195.429688 37.855469 L 195.785156 37.835938 L 196.503906 37.804688 L 197.214844 37.765625 C 197.464844 37.753906 197.667969 37.738281 197.984375 37.738281 L 199.730469 37.714844 C 200.921875 37.675781 201.964844 37.761719 203.066406 37.808594 C 203.609375 37.824219 204.152344 37.882812 204.691406 37.9375 L 206.316406 38.101562 C 207.394531 38.238281 208.46875 38.402344 209.535156 38.582031 L 211.125 38.90625 C 211.65625 39.015625 212.1875 39.121094 212.707031 39.265625 C 213.753906 39.535156 214.800781 39.785156 215.820312 40.125 L 217.359375 40.605469 L 218.867188 41.164062 C 220.878906 41.902344 222.820312 42.796875 224.71875 43.75 C 225.652344 44.253906 226.585938 44.761719 227.496094 45.300781 L 228.84375 46.132812 L 229.507812 46.554688 L 230.164062 47 L 231.457031 47.902344 C 231.886719 48.203125 232.292969 48.535156 232.710938 48.851562 C 233.125 49.175781 233.546875 49.480469 233.945312 49.820312 L 235.140625 50.835938 L 235.734375 51.34375 L 236.300781 51.878906 L 237.433594 52.953125 C 238.171875 53.6875 238.882812 54.441406 239.585938 55.195312 C 240.953125 56.746094 242.28125 58.316406 243.445312 60.003906 C 243.738281 60.425781 244.035156 60.839844 244.316406 61.261719 L 245.128906 62.558594 C 245.6875 63.40625 246.164062 64.3125 246.664062 65.1875 C 246.921875 65.625 247.132812 66.085938 247.359375 66.535156 L 248.03125 67.890625 C 248.425781 68.824219 248.84375 69.730469 249.199219 70.671875 C 249.535156 71.613281 249.917969 72.53125 250.199219 73.492188 L 250.640625 74.914062 C 250.785156 75.386719 250.890625 75.875 251.015625 76.351562 C 251.128906 76.835938 251.257812 77.308594 251.363281 77.789062 L 251.648438 79.242188 C 251.863281 80.195312 251.964844 81.179688 252.097656 82.144531 C 252.167969 82.625 252.210938 83.109375 252.25 83.59375 L 252.367188 85.046875 C 252.410156 86.015625 252.417969 86.984375 252.433594 87.945312 C 252.121094 87.027344 251.855469 86.109375 251.535156 85.210938 L 251.039062 83.871094 C 250.878906 83.425781 250.714844 82.980469 250.523438 82.550781 C 250.144531 81.679688 249.800781 80.808594 249.378906 79.964844 L 248.773438 78.703125 C 248.5625 78.285156 248.332031 77.878906 248.117188 77.46875 C 247.890625 77.0625 247.683594 76.648438 247.441406 76.25 L 246.730469 75.058594 C 246.277344 74.257812 245.730469 73.511719 245.234375 72.746094 C 244.722656 71.992188 244.152344 71.269531 243.617188 70.535156 C 243.03125 69.839844 242.496094 69.113281 241.894531 68.433594 C 241.289062 67.765625 240.71875 67.074219 240.074219 66.445312 L 239.132812 65.484375 C 238.8125 65.175781 238.476562 64.878906 238.152344 64.574219 C 236.855469 63.351562 235.480469 62.230469 234.082031 61.167969 C 233.367188 60.65625 232.652344 60.144531 231.921875 59.660156 L 230.816406 58.960938 L 230.261719 58.613281 L 229.695312 58.289062 L 228.566406 57.640625 C 228.191406 57.425781 227.800781 57.242188 227.417969 57.039062 C 227.03125 56.847656 226.65625 56.636719 226.261719 56.457031 L 225.085938 55.925781 L 224.503906 55.65625 L 223.90625 55.414062 L 222.71875 54.933594 C 221.917969 54.632812 221.109375 54.359375 220.308594 54.089844 C 218.683594 53.59375 217.058594 53.132812 215.410156 52.824219 L 214.175781 52.582031 L 212.9375 52.394531 C 212.117188 52.253906 211.28125 52.191406 210.460938 52.105469 C 210.046875 52.054688 209.632812 52.039062 209.21875 52.019531 L 207.980469 51.953125 C 207.15625 51.9375 206.328125 51.933594 205.507812 51.941406 L 204.28125 51.996094 C 203.867188 52.015625 203.460938 52.023438 203.054688 52.074219 C 202.25 52.164062 201.386719 52.207031 200.679688 52.335938 L 199.574219 52.492188 C 199.414062 52.507812 199.148438 52.5625 198.921875 52.605469 L 198.21875 52.730469 L 197.515625 52.859375 L 197.160156 52.921875 L 196.984375 52.953125 L 196.898438 52.972656 L 196.875 52.972656 C 196.695312 53 197.09375 52.949219 197.046875 52.957031 L 197.011719 52.960938 C 196.613281 53.050781 196.21875 53.144531 195.824219 53.242188 C 194.253906 53.632812 192.714844 54.097656 191.210938 54.65625 C 189.710938 55.214844 188.246094 55.851562 186.824219 56.558594 L 181.375 59.261719 L 176.808594 53.757812 C 173.429688 49.683594 169.542969 46.085938 165.300781 43.058594 C 163.179688 41.542969 160.964844 40.183594 158.6875 38.957031 C 156.402344 37.730469 154.046875 36.683594 151.644531 35.765625 C 149.246094 34.847656 146.785156 34.121094 144.300781 33.527344 C 141.820312 32.941406 139.304688 32.527344 136.777344 32.277344 C 134.25 32.023438 131.710938 31.933594 129.179688 32.019531 C 128.546875 32.054688 127.914062 32.066406 127.285156 32.109375 C 126.660156 32.160156 126 32.199219 125.410156 32.253906 L 123.671875 32.449219 L 121.621094 32.742188 C 119.121094 33.160156 116.652344 33.714844 114.242188 34.433594 C 111.828125 35.152344 109.472656 36.039062 107.179688 37.054688 C 104.886719 38.078125 102.671875 39.261719 100.539062 40.578125 C 98.398438 41.886719 96.351562 43.339844 94.410156 44.929688 C 92.472656 46.523438 90.613281 48.21875 88.890625 50.046875 C 87.167969 51.875 85.570312 53.820312 84.085938 55.847656 C 82.605469 57.882812 81.265625 60.019531 80.066406 62.230469 C 78.859375 64.4375 77.800781 66.730469 76.898438 69.082031 L 73.710938 77.429688 L 65.203125 76.289062 C 62.472656 75.921875 59.703125 75.804688 56.933594 76.007812 C 54.160156 76.222656 51.390625 76.671875 48.71875 77.4375 C 46.039062 78.199219 43.425781 79.210938 40.945312 80.515625 C 38.464844 81.820312 36.085938 83.363281 33.894531 85.164062 C 31.707031 86.96875 29.6875 89.003906 27.894531 91.242188 C 26.09375 93.476562 24.511719 95.902344 23.191406 98.484375 C 22.847656 99.121094 22.566406 99.789062 22.242188 100.445312 C 21.949219 101.109375 21.683594 101.785156 21.394531 102.457031 C 21.160156 103.144531 20.894531 103.824219 20.664062 104.519531 C 20.464844 105.21875 20.210938 105.914062 20.035156 106.625 C 19.261719 109.453125 18.789062 112.382812 18.605469 115.359375 L 18.539062 116.480469 L 18.527344 117.496094 C 18.523438 117.851562 18.503906 118.15625 18.511719 118.546875 L 18.578125 119.875 L 18.625 120.871094 L 18.628906 120.953125 L 18.632812 120.996094 C 18.65625 121.179688 18.601562 120.792969 18.609375 120.84375 L 18.625 120.984375 L 18.726562 122.113281 C 18.765625 122.488281 18.777344 122.871094 18.835938 123.246094 L 18.996094 124.371094 C 19.425781 127.375 20.179688 130.347656 21.226562 133.246094 C 22.277344 136.144531 23.652344 138.957031 25.320312 141.621094 C 26.980469 144.292969 28.929688 146.832031 31.15625 149.148438 C 33.386719 151.457031 35.835938 153.636719 38.554688 155.484375 C 41.269531 157.335938 44.183594 158.988281 47.292969 160.285156 L 48.457031 160.777344 L 49.648438 161.222656 C 50.046875 161.363281 50.441406 161.53125 50.847656 161.65625 L 52.066406 162.042969 C 52.875 162.320312 53.707031 162.507812 54.539062 162.734375 L 55.164062 162.902344 L 55.792969 163.042969 L 57.0625 163.320312 C 57.484375 163.421875 57.910156 163.484375 58.339844 163.558594 L 59.628906 163.773438 C 60.492188 163.902344 61.363281 163.996094 62.238281 164.109375 C 63.109375 164.195312 63.980469 164.234375 64.871094 164.3125 L 67.550781 164.402344 C 66.6875 164.640625 65.824219 164.871094 64.957031 165.089844 C 64.078125 165.277344 63.1875 165.457031 62.289062 165.617188 C 61.394531 165.738281 60.496094 165.902344 59.589844 165.992188 L 58.226562 166.105469 C 57.769531 166.144531 57.3125 166.191406 56.855469 166.199219 C 55.023438 166.289062 53.171875 166.28125 51.324219 166.144531 L 49.933594 166.039062 C 49.46875 166.007812 49.011719 165.933594 48.546875 165.878906 L 47.152344 165.703125 C 46.691406 165.628906 46.234375 165.542969 45.773438 165.453125 C 42.089844 164.757812 38.425781 163.691406 34.917969 162.171875 C 34.042969 161.78125 33.179688 161.371094 32.308594 160.960938 C 31.464844 160.511719 30.601562 160.078125 29.765625 159.601562 C 28.089844 158.640625 26.445312 157.609375 24.886719 156.449219 C 21.746094 154.152344 18.8125 151.511719 16.191406 148.546875 C 15.855469 148.183594 15.539062 147.804688 15.226562 147.417969 L 14.289062 146.265625 C 13.667969 145.488281 13.097656 144.675781 12.5 143.871094 C 11.941406 143.050781 11.394531 142.214844 10.851562 141.371094 C 10.351562 140.507812 9.824219 139.652344 9.34375 138.773438 C 7.414062 135.25 5.878906 131.484375 4.753906 127.585938 L 4.347656 126.117188 C 4.207031 125.625 4.113281 125.128906 3.996094 124.632812 L 3.660156 123.144531 L 3.386719 121.617188 L 3.148438 120.3125 C 3.078125 119.820312 3.019531 119.246094 2.953125 118.710938 " fill-opacity="1" fill-rule="nonzero"/></g></g></g><g transform="matrix(1, 0, 0, 1, 59, 139)"><g clip-path="url(#d56ea7388c)"><g fill="#d9d9d9" fill-opacity="1"><g transform="translate(1.509761, 20.485627)"><g><path d="M 3.625 0 L 2.109375 0 L 2.109375 -13.96875 L 4.546875 -13.96875 L 8.78125 -2.140625 L 8.984375 -2.140625 L 13.203125 -13.96875 L 15.5625 -13.96875 L 15.5625 0 L 14 0 L 14 -11.390625 L 13.765625 -11.4375 L 9.640625 0 L 8 0 L 3.875 -11.4375 L 3.625 -11.390625 Z M 3.625 0 "/></g></g></g><g fill="#d9d9d9" fill-opacity="1"><g transform="translate(19.184808, 20.485627)"><g><path d="M 5.203125 0.203125 C 4.015625 0.203125 3.128906 -0.109375 2.546875 -0.734375 C 1.960938 -1.367188 1.671875 -2.296875 1.671875 -3.515625 L 1.671875 -10.53125 L 3.234375 -10.53125 L 3.234375 -3.546875 C 3.234375 -1.953125 3.984375 -1.15625 5.484375 -1.15625 C 6.441406 -1.15625 7.195312 -1.46875 7.75 -2.09375 C 8.300781 -2.71875 8.578125 -3.726562 8.578125 -5.125 L 8.578125 -10.53125 L 10.140625 -10.53125 L 10.140625 0 L 8.65625 0 L 8.65625 -1.65625 L 8.46875 -1.703125 C 8.101562 -1.054688 7.664062 -0.578125 7.15625 -0.265625 C 6.65625 0.046875 6.003906 0.203125 5.203125 0.203125 Z M 5.203125 0.203125 "/></g></g></g><g fill="#d9d9d9" fill-opacity="1"><g transform="translate(31.149605, 20.485627)"><g><path d="M 4.1875 0.203125 C 3.445312 0.203125 2.863281 -0.00390625 2.4375 -0.421875 C 2.007812 -0.847656 1.796875 -1.484375 1.796875 -2.328125 L 1.796875 -14.765625 L 3.359375 -14.765625 L 3.359375 -2.4375 C 3.359375 -2 3.441406 -1.679688 3.609375 -1.484375 C 3.773438 -1.285156 4.035156 -1.1875 4.390625 -1.1875 C 4.609375 -1.1875 4.828125 -1.222656 5.046875 -1.296875 L 5.1875 -1.265625 L 5.375 -0.03125 C 5.257812 0.0390625 5.09375 0.0976562 4.875 0.140625 C 4.664062 0.179688 4.4375 0.203125 4.1875 0.203125 Z M 4.1875 0.203125 "/></g></g></g><g fill="#d9d9d9" fill-opacity="1"><g transform="translate(36.878954, 20.485627)"><g><path d="M 7.125 -1.671875 L 7.625 -0.546875 C 7.375 -0.304688 7.046875 -0.125 6.640625 0 C 6.234375 0.132812 5.796875 0.203125 5.328125 0.203125 C 3.316406 0.203125 2.3125 -0.816406 2.3125 -2.859375 L 2.3125 -9.265625 L 0.484375 -9.265625 L 0.484375 -10.546875 L 2.3125 -10.546875 L 2.3125 -12.765625 L 3.875 -13.03125 L 3.875 -10.546875 L 7.265625 -10.546875 L 7.265625 -9.265625 L 3.875 -9.265625 L 3.875 -3.015625 C 3.875 -1.796875 4.394531 -1.1875 5.4375 -1.1875 C 6.007812 -1.1875 6.503906 -1.347656 6.921875 -1.671875 Z M 7.125 -1.671875 "/></g></g></g><g fill="#d9d9d9" fill-opacity="1"><g transform="translate(44.900042, 20.485627)"><g><path d="M 2.625 -12.578125 C 2.289062 -12.578125 2.019531 -12.675781 1.8125 -12.875 C 1.601562 -13.082031 1.5 -13.347656 1.5 -13.671875 C 1.5 -13.984375 1.601562 -14.242188 1.8125 -14.453125 C 2.019531 -14.660156 2.289062 -14.765625 2.625 -14.765625 C 2.945312 -14.765625 3.210938 -14.660156 3.421875 -14.453125 C 3.628906 -14.242188 3.734375 -13.984375 3.734375 -13.671875 C 3.734375 -13.347656 3.628906 -13.082031 3.421875 -12.875 C 3.210938 -12.675781 2.945312 -12.578125 2.625 -12.578125 Z M 1.828125 0 L 1.828125 -10.53125 L 3.390625 -10.53125 L 3.390625 0 Z M 1.828125 0 "/></g></g></g><g fill="#d9d9d9" fill-opacity="1"><g transform="translate(50.123305, 20.485627)"><g><path d="M 6.421875 -6.078125 L 1 -6.078125 L 1 -7.484375 L 6.421875 -7.484375 Z M 6.421875 -6.078125 "/></g></g></g><g fill="#d9d9d9" fill-opacity="1"><g transform="translate(57.533263, 20.485627)"><g><path d="M 10.90625 -13.96875 L 10.90625 -12.578125 L 6.53125 -12.578125 L 6.53125 0 L 4.890625 0 L 4.890625 -12.578125 L 0.515625 -12.578125 L 0.515625 -13.96875 Z M 10.90625 -13.96875 "/></g></g></g><g fill="#d9d9d9" fill-opacity="1"><g transform="translate(68.934667, 20.485627)"><g><path d="M 10.046875 -4.90625 L 2.796875 -4.90625 C 2.835938 -3.625 3.144531 -2.679688 3.71875 -2.078125 C 4.289062 -1.484375 5.070312 -1.1875 6.0625 -1.1875 C 6.8125 -1.1875 7.414062 -1.320312 7.875 -1.59375 C 8.332031 -1.863281 8.691406 -2.285156 8.953125 -2.859375 L 9.15625 -2.859375 L 10.171875 -2.25 C 9.867188 -1.488281 9.378906 -0.890625 8.703125 -0.453125 C 8.035156 -0.015625 7.15625 0.203125 6.0625 0.203125 C 5.039062 0.203125 4.164062 0.00390625 3.4375 -0.390625 C 2.707031 -0.796875 2.144531 -1.40625 1.75 -2.21875 C 1.351562 -3.039062 1.15625 -4.054688 1.15625 -5.265625 C 1.15625 -6.460938 1.363281 -7.46875 1.78125 -8.28125 C 2.195312 -9.101562 2.765625 -9.71875 3.484375 -10.125 C 4.210938 -10.53125 5.039062 -10.734375 5.96875 -10.734375 C 7.320312 -10.734375 8.375 -10.351562 9.125 -9.59375 C 9.882812 -8.832031 10.269531 -7.703125 10.28125 -6.203125 C 10.28125 -5.617188 10.265625 -5.226562 10.234375 -5.03125 Z M 8.734375 -6.203125 C 8.710938 -7.328125 8.460938 -8.144531 7.984375 -8.65625 C 7.515625 -9.164062 6.84375 -9.421875 5.96875 -9.421875 C 5.039062 -9.421875 4.316406 -9.160156 3.796875 -8.640625 C 3.273438 -8.128906 2.957031 -7.316406 2.84375 -6.203125 Z M 8.734375 -6.203125 "/></g></g></g><g fill="#d9d9d9" fill-opacity="1"><g transform="translate(80.16419, 20.485627)"><g><path d="M 1.828125 0 L 1.828125 -10.53125 L 3.3125 -10.53125 L 3.3125 -8.890625 L 3.515625 -8.828125 C 3.867188 -9.453125 4.316406 -9.925781 4.859375 -10.25 C 5.398438 -10.570312 6.0625 -10.734375 6.84375 -10.734375 C 8.113281 -10.734375 9.03125 -10.410156 9.59375 -9.765625 C 10.164062 -9.117188 10.453125 -8.125 10.453125 -6.78125 L 10.453125 0 L 8.90625 0 L 8.90625 -6.75 C 8.90625 -7.382812 8.820312 -7.894531 8.65625 -8.28125 C 8.5 -8.664062 8.25 -8.941406 7.90625 -9.109375 C 7.5625 -9.285156 7.113281 -9.375 6.5625 -9.375 C 5.613281 -9.375 4.847656 -9.0625 4.265625 -8.4375 C 3.679688 -7.8125 3.390625 -6.800781 3.390625 -5.40625 L 3.390625 0 Z M 1.828125 0 "/></g></g></g><g fill="#d9d9d9" fill-opacity="1"><g transform="translate(92.291311, 20.485627)"><g><path d="M 4.34375 0.203125 C 3.3125 0.203125 2.503906 -0.0664062 1.921875 -0.609375 C 1.335938 -1.148438 1.046875 -1.925781 1.046875 -2.9375 C 1.046875 -3.5625 1.171875 -4.085938 1.421875 -4.515625 C 1.679688 -4.941406 2.082031 -5.289062 2.625 -5.5625 C 3.164062 -5.832031 3.875 -6.039062 4.75 -6.1875 C 5.507812 -6.3125 6.085938 -6.453125 6.484375 -6.609375 C 6.890625 -6.773438 7.160156 -6.957031 7.296875 -7.15625 C 7.429688 -7.351562 7.5 -7.601562 7.5 -7.90625 C 7.5 -8.375 7.332031 -8.734375 7 -8.984375 C 6.675781 -9.242188 6.148438 -9.375 5.421875 -9.375 C 4.742188 -9.375 4.160156 -9.242188 3.671875 -8.984375 C 3.179688 -8.722656 2.734375 -8.328125 2.328125 -7.796875 L 2.140625 -7.796875 L 1.375 -8.890625 C 1.820312 -9.453125 2.390625 -9.898438 3.078125 -10.234375 C 3.765625 -10.566406 4.546875 -10.734375 5.421875 -10.734375 C 6.660156 -10.734375 7.578125 -10.460938 8.171875 -9.921875 C 8.765625 -9.378906 9.0625 -8.625 9.0625 -7.65625 L 9.0625 -2.078125 C 9.0625 -1.484375 9.304688 -1.1875 9.796875 -1.1875 C 9.960938 -1.1875 10.125 -1.21875 10.28125 -1.28125 L 10.40625 -1.234375 L 10.59375 -0.15625 C 10.476562 -0.0820312 10.328125 -0.0234375 10.140625 0.015625 C 9.953125 0.0546875 9.757812 0.078125 9.5625 0.078125 C 8.976562 0.078125 8.535156 -0.046875 8.234375 -0.296875 C 7.941406 -0.554688 7.757812 -0.9375 7.6875 -1.4375 L 7.484375 -1.453125 C 7.179688 -0.898438 6.773438 -0.484375 6.265625 -0.203125 C 5.753906 0.0664062 5.113281 0.203125 4.34375 0.203125 Z M 4.6875 -1.046875 C 5.269531 -1.046875 5.773438 -1.179688 6.203125 -1.453125 C 6.640625 -1.722656 6.972656 -2.101562 7.203125 -2.59375 C 7.429688 -3.082031 7.546875 -3.644531 7.546875 -4.28125 L 7.546875 -5.625 L 7.359375 -5.671875 C 7.128906 -5.503906 6.84375 -5.363281 6.5 -5.25 C 6.164062 -5.132812 5.695312 -5.035156 5.09375 -4.953125 C 4.476562 -4.867188 3.988281 -4.738281 3.625 -4.5625 C 3.269531 -4.394531 3.015625 -4.175781 2.859375 -3.90625 C 2.710938 -3.644531 2.640625 -3.320312 2.640625 -2.9375 C 2.640625 -2.3125 2.816406 -1.835938 3.171875 -1.515625 C 3.535156 -1.203125 4.039062 -1.046875 4.6875 -1.046875 Z M 4.6875 -1.046875 "/></g></g></g><g fill="#d9d9d9" fill-opacity="1"><g transform="translate(103.18663, 20.485627)"><g><path d="M 1.828125 0 L 1.828125 -10.53125 L 3.3125 -10.53125 L 3.3125 -8.890625 L 3.515625 -8.828125 C 3.867188 -9.453125 4.316406 -9.925781 4.859375 -10.25 C 5.398438 -10.570312 6.0625 -10.734375 6.84375 -10.734375 C 8.113281 -10.734375 9.03125 -10.410156 9.59375 -9.765625 C 10.164062 -9.117188 10.453125 -8.125 10.453125 -6.78125 L 10.453125 0 L 8.90625 0 L 8.90625 -6.75 C 8.90625 -7.382812 8.820312 -7.894531 8.65625 -8.28125 C 8.5 -8.664062 8.25 -8.941406 7.90625 -9.109375 C 7.5625 -9.285156 7.113281 -9.375 6.5625 -9.375 C 5.613281 -9.375 4.847656 -9.0625 4.265625 -8.4375 C 3.679688 -7.8125 3.390625 -6.800781 3.390625 -5.40625 L 3.390625 0 Z M 1.828125 0 "/></g></g></g><g fill="#d9d9d9" fill-opacity="1"><g transform="translate(115.313751, 20.485627)"><g><path d="M 7.125 -1.671875 L 7.625 -0.546875 C 7.375 -0.304688 7.046875 -0.125 6.640625 0 C 6.234375 0.132812 5.796875 0.203125 5.328125 0.203125 C 3.316406 0.203125 2.3125 -0.816406 2.3125 -2.859375 L 2.3125 -9.265625 L 0.484375 -9.265625 L 0.484375 -10.546875 L 2.3125 -10.546875 L 2.3125 -12.765625 L 3.875 -13.03125 L 3.875 -10.546875 L 7.265625 -10.546875 L 7.265625 -9.265625 L 3.875 -9.265625 L 3.875 -3.015625 C 3.875 -1.796875 4.394531 -1.1875 5.4375 -1.1875 C 6.007812 -1.1875 6.503906 -1.347656 6.921875 -1.671875 Z M 7.125 -1.671875 "/></g></g></g><g fill="#d9d9d9" fill-opacity="1"><g transform="translate(123.33484, 20.485627)"><g/></g></g><g fill="#d9d9d9" fill-opacity="1"><g transform="translate(128.128395, 20.485627)"><g><path d="M 6.109375 0.203125 C 5.222656 0.203125 4.429688 0.0820312 3.734375 -0.15625 C 3.035156 -0.394531 2.453125 -0.707031 1.984375 -1.09375 C 1.523438 -1.488281 1.179688 -1.914062 0.953125 -2.375 L 1.859375 -3.46875 L 2.09375 -3.46875 C 2.957031 -2.007812 4.296875 -1.28125 6.109375 -1.28125 C 7.160156 -1.28125 7.941406 -1.5 8.453125 -1.9375 C 8.960938 -2.375 9.21875 -2.984375 9.21875 -3.765625 C 9.21875 -4.222656 9.132812 -4.613281 8.96875 -4.9375 C 8.800781 -5.257812 8.519531 -5.53125 8.125 -5.75 C 7.738281 -5.976562 7.210938 -6.175781 6.546875 -6.34375 L 4.90625 -6.75 C 3.6875 -7.039062 2.789062 -7.503906 2.21875 -8.140625 C 1.644531 -8.785156 1.359375 -9.597656 1.359375 -10.578125 C 1.359375 -11.265625 1.535156 -11.878906 1.890625 -12.421875 C 2.242188 -12.972656 2.765625 -13.398438 3.453125 -13.703125 C 4.140625 -14.015625 4.960938 -14.171875 5.921875 -14.171875 C 6.972656 -14.171875 7.859375 -14.019531 8.578125 -13.71875 C 9.304688 -13.425781 9.882812 -12.984375 10.3125 -12.390625 L 9.515625 -11.3125 L 9.28125 -11.3125 C 8.875 -11.800781 8.394531 -12.160156 7.84375 -12.390625 C 7.300781 -12.617188 6.660156 -12.734375 5.921875 -12.734375 C 4.953125 -12.734375 4.21875 -12.546875 3.71875 -12.171875 C 3.226562 -11.796875 2.984375 -11.273438 2.984375 -10.609375 C 2.984375 -9.984375 3.164062 -9.484375 3.53125 -9.109375 C 3.894531 -8.734375 4.507812 -8.445312 5.375 -8.25 L 7.046875 -7.84375 C 8.398438 -7.519531 9.378906 -7.03125 9.984375 -6.375 C 10.597656 -5.71875 10.90625 -4.875 10.90625 -3.84375 C 10.90625 -3.0625 10.726562 -2.363281 10.375 -1.75 C 10.019531 -1.144531 9.484375 -0.664062 8.765625 -0.3125 C 8.046875 0.03125 7.160156 0.203125 6.109375 0.203125 Z M 6.109375 0.203125 "/></g></g></g><g fill="#d9d9d9" fill-opacity="1"><g transform="translate(140.093191, 20.485627)"><g><path d="M 4.34375 0.203125 C 3.3125 0.203125 2.503906 -0.0664062 1.921875 -0.609375 C 1.335938 -1.148438 1.046875 -1.925781 1.046875 -2.9375 C 1.046875 -3.5625 1.171875 -4.085938 1.421875 -4.515625 C 1.679688 -4.941406 2.082031 -5.289062 2.625 -5.5625 C 3.164062 -5.832031 3.875 -6.039062 4.75 -6.1875 C 5.507812 -6.3125 6.085938 -6.453125 6.484375 -6.609375 C 6.890625 -6.773438 7.160156 -6.957031 7.296875 -7.15625 C 7.429688 -7.351562 7.5 -7.601562 7.5 -7.90625 C 7.5 -8.375 7.332031 -8.734375 7 -8.984375 C 6.675781 -9.242188 6.148438 -9.375 5.421875 -9.375 C 4.742188 -9.375 4.160156 -9.242188 3.671875 -8.984375 C 3.179688 -8.722656 2.734375 -8.328125 2.328125 -7.796875 L 2.140625 -7.796875 L 1.375 -8.890625 C 1.820312 -9.453125 2.390625 -9.898438 3.078125 -10.234375 C 3.765625 -10.566406 4.546875 -10.734375 5.421875 -10.734375 C 6.660156 -10.734375 7.578125 -10.460938 8.171875 -9.921875 C 8.765625 -9.378906 9.0625 -8.625 9.0625 -7.65625 L 9.0625 -2.078125 C 9.0625 -1.484375 9.304688 -1.1875 9.796875 -1.1875 C 9.960938 -1.1875 10.125 -1.21875 10.28125 -1.28125 L 10.40625 -1.234375 L 10.59375 -0.15625 C 10.476562 -0.0820312 10.328125 -0.0234375 10.140625 0.015625 C 9.953125 0.0546875 9.757812 0.078125 9.5625 0.078125 C 8.976562 0.078125 8.535156 -0.046875 8.234375 -0.296875 C 7.941406 -0.554688 7.757812 -0.9375 7.6875 -1.4375 L 7.484375 -1.453125 C 7.179688 -0.898438 6.773438 -0.484375 6.265625 -0.203125 C 5.753906 0.0664062 5.113281 0.203125 4.34375 0.203125 Z M 4.6875 -1.046875 C 5.269531 -1.046875 5.773438 -1.179688 6.203125 -1.453125 C 6.640625 -1.722656 6.972656 -2.101562 7.203125 -2.59375 C 7.429688 -3.082031 7.546875 -3.644531 7.546875 -4.28125 L 7.546875 -5.625 L 7.359375 -5.671875 C 7.128906 -5.503906 6.84375 -5.363281 6.5 -5.25 C 6.164062 -5.132812 5.695312 -5.035156 5.09375 -4.953125 C 4.476562 -4.867188 3.988281 -4.738281 3.625 -4.5625 C 3.269531 -4.394531 3.015625 -4.175781 2.859375 -3.90625 C 2.710938 -3.644531 2.640625 -3.320312 2.640625 -2.9375 C 2.640625 -2.3125 2.816406 -1.835938 3.171875 -1.515625 C 3.535156 -1.203125 4.039062 -1.046875 4.6875 -1.046875 Z M 4.6875 -1.046875 "/></g></g></g><g fill="#d9d9d9" fill-opacity="1"><g transform="translate(150.98851, 20.485627)"><g><path d="M 4.34375 0.203125 C 3.3125 0.203125 2.503906 -0.0664062 1.921875 -0.609375 C 1.335938 -1.148438 1.046875 -1.925781 1.046875 -2.9375 C 1.046875 -3.5625 1.171875 -4.085938 1.421875 -4.515625 C 1.679688 -4.941406 2.082031 -5.289062 2.625 -5.5625 C 3.164062 -5.832031 3.875 -6.039062 4.75 -6.1875 C 5.507812 -6.3125 6.085938 -6.453125 6.484375 -6.609375 C 6.890625 -6.773438 7.160156 -6.957031 7.296875 -7.15625 C 7.429688 -7.351562 7.5 -7.601562 7.5 -7.90625 C 7.5 -8.375 7.332031 -8.734375 7 -8.984375 C 6.675781 -9.242188 6.148438 -9.375 5.421875 -9.375 C 4.742188 -9.375 4.160156 -9.242188 3.671875 -8.984375 C 3.179688 -8.722656 2.734375 -8.328125 2.328125 -7.796875 L 2.140625 -7.796875 L 1.375 -8.890625 C 1.820312 -9.453125 2.390625 -9.898438 3.078125 -10.234375 C 3.765625 -10.566406 4.546875 -10.734375 5.421875 -10.734375 C 6.660156 -10.734375 7.578125 -10.460938 8.171875 -9.921875 C 8.765625 -9.378906 9.0625 -8.625 9.0625 -7.65625 L 9.0625 -2.078125 C 9.0625 -1.484375 9.304688 -1.1875 9.796875 -1.1875 C 9.960938 -1.1875 10.125 -1.21875 10.28125 -1.28125 L 10.40625 -1.234375 L 10.59375 -0.15625 C 10.476562 -0.0820312 10.328125 -0.0234375 10.140625 0.015625 C 9.953125 0.0546875 9.757812 0.078125 9.5625 0.078125 C 8.976562 0.078125 8.535156 -0.046875 8.234375 -0.296875 C 7.941406 -0.554688 7.757812 -0.9375 7.6875 -1.4375 L 7.484375 -1.453125 C 7.179688 -0.898438 6.773438 -0.484375 6.265625 -0.203125 C 5.753906 0.0664062 5.113281 0.203125 4.34375 0.203125 Z M 4.6875 -1.046875 C 5.269531 -1.046875 5.773438 -1.179688 6.203125 -1.453125 C 6.640625 -1.722656 6.972656 -2.101562 7.203125 -2.59375 C 7.429688 -3.082031 7.546875 -3.644531 7.546875 -4.28125 L 7.546875 -5.625 L 7.359375 -5.671875 C 7.128906 -5.503906 6.84375 -5.363281 6.5 -5.25 C 6.164062 -5.132812 5.695312 -5.035156 5.09375 -4.953125 C 4.476562 -4.867188 3.988281 -4.738281 3.625 -4.5625 C 3.269531 -4.394531 3.015625 -4.175781 2.859375 -3.90625 C 2.710938 -3.644531 2.640625 -3.320312 2.640625 -2.9375 C 2.640625 -2.3125 2.816406 -1.835938 3.171875 -1.515625 C 3.535156 -1.203125 4.039062 -1.046875 4.6875 -1.046875 Z M 4.6875 -1.046875 "/></g></g></g><g fill="#d9d9d9" fill-opacity="1"><g transform="translate(161.883828, 20.485627)"><g><path d="M 6.109375 0.203125 C 5.222656 0.203125 4.429688 0.0820312 3.734375 -0.15625 C 3.035156 -0.394531 2.453125 -0.707031 1.984375 -1.09375 C 1.523438 -1.488281 1.179688 -1.914062 0.953125 -2.375 L 1.859375 -3.46875 L 2.09375 -3.46875 C 2.957031 -2.007812 4.296875 -1.28125 6.109375 -1.28125 C 7.160156 -1.28125 7.941406 -1.5 8.453125 -1.9375 C 8.960938 -2.375 9.21875 -2.984375 9.21875 -3.765625 C 9.21875 -4.222656 9.132812 -4.613281 8.96875 -4.9375 C 8.800781 -5.257812 8.519531 -5.53125 8.125 -5.75 C 7.738281 -5.976562 7.210938 -6.175781 6.546875 -6.34375 L 4.90625 -6.75 C 3.6875 -7.039062 2.789062 -7.503906 2.21875 -8.140625 C 1.644531 -8.785156 1.359375 -9.597656 1.359375 -10.578125 C 1.359375 -11.265625 1.535156 -11.878906 1.890625 -12.421875 C 2.242188 -12.972656 2.765625 -13.398438 3.453125 -13.703125 C 4.140625 -14.015625 4.960938 -14.171875 5.921875 -14.171875 C 6.972656 -14.171875 7.859375 -14.019531 8.578125 -13.71875 C 9.304688 -13.425781 9.882812 -12.984375 10.3125 -12.390625 L 9.515625 -11.3125 L 9.28125 -11.3125 C 8.875 -11.800781 8.394531 -12.160156 7.84375 -12.390625 C 7.300781 -12.617188 6.660156 -12.734375 5.921875 -12.734375 C 4.953125 -12.734375 4.21875 -12.546875 3.71875 -12.171875 C 3.226562 -11.796875 2.984375 -11.273438 2.984375 -10.609375 C 2.984375 -9.984375 3.164062 -9.484375 3.53125 -9.109375 C 3.894531 -8.734375 4.507812 -8.445312 5.375 -8.25 L 7.046875 -7.84375 C 8.398438 -7.519531 9.378906 -7.03125 9.984375 -6.375 C 10.597656 -5.71875 10.90625 -4.875 10.90625 -3.84375 C 10.90625 -3.0625 10.726562 -2.363281 10.375 -1.75 C 10.019531 -1.144531 9.484375 -0.664062 8.765625 -0.3125 C 8.046875 0.03125 7.160156 0.203125 6.109375 0.203125 Z M 6.109375 0.203125 "/></g></g></g><g fill="#d9d9d9" fill-opacity="1"><g transform="translate(173.848625, 20.485627)"><g/></g></g><g fill="#d9d9d9" fill-opacity="1"><g transform="translate(178.64218, 20.485627)"><g><path d="M 7.109375 -13.96875 C 8.066406 -13.96875 8.890625 -13.796875 9.578125 -13.453125 C 10.265625 -13.109375 10.785156 -12.613281 11.140625 -11.96875 C 11.503906 -11.332031 11.6875 -10.582031 11.6875 -9.71875 C 11.6875 -8.851562 11.503906 -8.097656 11.140625 -7.453125 C 10.785156 -6.816406 10.265625 -6.328125 9.578125 -5.984375 C 8.890625 -5.640625 8.066406 -5.46875 7.109375 -5.46875 L 3.75 -5.46875 L 3.75 0 L 2.109375 0 L 2.109375 -13.96875 Z M 7.0625 -6.875 C 9 -6.875 9.96875 -7.820312 9.96875 -9.71875 C 9.96875 -11.625 9 -12.578125 7.0625 -12.578125 L 3.75 -12.578125 L 3.75 -6.875 Z M 7.0625 -6.875 "/></g></g></g><g fill="#d9d9d9" fill-opacity="1"><g transform="translate(191.37089, 20.485627)"><g><path d="M 4.1875 0.203125 C 3.445312 0.203125 2.863281 -0.00390625 2.4375 -0.421875 C 2.007812 -0.847656 1.796875 -1.484375 1.796875 -2.328125 L 1.796875 -14.765625 L 3.359375 -14.765625 L 3.359375 -2.4375 C 3.359375 -2 3.441406 -1.679688 3.609375 -1.484375 C 3.773438 -1.285156 4.035156 -1.1875 4.390625 -1.1875 C 4.609375 -1.1875 4.828125 -1.222656 5.046875 -1.296875 L 5.1875 -1.265625 L 5.375 -0.03125 C 5.257812 0.0390625 5.09375 0.0976562 4.875 0.140625 C 4.664062 0.179688 4.4375 0.203125 4.1875 0.203125 Z M 4.1875 0.203125 "/></g></g></g><g fill="#d9d9d9" fill-opacity="1"><g transform="translate(197.100239, 20.485627)"><g><path d="M 4.34375 0.203125 C 3.3125 0.203125 2.503906 -0.0664062 1.921875 -0.609375 C 1.335938 -1.148438 1.046875 -1.925781 1.046875 -2.9375 C 1.046875 -3.5625 1.171875 -4.085938 1.421875 -4.515625 C 1.679688 -4.941406 2.082031 -5.289062 2.625 -5.5625 C 3.164062 -5.832031 3.875 -6.039062 4.75 -6.1875 C 5.507812 -6.3125 6.085938 -6.453125 6.484375 -6.609375 C 6.890625 -6.773438 7.160156 -6.957031 7.296875 -7.15625 C 7.429688 -7.351562 7.5 -7.601562 7.5 -7.90625 C 7.5 -8.375 7.332031 -8.734375 7 -8.984375 C 6.675781 -9.242188 6.148438 -9.375 5.421875 -9.375 C 4.742188 -9.375 4.160156 -9.242188 3.671875 -8.984375 C 3.179688 -8.722656 2.734375 -8.328125 2.328125 -7.796875 L 2.140625 -7.796875 L 1.375 -8.890625 C 1.820312 -9.453125 2.390625 -9.898438 3.078125 -10.234375 C 3.765625 -10.566406 4.546875 -10.734375 5.421875 -10.734375 C 6.660156 -10.734375 7.578125 -10.460938 8.171875 -9.921875 C 8.765625 -9.378906 9.0625 -8.625 9.0625 -7.65625 L 9.0625 -2.078125 C 9.0625 -1.484375 9.304688 -1.1875 9.796875 -1.1875 C 9.960938 -1.1875 10.125 -1.21875 10.28125 -1.28125 L 10.40625 -1.234375 L 10.59375 -0.15625 C 10.476562 -0.0820312 10.328125 -0.0234375 10.140625 0.015625 C 9.953125 0.0546875 9.757812 0.078125 9.5625 0.078125 C 8.976562 0.078125 8.535156 -0.046875 8.234375 -0.296875 C 7.941406 -0.554688 7.757812 -0.9375 7.6875 -1.4375 L 7.484375 -1.453125 C 7.179688 -0.898438 6.773438 -0.484375 6.265625 -0.203125 C 5.753906 0.0664062 5.113281 0.203125 4.34375 0.203125 Z M 4.6875 -1.046875 C 5.269531 -1.046875 5.773438 -1.179688 6.203125 -1.453125 C 6.640625 -1.722656 6.972656 -2.101562 7.203125 -2.59375 C 7.429688 -3.082031 7.546875 -3.644531 7.546875 -4.28125 L 7.546875 -5.625 L 7.359375 -5.671875 C 7.128906 -5.503906 6.84375 -5.363281 6.5 -5.25 C 6.164062 -5.132812 5.695312 -5.035156 5.09375 -4.953125 C 4.476562 -4.867188 3.988281 -4.738281 3.625 -4.5625 C 3.269531 -4.394531 3.015625 -4.175781 2.859375 -3.90625 C 2.710938 -3.644531 2.640625 -3.320312 2.640625 -2.9375 C 2.640625 -2.3125 2.816406 -1.835938 3.171875 -1.515625 C 3.535156 -1.203125 4.039062 -1.046875 4.6875 -1.046875 Z M 4.6875 -1.046875 "/></g></g></g><g fill="#d9d9d9" fill-opacity="1"><g transform="translate(207.995557, 20.485627)"><g><path d="M 7.125 -1.671875 L 7.625 -0.546875 C 7.375 -0.304688 7.046875 -0.125 6.640625 0 C 6.234375 0.132812 5.796875 0.203125 5.328125 0.203125 C 3.316406 0.203125 2.3125 -0.816406 2.3125 -2.859375 L 2.3125 -9.265625 L 0.484375 -9.265625 L 0.484375 -10.546875 L 2.3125 -10.546875 L 2.3125 -12.765625 L 3.875 -13.03125 L 3.875 -10.546875 L 7.265625 -10.546875 L 7.265625 -9.265625 L 3.875 -9.265625 L 3.875 -3.015625 C 3.875 -1.796875 4.394531 -1.1875 5.4375 -1.1875 C 6.007812 -1.1875 6.503906 -1.347656 6.921875 -1.671875 Z M 7.125 -1.671875 "/></g></g></g><g fill="#d9d9d9" fill-opacity="1"><g transform="translate(216.016646, 20.485627)"><g><path d="M 2.34375 0 L 2.34375 -9.265625 L 0.515625 -9.265625 L 0.515625 -10.546875 L 2.34375 -10.546875 C 2.226562 -11.003906 2.171875 -11.441406 2.171875 -11.859375 C 2.171875 -12.535156 2.316406 -13.109375 2.609375 -13.578125 C 2.898438 -14.046875 3.300781 -14.394531 3.8125 -14.625 C 4.332031 -14.851562 4.929688 -14.96875 5.609375 -14.96875 C 6.660156 -14.96875 7.46875 -14.742188 8.03125 -14.296875 L 7.421875 -13.1875 L 7.21875 -13.15625 C 6.800781 -13.488281 6.265625 -13.65625 5.609375 -13.65625 C 4.992188 -13.65625 4.523438 -13.492188 4.203125 -13.171875 C 3.890625 -12.847656 3.734375 -12.394531 3.734375 -11.8125 C 3.734375 -11.445312 3.789062 -11.023438 3.90625 -10.546875 L 7.265625 -10.546875 L 7.265625 -9.265625 L 3.90625 -9.265625 L 3.90625 0 Z M 2.34375 0 "/></g></g></g><g fill="#d9d9d9" fill-opacity="1"><g transform="translate(223.522092, 20.485627)"><g><path d="M 6.046875 0.203125 C 5.054688 0.203125 4.191406 -0.00390625 3.453125 -0.421875 C 2.710938 -0.847656 2.144531 -1.46875 1.75 -2.28125 C 1.351562 -3.101562 1.15625 -4.097656 1.15625 -5.265625 C 1.15625 -6.429688 1.351562 -7.421875 1.75 -8.234375 C 2.144531 -9.054688 2.710938 -9.675781 3.453125 -10.09375 C 4.191406 -10.519531 5.054688 -10.734375 6.046875 -10.734375 C 7.035156 -10.734375 7.898438 -10.519531 8.640625 -10.09375 C 9.378906 -9.675781 9.945312 -9.054688 10.34375 -8.234375 C 10.738281 -7.421875 10.9375 -6.429688 10.9375 -5.265625 C 10.9375 -4.097656 10.738281 -3.101562 10.34375 -2.28125 C 9.945312 -1.46875 9.378906 -0.847656 8.640625 -0.421875 C 7.898438 -0.00390625 7.035156 0.203125 6.046875 0.203125 Z M 6.046875 -1.1875 C 7.097656 -1.1875 7.898438 -1.519531 8.453125 -2.1875 C 9.015625 -2.851562 9.296875 -3.878906 9.296875 -5.265625 C 9.296875 -6.660156 9.015625 -7.6875 8.453125 -8.34375 C 7.898438 -9.007812 7.097656 -9.34375 6.046875 -9.34375 C 4.992188 -9.34375 4.1875 -9.007812 3.625 -8.34375 C 3.070312 -7.675781 2.796875 -6.648438 2.796875 -5.265625 C 2.796875 -3.878906 3.070312 -2.851562 3.625 -2.1875 C 4.1875 -1.519531 4.992188 -1.1875 6.046875 -1.1875 Z M 6.046875 -1.1875 "/></g></g></g><g fill="#d9d9d9" fill-opacity="1"><g transform="translate(235.611018, 20.485627)"><g><path d="M 1.828125 0 L 1.828125 -10.53125 L 3.3125 -10.53125 L 3.3125 -8.890625 L 3.515625 -8.828125 C 4.003906 -10.023438 4.925781 -10.625 6.28125 -10.625 C 7 -10.625 7.539062 -10.492188 7.90625 -10.234375 L 7.5 -8.921875 L 7.3125 -8.890625 C 6.914062 -9.078125 6.484375 -9.171875 6.015625 -9.171875 C 5.171875 -9.171875 4.519531 -8.851562 4.0625 -8.21875 C 3.613281 -7.59375 3.390625 -6.578125 3.390625 -5.171875 L 3.390625 0 Z M 1.828125 0 "/></g></g></g><g fill="#d9d9d9" fill-opacity="1"><g transform="translate(243.746679, 20.485627)"><g><path d="M 1.828125 0 L 1.828125 -10.53125 L 3.3125 -10.53125 L 3.3125 -8.984375 L 3.515625 -8.9375 C 3.867188 -9.53125 4.296875 -9.976562 4.796875 -10.28125 C 5.304688 -10.582031 5.914062 -10.734375 6.625 -10.734375 C 7.445312 -10.734375 8.078125 -10.578125 8.515625 -10.265625 C 8.960938 -9.960938 9.3125 -9.46875 9.5625 -8.78125 L 9.765625 -8.78125 C 10.128906 -9.425781 10.578125 -9.910156 11.109375 -10.234375 C 11.640625 -10.566406 12.289062 -10.734375 13.0625 -10.734375 C 14.144531 -10.734375 14.953125 -10.441406 15.484375 -9.859375 C 16.015625 -9.273438 16.28125 -8.382812 16.28125 -7.1875 L 16.28125 0 L 14.734375 0 L 14.734375 -7.140625 C 14.734375 -7.910156 14.570312 -8.472656 14.25 -8.828125 C 13.925781 -9.191406 13.40625 -9.375 12.6875 -9.375 C 11.851562 -9.375 11.171875 -9.066406 10.640625 -8.453125 C 10.109375 -7.847656 9.84375 -6.84375 9.84375 -5.4375 L 9.84375 0 L 8.28125 0 L 8.28125 -7.140625 C 8.28125 -7.910156 8.117188 -8.472656 7.796875 -8.828125 C 7.472656 -9.191406 6.957031 -9.375 6.25 -9.375 C 5.40625 -9.375 4.71875 -9.078125 4.1875 -8.484375 C 3.65625 -7.898438 3.390625 -6.941406 3.390625 -5.609375 L 3.390625 0 Z M 1.828125 0 "/></g></g></g></g></g><g clip-path="url(#9e6f8d5eed)"><g transform="matrix(1, 0, 0, 1, 38, 87)"><g clip-path="url(#890426691c)"><g fill="#ffffff" fill-opacity="1"><g transform="translate(0.560997, 42.03504)"><g><path d="M 11.71875 -24.203125 L 11.71875 0 L 2.84375 0 L 2.84375 -39 L 11.71875 -39 L 27.234375 -14.796875 L 27.328125 -14.796875 L 27.328125 -39 L 36.21875 -39 L 36.21875 0 L 27.328125 0 L 11.828125 -24.203125 Z M 11.71875 -24.203125 "/></g></g></g><g fill="#ffffff" fill-opacity="1"><g transform="translate(39.610403, 42.03504)"><g><path d="M 27.375 -10.96875 L 9.78125 -10.96875 C 9.78125 -9.269531 10.332031 -8.007812 11.4375 -7.1875 C 12.539062 -6.363281 13.738281 -5.953125 15.03125 -5.953125 C 16.382812 -5.953125 17.457031 -6.132812 18.25 -6.5 C 19.039062 -6.863281 19.941406 -7.582031 20.953125 -8.65625 L 27 -5.625 C 24.476562 -1.40625 20.285156 0.703125 14.421875 0.703125 C 10.765625 0.703125 7.628906 -0.546875 5.015625 -3.046875 C 2.398438 -5.554688 1.09375 -8.578125 1.09375 -12.109375 C 1.09375 -15.640625 2.398438 -18.664062 5.015625 -21.1875 C 7.628906 -23.707031 10.765625 -24.96875 14.421875 -24.96875 C 18.265625 -24.96875 21.390625 -23.851562 23.796875 -21.625 C 26.210938 -19.40625 27.421875 -16.234375 27.421875 -12.109375 C 27.421875 -11.535156 27.40625 -11.15625 27.375 -10.96875 Z M 10.03125 -15.609375 L 19.25 -15.609375 C 19.050781 -16.867188 18.550781 -17.835938 17.75 -18.515625 C 16.945312 -19.191406 15.914062 -19.53125 14.65625 -19.53125 C 13.269531 -19.53125 12.164062 -19.164062 11.34375 -18.4375 C 10.53125 -17.71875 10.09375 -16.773438 10.03125 -15.609375 Z M 10.03125 -15.609375 "/></g></g></g><g fill="#ffffff" fill-opacity="1"><g transform="translate(68.117408, 42.03504)"><g><path d="M 30.921875 0 L 20.796875 0 L 15.46875 -6.859375 L 10.125 0 L 0 0 L 10.359375 -12.671875 L 1.46875 -24.25 L 11.25 -24.25 L 15.46875 -18.625 L 19.671875 -24.25 L 29.453125 -24.25 L 20.5625 -12.671875 Z M 30.921875 0 "/></g></g></g><g fill="#ffffff" fill-opacity="1"><g transform="translate(99.035468, 42.03504)"><g><path d="M 5.125 -2.890625 C 2.4375 -5.285156 1.09375 -8.359375 1.09375 -12.109375 C 1.09375 -15.859375 2.492188 -18.9375 5.296875 -21.34375 C 8.097656 -23.757812 11.566406 -24.96875 15.703125 -24.96875 C 19.765625 -24.96875 23.191406 -23.753906 25.984375 -21.328125 C 28.773438 -18.898438 30.171875 -15.828125 30.171875 -12.109375 C 30.171875 -8.390625 28.804688 -5.320312 26.078125 -2.90625 C 23.347656 -0.5 19.890625 0.703125 15.703125 0.703125 C 11.347656 0.703125 7.820312 -0.492188 5.125 -2.890625 Z M 11.59375 -16.21875 C 10.507812 -15.144531 9.96875 -13.769531 9.96875 -12.09375 C 9.96875 -10.425781 10.488281 -9.066406 11.53125 -8.015625 C 12.570312 -6.960938 13.945312 -6.4375 15.65625 -6.4375 C 17.289062 -6.4375 18.632812 -6.96875 19.6875 -8.03125 C 20.75 -9.101562 21.28125 -10.460938 21.28125 -12.109375 C 21.28125 -13.773438 20.734375 -15.144531 19.640625 -16.21875 C 18.554688 -17.289062 17.226562 -17.828125 15.65625 -17.828125 C 14.039062 -17.828125 12.6875 -17.289062 11.59375 -16.21875 Z M 11.59375 -16.21875 "/></g></g></g><g fill="#ffffff" fill-opacity="1"><g transform="translate(130.284441, 42.03504)"><g><path d="M 2.84375 0 L 2.84375 -24.25 L 11.203125 -24.25 L 11.203125 -20.75 L 11.296875 -20.75 C 11.359375 -20.882812 11.460938 -21.046875 11.609375 -21.234375 C 11.753906 -21.421875 12.0625 -21.75 12.53125 -22.21875 C 13 -22.695312 13.5 -23.125 14.03125 -23.5 C 14.570312 -23.875 15.269531 -24.210938 16.125 -24.515625 C 16.976562 -24.816406 17.84375 -24.96875 18.71875 -24.96875 C 19.632812 -24.96875 20.535156 -24.835938 21.421875 -24.578125 C 22.304688 -24.328125 22.953125 -24.078125 23.359375 -23.828125 L 24.015625 -23.453125 L 20.515625 -16.359375 C 19.472656 -17.242188 18.023438 -17.6875 16.171875 -17.6875 C 15.160156 -17.6875 14.289062 -17.460938 13.5625 -17.015625 C 12.84375 -16.578125 12.332031 -16.039062 12.03125 -15.40625 C 11.726562 -14.78125 11.515625 -14.242188 11.390625 -13.796875 C 11.265625 -13.359375 11.203125 -13.015625 11.203125 -12.765625 L 11.203125 0 Z M 2.84375 0 "/></g></g></g><g fill="#ffffff" fill-opacity="1"><g transform="translate(153.827538, 42.03504)"><g><path d="M 4.484375 -3 C 2.222656 -5.476562 1.09375 -8.515625 1.09375 -12.109375 C 1.09375 -15.703125 2.222656 -18.742188 4.484375 -21.234375 C 6.753906 -23.722656 9.640625 -24.96875 13.140625 -24.96875 C 16.359375 -24.96875 19.007812 -23.957031 21.09375 -21.9375 L 21.09375 -24.25 L 29.453125 -24.25 L 29.453125 0 L 21.1875 0 L 21.1875 -2.75 L 21.09375 -2.75 C 19.007812 -0.445312 16.359375 0.703125 13.140625 0.703125 C 9.640625 0.703125 6.753906 -0.53125 4.484375 -3 Z M 11.59375 -16.21875 C 10.507812 -15.144531 9.96875 -13.769531 9.96875 -12.09375 C 9.96875 -10.425781 10.488281 -9.066406 11.53125 -8.015625 C 12.570312 -6.960938 13.945312 -6.4375 15.65625 -6.4375 C 17.289062 -6.4375 18.632812 -6.96875 19.6875 -8.03125 C 20.75 -9.101562 21.28125 -10.460938 21.28125 -12.109375 C 21.28125 -13.773438 20.734375 -15.144531 19.640625 -16.21875 C 18.554688 -17.289062 17.226562 -17.828125 15.65625 -17.828125 C 14.039062 -17.828125 12.6875 -17.289062 11.59375 -16.21875 Z M 11.59375 -16.21875 "/></g></g></g><g fill="#ffffff" fill-opacity="1"><g transform="translate(186.116582, 42.03504)"><g><path d="M 17.203125 -39.71875 C 19.316406 -39.71875 21.382812 -39.410156 23.40625 -38.796875 C 25.425781 -38.179688 26.921875 -37.570312 27.890625 -36.96875 L 29.3125 -36.03125 L 25.71875 -28.9375 C 25.4375 -29.125 25.039062 -29.367188 24.53125 -29.671875 C 24.03125 -29.972656 23.085938 -30.375 21.703125 -30.875 C 20.316406 -31.375 19.023438 -31.625 17.828125 -31.625 C 16.347656 -31.625 15.203125 -31.304688 14.390625 -30.671875 C 13.585938 -30.046875 13.1875 -29.195312 13.1875 -28.125 C 13.1875 -27.59375 13.375 -27.097656 13.75 -26.640625 C 14.132812 -26.179688 14.78125 -25.691406 15.6875 -25.171875 C 16.601562 -24.648438 17.410156 -24.234375 18.109375 -23.921875 C 18.804688 -23.609375 19.878906 -23.132812 21.328125 -22.5 C 23.847656 -21.425781 26 -19.96875 27.78125 -18.125 C 29.5625 -16.28125 30.453125 -14.195312 30.453125 -11.875 C 30.453125 -9.632812 30.046875 -7.675781 29.234375 -6 C 28.429688 -4.332031 27.328125 -3.023438 25.921875 -2.078125 C 24.523438 -1.128906 22.972656 -0.429688 21.265625 0.015625 C 19.566406 0.472656 17.726562 0.703125 15.75 0.703125 C 14.039062 0.703125 12.367188 0.53125 10.734375 0.1875 C 9.097656 -0.15625 7.726562 -0.585938 6.625 -1.109375 C 5.519531 -1.628906 4.523438 -2.140625 3.640625 -2.640625 C 2.753906 -3.148438 2.109375 -3.578125 1.703125 -3.921875 L 1.09375 -4.4375 L 5.53125 -11.921875 C 5.90625 -11.597656 6.421875 -11.191406 7.078125 -10.703125 C 7.742188 -10.210938 8.921875 -9.554688 10.609375 -8.734375 C 12.296875 -7.921875 13.785156 -7.515625 15.078125 -7.515625 C 18.828125 -7.515625 20.703125 -8.789062 20.703125 -11.34375 C 20.703125 -11.882812 20.566406 -12.378906 20.296875 -12.828125 C 20.035156 -13.285156 19.566406 -13.742188 18.890625 -14.203125 C 18.210938 -14.660156 17.613281 -15.023438 17.09375 -15.296875 C 16.570312 -15.566406 15.71875 -15.976562 14.53125 -16.53125 C 13.351562 -17.082031 12.484375 -17.5 11.921875 -17.78125 C 9.554688 -18.945312 7.722656 -20.40625 6.421875 -22.15625 C 5.128906 -23.90625 4.484375 -25.785156 4.484375 -27.796875 C 4.484375 -31.296875 5.773438 -34.15625 8.359375 -36.375 C 10.953125 -38.601562 13.898438 -39.71875 17.203125 -39.71875 Z M 17.203125 -39.71875 "/></g></g></g><g fill="#ffffff" fill-opacity="1"><g transform="translate(217.8856, 42.03504)"><g><path d="M 27.796875 -21.25 C 30.066406 -18.78125 31.203125 -15.75 31.203125 -12.15625 C 31.203125 -8.5625 30.066406 -5.519531 27.796875 -3.03125 C 25.523438 -0.539062 22.644531 0.703125 19.15625 0.703125 C 15.9375 0.703125 13.285156 -0.300781 11.203125 -2.3125 L 11.203125 12.296875 L 2.84375 12.296875 L 2.84375 -24.25 L 11.109375 -24.25 L 11.109375 -21.515625 L 11.203125 -21.515625 C 13.285156 -23.816406 15.9375 -24.96875 19.15625 -24.96875 C 22.644531 -24.96875 25.523438 -23.726562 27.796875 -21.25 Z M 20.671875 -8.03125 C 21.765625 -9.101562 22.3125 -10.472656 22.3125 -12.140625 C 22.3125 -13.816406 21.789062 -15.179688 20.75 -16.234375 C 19.71875 -17.296875 18.347656 -17.828125 16.640625 -17.828125 C 15.003906 -17.828125 13.65625 -17.289062 12.59375 -16.21875 C 11.539062 -15.144531 11.015625 -13.789062 11.015625 -12.15625 C 11.015625 -10.476562 11.554688 -9.101562 12.640625 -8.03125 C 13.734375 -6.96875 15.066406 -6.4375 16.640625 -6.4375 C 18.242188 -6.4375 19.585938 -6.96875 20.671875 -8.03125 Z M 20.671875 -8.03125 "/></g></g></g><g fill="#ffffff" fill-opacity="1"><g transform="translate(250.174644, 42.03504)"><g><path d="M 4.484375 -3 C 2.222656 -5.476562 1.09375 -8.515625 1.09375 -12.109375 C 1.09375 -15.703125 2.222656 -18.742188 4.484375 -21.234375 C 6.753906 -23.722656 9.640625 -24.96875 13.140625 -24.96875 C 16.359375 -24.96875 19.007812 -23.957031 21.09375 -21.9375 L 21.09375 -24.25 L 29.453125 -24.25 L 29.453125 0 L 21.1875 0 L 21.1875 -2.75 L 21.09375 -2.75 C 19.007812 -0.445312 16.359375 0.703125 13.140625 0.703125 C 9.640625 0.703125 6.753906 -0.53125 4.484375 -3 Z M 11.59375 -16.21875 C 10.507812 -15.144531 9.96875 -13.769531 9.96875 -12.09375 C 9.96875 -10.425781 10.488281 -9.066406 11.53125 -8.015625 C 12.570312 -6.960938 13.945312 -6.4375 15.65625 -6.4375 C 17.289062 -6.4375 18.632812 -6.96875 19.6875 -8.03125 C 20.75 -9.101562 21.28125 -10.460938 21.28125 -12.109375 C 21.28125 -13.773438 20.734375 -15.144531 19.640625 -16.21875 C 18.554688 -17.289062 17.226562 -17.828125 15.65625 -17.828125 C 14.039062 -17.828125 12.6875 -17.289062 11.59375 -16.21875 Z M 11.59375 -16.21875 "/></g></g></g><g fill="#ffffff" fill-opacity="1"><g transform="translate(282.463688, 42.03504)"><g><path d="M 15.75 -18.109375 C 14.164062 -18.109375 12.804688 -17.523438 11.671875 -16.359375 C 10.535156 -15.191406 9.96875 -13.789062 9.96875 -12.15625 C 9.96875 -10.476562 10.535156 -9.054688 11.671875 -7.890625 C 12.804688 -6.722656 14.164062 -6.140625 15.75 -6.140625 C 16.5 -6.140625 17.210938 -6.234375 17.890625 -6.421875 C 18.566406 -6.617188 19.066406 -6.8125 19.390625 -7 L 19.8125 -7.28125 L 22.640625 -1.46875 C 22.421875 -1.3125 22.113281 -1.113281 21.71875 -0.875 C 21.332031 -0.632812 20.4375 -0.3125 19.03125 0.09375 C 17.625 0.5 16.117188 0.703125 14.515625 0.703125 C 10.953125 0.703125 7.820312 -0.546875 5.125 -3.046875 C 2.4375 -5.554688 1.09375 -8.5625 1.09375 -12.0625 C 1.09375 -15.59375 2.4375 -18.625 5.125 -21.15625 C 7.820312 -23.695312 10.953125 -24.96875 14.515625 -24.96875 C 16.117188 -24.96875 17.597656 -24.773438 18.953125 -24.390625 C 20.316406 -24.015625 21.28125 -23.640625 21.84375 -23.265625 L 22.640625 -22.6875 L 19.8125 -16.96875 C 18.769531 -17.726562 17.414062 -18.109375 15.75 -18.109375 Z M 15.75 -18.109375 "/></g></g></g><g fill="#ffffff" fill-opacity="1"><g transform="translate(305.675873, 42.03504)"><g><path d="M 27.375 -10.96875 L 9.78125 -10.96875 C 9.78125 -9.269531 10.332031 -8.007812 11.4375 -7.1875 C 12.539062 -6.363281 13.738281 -5.953125 15.03125 -5.953125 C 16.382812 -5.953125 17.457031 -6.132812 18.25 -6.5 C 19.039062 -6.863281 19.941406 -7.582031 20.953125 -8.65625 L 27 -5.625 C 24.476562 -1.40625 20.285156 0.703125 14.421875 0.703125 C 10.765625 0.703125 7.628906 -0.546875 5.015625 -3.046875 C 2.398438 -5.554688 1.09375 -8.578125 1.09375 -12.109375 C 1.09375 -15.640625 2.398438 -18.664062 5.015625 -21.1875 C 7.628906 -23.707031 10.765625 -24.96875 14.421875 -24.96875 C 18.265625 -24.96875 21.390625 -23.851562 23.796875 -21.625 C 26.210938 -19.40625 27.421875 -16.234375 27.421875 -12.109375 C 27.421875 -11.535156 27.40625 -11.15625 27.375 -10.96875 Z M 10.03125 -15.609375 L 19.25 -15.609375 C 19.050781 -16.867188 18.550781 -17.835938 17.75 -18.515625 C 16.945312 -19.191406 15.914062 -19.53125 14.65625 -19.53125 C 13.269531 -19.53125 12.164062 -19.164062 11.34375 -18.4375 C 10.53125 -17.71875 10.09375 -16.773438 10.03125 -15.609375 Z M 10.03125 -15.609375 "/></g></g></g></g></g></g></g></g></g></svg>