<svg xmlns="http://www.w3.org/2000/svg" xmlns:xlink="http://www.w3.org/1999/xlink" width="500" zoomAndPan="magnify" viewBox="0 0 375 374.999991" height="500" preserveAspectRatio="xMidYMid meet" version="1.0"><defs><g/><clipPath id="bdd92c8433"><path d="M 187.5 0 C 83.945312 0 0 83.945312 0 187.5 C 0 291.054688 83.945312 375 187.5 375 C 291.054688 375 375 291.054688 375 187.5 C 375 83.945312 291.054688 0 187.5 0 Z M 187.5 0 " clip-rule="nonzero"/></clipPath><clipPath id="b859ac8cd1"><path d="M 0 0 L 375 0 L 375 375 L 0 375 Z M 0 0 " clip-rule="nonzero"/></clipPath><clipPath id="68e2152975"><path d="M 187.5 0 C 83.945312 0 0 83.945312 0 187.5 C 0 291.054688 83.945312 375 187.5 375 C 291.054688 375 375 291.054688 375 187.5 C 375 83.945312 291.054688 0 187.5 0 Z M 187.5 0 " clip-rule="nonzero"/></clipPath><clipPath id="0a67adc703"><rect x="0" width="375" y="0" height="375"/></clipPath><clipPath id="1d1fe265cb"><path d="M 22 106 L 253 106 L 253 250 L 22 250 Z M 22 106 " clip-rule="nonzero"/></clipPath><clipPath id="886643ac00"><path d="M 10.890625 123.351562 L 240.382812 91.074219 L 258.976562 223.273438 L 29.484375 255.550781 Z M 10.890625 123.351562 " clip-rule="nonzero"/></clipPath><clipPath id="e4a90e2dfc"><path d="M 10.890625 123.351562 L 240.382812 91.074219 L 258.976562 223.273438 L 29.484375 255.550781 Z M 10.890625 123.351562 " clip-rule="nonzero"/></clipPath><clipPath id="8dda263870"><path d="M 10.890625 123.351562 L 240.382812 91.074219 L 258.976562 223.273438 L 29.484375 255.550781 Z M 10.890625 123.351562 " clip-rule="nonzero"/></clipPath><clipPath id="0a664e5938"><rect x="0" width="242" y="0" height="26"/></clipPath><clipPath id="2a515a21bd"><rect x="0" width="309" y="0" height="55"/></clipPath></defs><g clip-path="url(#bdd92c8433)"><g transform="matrix(1, 0, 0, 1, 0, 0)"><g clip-path="url(#0a67adc703)"><g clip-path="url(#b859ac8cd1)"><g clip-path="url(#68e2152975)"><rect x="-82.5" width="540" fill="#ffffff" height="539.999987" y="-82.499998" fill-opacity="1"/></g></g></g></g><path stroke-linecap="butt" transform="matrix(0.75, 0, 0, 0.75, 0.0000045, -0.000000000000021316)" fill="none" stroke-linejoin="miter" d="M 249.999994 0.000000000000028422 C 111.927078 0.000000000000028422 -0.000006 111.927084 -0.000006 250 C -0.000006 388.072917 111.927078 500.000001 249.999994 500.000001 C 388.072911 500.000001 499.999995 388.072917 499.999995 250 C 499.999995 111.927084 388.072911 0.000000000000028422 249.999994 0.000000000000028422 Z M 249.999994 0.000000000000028422 " stroke="#000000" stroke-width="8" stroke-opacity="1" stroke-miterlimit="4"/></g><g clip-path="url(#1d1fe265cb)"><g clip-path="url(#886643ac00)"><g clip-path="url(#e4a90e2dfc)"><g clip-path="url(#8dda263870)"><path fill="#4f98d8" d="M 22.519531 205.75 L 22.351562 204.253906 L 22.257812 202.84375 C 22.011719 199.082031 22.195312 195.265625 22.785156 191.5 C 23.367188 187.726562 24.398438 184.011719 25.808594 180.433594 C 27.230469 176.863281 29.039062 173.429688 31.203125 170.214844 C 33.375 167.011719 35.878906 164.007812 38.710938 161.316406 C 41.550781 158.636719 44.675781 156.226562 48.046875 154.203125 C 51.417969 152.179688 55.011719 150.484375 58.761719 149.230469 C 62.507812 147.972656 66.382812 147.101562 70.3125 146.660156 C 71.625 146.515625 72.949219 146.421875 74.273438 146.371094 C 74.597656 145.6875 74.929688 145.003906 75.273438 144.332031 C 76.757812 141.457031 78.449219 138.691406 80.3125 136.039062 C 82.171875 133.390625 84.230469 130.875 86.445312 128.511719 C 88.664062 126.148438 91.03125 123.914062 93.566406 121.886719 C 96.089844 119.847656 98.757812 117.980469 101.539062 116.300781 C 104.324219 114.628906 107.230469 113.15625 110.214844 111.882812 C 113.199219 110.601562 116.28125 109.554688 119.410156 108.714844 C 122.539062 107.875 125.71875 107.242188 128.921875 106.847656 L 131.167969 106.605469 L 132.433594 106.507812 L 133.722656 106.414062 C 134.5625 106.363281 135.34375 106.347656 136.15625 106.316406 C 136.964844 106.289062 137.773438 106.304688 138.578125 106.304688 C 141.804688 106.355469 145.027344 106.621094 148.210938 107.101562 C 151.394531 107.59375 154.539062 108.3125 157.613281 109.230469 C 160.6875 110.152344 163.683594 111.304688 166.585938 112.636719 C 169.492188 113.96875 172.28125 115.519531 174.957031 117.230469 C 177.632812 118.941406 180.171875 120.851562 182.566406 122.910156 C 185.988281 125.855469 189.09375 129.132812 191.839844 132.667969 C 193.75 132.226562 195.683594 131.894531 197.613281 131.667969 C 198.117188 131.609375 198.621094 131.5625 199.121094 131.519531 L 199.167969 131.515625 C 199.140625 131.519531 199.515625 131.46875 199.367188 131.488281 L 199.386719 131.488281 L 199.632812 131.476562 L 199.960938 131.457031 L 200.621094 131.425781 L 201.277344 131.394531 C 201.503906 131.382812 201.691406 131.367188 201.984375 131.367188 L 203.589844 131.34375 C 204.6875 131.308594 205.644531 131.386719 206.660156 131.429688 C 207.160156 131.445312 207.65625 131.496094 208.15625 131.546875 L 209.652344 131.695312 C 210.640625 131.824219 211.628906 131.972656 212.609375 132.136719 L 214.074219 132.433594 C 214.5625 132.535156 215.050781 132.628906 215.527344 132.761719 C 216.492188 133.011719 217.457031 133.242188 218.394531 133.550781 L 219.808594 133.992188 L 221.199219 134.503906 C 223.046875 135.179688 224.835938 136.003906 226.578125 136.875 C 227.4375 137.339844 228.296875 137.804688 229.132812 138.296875 L 230.371094 139.0625 L 230.988281 139.449219 L 231.585938 139.859375 L 232.777344 140.683594 C 233.171875 140.960938 233.546875 141.265625 233.929688 141.558594 C 234.3125 141.855469 234.699219 142.136719 235.066406 142.445312 L 236.164062 143.375 L 236.710938 143.84375 L 237.234375 144.335938 L 238.273438 145.320312 C 238.953125 145.992188 239.609375 146.683594 240.253906 147.375 C 241.511719 148.796875 242.730469 150.242188 243.800781 151.789062 C 244.070312 152.175781 244.34375 152.558594 244.605469 152.945312 L 245.351562 154.132812 C 245.867188 154.914062 246.300781 155.742188 246.761719 156.546875 C 247 156.945312 247.195312 157.371094 247.40625 157.78125 L 248.019531 159.023438 C 248.382812 159.882812 248.765625 160.714844 249.09375 161.578125 C 249.402344 162.441406 249.757812 163.285156 250.011719 164.164062 L 250.421875 165.46875 C 250.550781 165.90625 250.648438 166.351562 250.761719 166.792969 C 250.867188 167.234375 250.988281 167.667969 251.085938 168.109375 L 251.34375 169.441406 C 251.542969 170.320312 251.636719 171.21875 251.757812 172.105469 C 251.824219 172.546875 251.859375 172.992188 251.894531 173.4375 L 252.003906 174.773438 C 252.042969 175.660156 252.050781 176.546875 252.066406 177.429688 C 251.777344 176.589844 251.535156 175.746094 251.238281 174.921875 L 250.78125 173.691406 C 250.636719 173.285156 250.484375 172.875 250.308594 172.480469 C 249.960938 171.683594 249.644531 170.882812 249.257812 170.109375 L 248.699219 168.949219 C 248.507812 168.566406 248.292969 168.195312 248.09375 167.816406 C 247.886719 167.441406 247.699219 167.066406 247.476562 166.699219 L 246.820312 165.605469 C 246.40625 164.871094 245.902344 164.1875 245.445312 163.484375 C 244.972656 162.789062 244.453125 162.128906 243.960938 161.457031 C 243.421875 160.816406 242.929688 160.148438 242.375 159.527344 C 241.816406 158.914062 241.292969 158.277344 240.699219 157.699219 L 239.832031 156.820312 C 239.539062 156.539062 239.230469 156.261719 238.929688 155.984375 C 237.742188 154.863281 236.472656 153.835938 235.191406 152.859375 C 234.53125 152.390625 233.871094 151.921875 233.203125 151.476562 L 232.183594 150.835938 L 231.675781 150.515625 L 231.152344 150.21875 L 230.113281 149.625 C 229.769531 149.429688 229.410156 149.257812 229.058594 149.074219 C 228.703125 148.898438 228.359375 148.703125 227.992188 148.539062 L 226.914062 148.050781 L 226.375 147.804688 L 225.828125 147.582031 L 224.734375 147.140625 C 224 146.867188 223.257812 146.617188 222.519531 146.367188 C 221.023438 145.914062 219.53125 145.492188 218.011719 145.207031 L 216.878906 144.988281 L 215.734375 144.816406 C 214.984375 144.683594 214.214844 144.628906 213.457031 144.550781 C 213.078125 144.5 212.699219 144.488281 212.316406 144.46875 L 211.175781 144.410156 C 210.417969 144.398438 209.65625 144.394531 208.902344 144.398438 L 207.773438 144.453125 C 207.394531 144.46875 207.019531 144.476562 206.644531 144.523438 C 205.902344 144.605469 205.109375 144.644531 204.460938 144.765625 L 203.441406 144.90625 C 203.296875 144.921875 203.050781 144.972656 202.839844 145.011719 L 202.195312 145.128906 L 201.222656 145.304688 L 201.058594 145.332031 L 200.980469 145.347656 L 200.957031 145.351562 C 200.792969 145.375 201.160156 145.328125 201.117188 145.335938 L 201.082031 145.339844 C 200.714844 145.421875 200.355469 145.507812 199.992188 145.597656 C 198.546875 145.957031 197.128906 146.382812 195.746094 146.898438 C 194.367188 147.410156 193.019531 147.996094 191.710938 148.644531 L 186.695312 151.128906 L 182.496094 146.078125 C 179.386719 142.339844 175.816406 139.039062 171.914062 136.261719 C 169.960938 134.871094 167.921875 133.625 165.828125 132.496094 C 163.726562 131.375 161.558594 130.410156 159.351562 129.570312 C 157.140625 128.730469 154.878906 128.0625 152.59375 127.519531 C 150.308594 126.980469 147.996094 126.601562 145.671875 126.375 C 143.347656 126.140625 141.011719 126.0625 138.683594 126.140625 C 138.101562 126.171875 137.519531 126.183594 136.9375 126.222656 C 136.363281 126.273438 135.757812 126.304688 135.210938 126.359375 L 133.613281 126.535156 L 131.726562 126.804688 C 129.425781 127.191406 127.15625 127.699219 124.9375 128.363281 C 122.714844 129.023438 120.550781 129.835938 118.4375 130.769531 C 116.328125 131.707031 114.289062 132.796875 112.328125 134.003906 C 110.359375 135.207031 108.472656 136.542969 106.6875 138 C 104.902344 139.464844 103.195312 141.019531 101.609375 142.699219 C 100.023438 144.378906 98.550781 146.164062 97.183594 148.023438 C 95.820312 149.890625 94.589844 151.855469 93.484375 153.882812 C 92.371094 155.910156 91.398438 158.015625 90.570312 160.175781 L 87.632812 167.839844 L 79.804688 166.792969 C 77.292969 166.457031 74.742188 166.351562 72.195312 166.539062 C 69.648438 166.734375 67.097656 167.148438 64.636719 167.851562 C 62.175781 168.554688 59.765625 169.480469 57.484375 170.679688 C 55.203125 171.878906 53.011719 173.292969 50.996094 174.949219 C 48.984375 176.605469 47.125 178.472656 45.476562 180.53125 C 43.816406 182.578125 42.359375 184.808594 41.144531 187.175781 C 40.828125 187.761719 40.570312 188.375 40.269531 188.976562 C 40 189.585938 39.753906 190.207031 39.492188 190.824219 C 39.273438 191.457031 39.03125 192.082031 38.820312 192.71875 C 38.632812 193.359375 38.402344 193.996094 38.238281 194.648438 C 37.527344 197.246094 37.089844 199.933594 36.921875 202.667969 L 36.859375 203.695312 L 36.847656 204.628906 C 36.84375 204.953125 36.828125 205.234375 36.832031 205.59375 L 36.890625 206.8125 L 36.9375 207.726562 L 36.941406 207.800781 L 36.941406 207.839844 C 36.964844 208.007812 36.917969 207.65625 36.921875 207.699219 L 36.933594 207.832031 L 37.027344 208.867188 C 37.0625 209.210938 37.078125 209.5625 37.128906 209.90625 L 37.277344 210.9375 C 37.671875 213.695312 38.363281 216.421875 39.324219 219.085938 C 40.292969 221.746094 41.558594 224.324219 43.089844 226.769531 C 44.617188 229.21875 46.410156 231.550781 48.457031 233.679688 C 50.507812 235.792969 52.761719 237.792969 55.261719 239.488281 C 57.761719 241.1875 60.4375 242.703125 63.296875 243.890625 L 64.371094 244.34375 L 65.464844 244.75 C 65.832031 244.882812 66.195312 245.035156 66.570312 245.148438 L 67.691406 245.503906 C 68.4375 245.757812 69.203125 245.929688 69.964844 246.140625 L 70.539062 246.292969 L 71.121094 246.417969 L 72.285156 246.675781 C 72.675781 246.769531 73.070312 246.828125 73.460938 246.894531 L 74.648438 247.089844 C 75.441406 247.207031 76.242188 247.292969 77.046875 247.398438 C 77.847656 247.476562 78.652344 247.511719 79.46875 247.585938 L 81.9375 247.667969 C 81.140625 247.886719 80.347656 248.09375 79.550781 248.296875 C 78.742188 248.46875 77.921875 248.632812 77.09375 248.78125 C 76.273438 248.894531 75.445312 249.042969 74.609375 249.125 L 73.355469 249.230469 C 72.9375 249.265625 72.515625 249.308594 72.09375 249.316406 C 70.410156 249.398438 68.707031 249.394531 67.007812 249.269531 L 65.726562 249.171875 C 65.296875 249.144531 64.878906 249.074219 64.449219 249.027344 L 63.171875 248.863281 C 62.746094 248.796875 62.324219 248.71875 61.898438 248.636719 C 58.511719 248 55.140625 247.023438 51.914062 245.628906 C 51.109375 245.269531 50.3125 244.894531 49.515625 244.519531 C 48.738281 244.105469 47.941406 243.710938 47.171875 243.269531 C 45.632812 242.390625 44.117188 241.445312 42.683594 240.378906 C 39.796875 238.273438 37.101562 235.847656 34.6875 233.128906 C 34.378906 232.796875 34.089844 232.445312 33.800781 232.089844 L 32.9375 231.035156 C 32.367188 230.320312 31.84375 229.574219 31.292969 228.839844 C 30.777344 228.085938 30.277344 227.316406 29.777344 226.542969 C 29.316406 225.753906 28.832031 224.96875 28.390625 224.160156 C 26.617188 220.929688 25.207031 217.472656 24.171875 213.894531 L 23.796875 212.542969 C 23.667969 212.097656 23.582031 211.636719 23.476562 211.183594 L 23.167969 209.816406 L 22.914062 208.417969 L 22.699219 207.21875 C 22.632812 206.765625 22.578125 206.238281 22.519531 205.75 " fill-opacity="1" fill-rule="nonzero"/></g></g></g></g><g transform="matrix(1, 0, 0, 1, 74, 224)"><g clip-path="url(#0a664e5938)"><g fill="#243544" fill-opacity="1"><g transform="translate(1.450177, 19.370979)"><g><path d="M 3.34375 0 L 1.9375 0 L 1.9375 -12.84375 L 4.1875 -12.84375 L 8.0625 -1.96875 L 8.25 -1.96875 L 12.140625 -12.84375 L 14.3125 -12.84375 L 14.3125 0 L 12.875 0 L 12.875 -10.46875 L 12.65625 -10.515625 L 8.859375 0 L 7.359375 0 L 3.5625 -10.515625 L 3.34375 -10.46875 Z M 3.34375 0 "/></g></g></g><g fill="#243544" fill-opacity="1"><g transform="translate(17.699255, 19.370979)"><g><path d="M 4.78125 0.1875 C 3.6875 0.1875 2.867188 -0.0976562 2.328125 -0.671875 C 1.796875 -1.253906 1.53125 -2.109375 1.53125 -3.234375 L 1.53125 -9.6875 L 2.96875 -9.6875 L 2.96875 -3.265625 C 2.96875 -1.796875 3.660156 -1.0625 5.046875 -1.0625 C 5.921875 -1.0625 6.613281 -1.347656 7.125 -1.921875 C 7.632812 -2.492188 7.890625 -3.425781 7.890625 -4.71875 L 7.890625 -9.6875 L 9.3125 -9.6875 L 9.3125 0 L 7.96875 0 L 7.96875 -1.515625 L 7.78125 -1.5625 C 7.445312 -0.96875 7.046875 -0.523438 6.578125 -0.234375 C 6.117188 0.046875 5.519531 0.1875 4.78125 0.1875 Z M 4.78125 0.1875 "/></g></g></g><g fill="#243544" fill-opacity="1"><g transform="translate(28.698768, 19.370979)"><g><path d="M 3.859375 0.1875 C 3.171875 0.1875 2.628906 -0.00390625 2.234375 -0.390625 C 1.847656 -0.785156 1.65625 -1.367188 1.65625 -2.140625 L 1.65625 -13.578125 L 3.078125 -13.578125 L 3.078125 -2.234375 C 3.078125 -1.835938 3.15625 -1.546875 3.3125 -1.359375 C 3.46875 -1.179688 3.710938 -1.09375 4.046875 -1.09375 C 4.242188 -1.09375 4.441406 -1.125 4.640625 -1.1875 L 4.765625 -1.15625 L 4.9375 -0.03125 C 4.832031 0.03125 4.679688 0.0820312 4.484375 0.125 C 4.285156 0.164062 4.078125 0.1875 3.859375 0.1875 Z M 3.859375 0.1875 "/></g></g></g><g fill="#243544" fill-opacity="1"><g transform="translate(33.96589, 19.370979)"><g><path d="M 6.546875 -1.53125 L 7 -0.515625 C 6.78125 -0.285156 6.484375 -0.113281 6.109375 0 C 5.734375 0.125 5.332031 0.1875 4.90625 0.1875 C 3.050781 0.1875 2.125 -0.75 2.125 -2.625 L 2.125 -8.515625 L 0.4375 -8.515625 L 0.4375 -9.6875 L 2.125 -9.6875 L 2.125 -11.734375 L 3.5625 -11.984375 L 3.5625 -9.6875 L 6.671875 -9.6875 L 6.671875 -8.515625 L 3.5625 -8.515625 L 3.5625 -2.765625 C 3.5625 -1.648438 4.039062 -1.09375 5 -1.09375 C 5.53125 -1.09375 5.984375 -1.238281 6.359375 -1.53125 Z M 6.546875 -1.53125 "/></g></g></g><g fill="#243544" fill-opacity="1"><g transform="translate(41.339861, 19.370979)"><g><path d="M 2.40625 -11.5625 C 2.101562 -11.5625 1.851562 -11.65625 1.65625 -11.84375 C 1.46875 -12.03125 1.375 -12.269531 1.375 -12.5625 C 1.375 -12.851562 1.46875 -13.09375 1.65625 -13.28125 C 1.851562 -13.476562 2.101562 -13.578125 2.40625 -13.578125 C 2.707031 -13.578125 2.953125 -13.476562 3.140625 -13.28125 C 3.335938 -13.09375 3.4375 -12.851562 3.4375 -12.5625 C 3.4375 -12.269531 3.335938 -12.03125 3.140625 -11.84375 C 2.953125 -11.65625 2.707031 -11.5625 2.40625 -11.5625 Z M 1.6875 0 L 1.6875 -9.6875 L 3.125 -9.6875 L 3.125 0 Z M 1.6875 0 "/></g></g></g><g fill="#243544" fill-opacity="1"><g transform="translate(46.141727, 19.370979)"><g><path d="M 5.90625 -5.59375 L 0.90625 -5.59375 L 0.90625 -6.875 L 5.90625 -6.875 Z M 5.90625 -5.59375 "/></g></g></g><g fill="#243544" fill-opacity="1"><g transform="translate(52.953871, 19.370979)"><g><path d="M 10.015625 -12.84375 L 10.015625 -11.5625 L 6 -11.5625 L 6 0 L 4.5 0 L 4.5 -11.5625 L 0.46875 -11.5625 L 0.46875 -12.84375 Z M 10.015625 -12.84375 "/></g></g></g><g fill="#243544" fill-opacity="1"><g transform="translate(63.435444, 19.370979)"><g><path d="M 9.234375 -4.515625 L 2.578125 -4.515625 C 2.617188 -3.335938 2.898438 -2.472656 3.421875 -1.921875 C 3.941406 -1.367188 4.660156 -1.09375 5.578125 -1.09375 C 6.265625 -1.09375 6.816406 -1.210938 7.234375 -1.453125 C 7.660156 -1.703125 7.992188 -2.09375 8.234375 -2.625 L 8.421875 -2.625 L 9.359375 -2.078125 C 9.078125 -1.367188 8.625 -0.8125 8 -0.40625 C 7.382812 -0.0078125 6.578125 0.1875 5.578125 0.1875 C 4.640625 0.1875 3.832031 0.00390625 3.15625 -0.359375 C 2.488281 -0.734375 1.972656 -1.296875 1.609375 -2.046875 C 1.242188 -2.796875 1.0625 -3.726562 1.0625 -4.84375 C 1.0625 -5.9375 1.253906 -6.859375 1.640625 -7.609375 C 2.023438 -8.367188 2.546875 -8.9375 3.203125 -9.3125 C 3.867188 -9.6875 4.628906 -9.875 5.484375 -9.875 C 6.722656 -9.875 7.691406 -9.519531 8.390625 -8.8125 C 9.085938 -8.113281 9.441406 -7.078125 9.453125 -5.703125 C 9.453125 -5.171875 9.4375 -4.8125 9.40625 -4.625 Z M 8.03125 -5.703125 C 8.007812 -6.734375 7.78125 -7.484375 7.34375 -7.953125 C 6.914062 -8.421875 6.296875 -8.65625 5.484375 -8.65625 C 4.640625 -8.65625 3.972656 -8.421875 3.484375 -7.953125 C 3.003906 -7.484375 2.710938 -6.734375 2.609375 -5.703125 Z M 8.03125 -5.703125 "/></g></g></g><g fill="#243544" fill-opacity="1"><g transform="translate(73.759003, 19.370979)"><g><path d="M 1.6875 0 L 1.6875 -9.6875 L 3.046875 -9.6875 L 3.046875 -8.171875 L 3.234375 -8.125 C 3.554688 -8.6875 3.96875 -9.117188 4.46875 -9.421875 C 4.96875 -9.722656 5.578125 -9.875 6.296875 -9.875 C 7.460938 -9.875 8.304688 -9.578125 8.828125 -8.984375 C 9.347656 -8.390625 9.609375 -7.472656 9.609375 -6.234375 L 9.609375 0 L 8.1875 0 L 8.1875 -6.203125 C 8.1875 -6.785156 8.109375 -7.253906 7.953125 -7.609375 C 7.804688 -7.960938 7.578125 -8.21875 7.265625 -8.375 C 6.953125 -8.539062 6.539062 -8.625 6.03125 -8.625 C 5.15625 -8.625 4.453125 -8.332031 3.921875 -7.75 C 3.390625 -7.175781 3.125 -6.25 3.125 -4.96875 L 3.125 0 Z M 1.6875 0 "/></g></g></g><g fill="#243544" fill-opacity="1"><g transform="translate(84.907745, 19.370979)"><g><path d="M 4 0.1875 C 3.039062 0.1875 2.289062 -0.0625 1.75 -0.5625 C 1.21875 -1.0625 0.953125 -1.773438 0.953125 -2.703125 C 0.953125 -3.273438 1.070312 -3.753906 1.3125 -4.140625 C 1.550781 -4.535156 1.914062 -4.859375 2.40625 -5.109375 C 2.90625 -5.359375 3.554688 -5.550781 4.359375 -5.6875 C 5.066406 -5.800781 5.601562 -5.929688 5.96875 -6.078125 C 6.332031 -6.234375 6.578125 -6.398438 6.703125 -6.578125 C 6.828125 -6.753906 6.890625 -6.984375 6.890625 -7.265625 C 6.890625 -7.703125 6.738281 -8.035156 6.4375 -8.265625 C 6.132812 -8.503906 5.648438 -8.625 4.984375 -8.625 C 4.359375 -8.625 3.820312 -8.5 3.375 -8.25 C 2.925781 -8.007812 2.515625 -7.648438 2.140625 -7.171875 L 1.96875 -7.171875 L 1.265625 -8.171875 C 1.671875 -8.691406 2.191406 -9.101562 2.828125 -9.40625 C 3.460938 -9.71875 4.179688 -9.875 4.984375 -9.875 C 6.128906 -9.875 6.972656 -9.625 7.515625 -9.125 C 8.054688 -8.625 8.328125 -7.929688 8.328125 -7.046875 L 8.328125 -1.90625 C 8.328125 -1.363281 8.554688 -1.09375 9.015625 -1.09375 C 9.160156 -1.09375 9.304688 -1.117188 9.453125 -1.171875 L 9.578125 -1.140625 L 9.734375 -0.15625 C 9.628906 -0.0820312 9.488281 -0.03125 9.3125 0 C 9.144531 0.0390625 8.972656 0.0625 8.796875 0.0625 C 8.253906 0.0625 7.847656 -0.0507812 7.578125 -0.28125 C 7.304688 -0.507812 7.132812 -0.851562 7.0625 -1.3125 L 6.875 -1.328125 C 6.601562 -0.828125 6.234375 -0.445312 5.765625 -0.1875 C 5.296875 0.0625 4.707031 0.1875 4 0.1875 Z M 4.3125 -0.953125 C 4.851562 -0.953125 5.320312 -1.078125 5.71875 -1.328125 C 6.113281 -1.578125 6.414062 -1.925781 6.625 -2.375 C 6.832031 -2.832031 6.9375 -3.351562 6.9375 -3.9375 L 6.9375 -5.171875 L 6.765625 -5.203125 C 6.554688 -5.054688 6.296875 -4.929688 5.984375 -4.828125 C 5.671875 -4.722656 5.238281 -4.628906 4.6875 -4.546875 C 4.125 -4.472656 3.675781 -4.351562 3.34375 -4.1875 C 3.007812 -4.03125 2.769531 -3.832031 2.625 -3.59375 C 2.488281 -3.351562 2.421875 -3.054688 2.421875 -2.703125 C 2.421875 -2.128906 2.585938 -1.691406 2.921875 -1.390625 C 3.253906 -1.097656 3.71875 -0.953125 4.3125 -0.953125 Z M 4.3125 -0.953125 "/></g></g></g><g fill="#243544" fill-opacity="1"><g transform="translate(94.924062, 19.370979)"><g><path d="M 1.6875 0 L 1.6875 -9.6875 L 3.046875 -9.6875 L 3.046875 -8.171875 L 3.234375 -8.125 C 3.554688 -8.6875 3.96875 -9.117188 4.46875 -9.421875 C 4.96875 -9.722656 5.578125 -9.875 6.296875 -9.875 C 7.460938 -9.875 8.304688 -9.578125 8.828125 -8.984375 C 9.347656 -8.390625 9.609375 -7.472656 9.609375 -6.234375 L 9.609375 0 L 8.1875 0 L 8.1875 -6.203125 C 8.1875 -6.785156 8.109375 -7.253906 7.953125 -7.609375 C 7.804688 -7.960938 7.578125 -8.21875 7.265625 -8.375 C 6.953125 -8.539062 6.539062 -8.625 6.03125 -8.625 C 5.15625 -8.625 4.453125 -8.332031 3.921875 -7.75 C 3.390625 -7.175781 3.125 -6.25 3.125 -4.96875 L 3.125 0 Z M 1.6875 0 "/></g></g></g><g fill="#243544" fill-opacity="1"><g transform="translate(106.072803, 19.370979)"><g><path d="M 6.546875 -1.53125 L 7 -0.515625 C 6.78125 -0.285156 6.484375 -0.113281 6.109375 0 C 5.734375 0.125 5.332031 0.1875 4.90625 0.1875 C 3.050781 0.1875 2.125 -0.75 2.125 -2.625 L 2.125 -8.515625 L 0.4375 -8.515625 L 0.4375 -9.6875 L 2.125 -9.6875 L 2.125 -11.734375 L 3.5625 -11.984375 L 3.5625 -9.6875 L 6.671875 -9.6875 L 6.671875 -8.515625 L 3.5625 -8.515625 L 3.5625 -2.765625 C 3.5625 -1.648438 4.039062 -1.09375 5 -1.09375 C 5.53125 -1.09375 5.984375 -1.238281 6.359375 -1.53125 Z M 6.546875 -1.53125 "/></g></g></g><g fill="#243544" fill-opacity="1"><g transform="translate(113.446774, 19.370979)"><g/></g></g><g fill="#243544" fill-opacity="1"><g transform="translate(117.8536, 19.370979)"><g><path d="M 5.609375 0.1875 C 4.804688 0.1875 4.082031 0.078125 3.4375 -0.140625 C 2.789062 -0.359375 2.253906 -0.644531 1.828125 -1 C 1.398438 -1.363281 1.082031 -1.757812 0.875 -2.1875 L 1.703125 -3.1875 L 1.921875 -3.1875 C 2.722656 -1.84375 3.953125 -1.171875 5.609375 -1.171875 C 6.578125 -1.171875 7.296875 -1.375 7.765625 -1.78125 C 8.234375 -2.1875 8.46875 -2.75 8.46875 -3.46875 C 8.46875 -3.882812 8.390625 -4.238281 8.234375 -4.53125 C 8.085938 -4.832031 7.832031 -5.085938 7.46875 -5.296875 C 7.113281 -5.503906 6.628906 -5.679688 6.015625 -5.828125 L 4.515625 -6.203125 C 3.398438 -6.472656 2.578125 -6.898438 2.046875 -7.484375 C 1.515625 -8.078125 1.25 -8.820312 1.25 -9.71875 C 1.25 -10.351562 1.410156 -10.921875 1.734375 -11.421875 C 2.066406 -11.929688 2.546875 -12.320312 3.171875 -12.59375 C 3.804688 -12.875 4.5625 -13.015625 5.4375 -13.015625 C 6.40625 -13.015625 7.222656 -12.878906 7.890625 -12.609375 C 8.554688 -12.335938 9.085938 -11.929688 9.484375 -11.390625 L 8.75 -10.390625 L 8.53125 -10.390625 C 8.15625 -10.847656 7.71875 -11.179688 7.21875 -11.390625 C 6.71875 -11.597656 6.125 -11.703125 5.4375 -11.703125 C 4.550781 -11.703125 3.878906 -11.53125 3.421875 -11.1875 C 2.972656 -10.84375 2.75 -10.363281 2.75 -9.75 C 2.75 -9.175781 2.914062 -8.71875 3.25 -8.375 C 3.582031 -8.03125 4.144531 -7.765625 4.9375 -7.578125 L 6.46875 -7.203125 C 7.71875 -6.910156 8.617188 -6.460938 9.171875 -5.859375 C 9.734375 -5.253906 10.015625 -4.476562 10.015625 -3.53125 C 10.015625 -2.8125 9.851562 -2.171875 9.53125 -1.609375 C 9.207031 -1.046875 8.710938 -0.601562 8.046875 -0.28125 C 7.390625 0.03125 6.578125 0.1875 5.609375 0.1875 Z M 5.609375 0.1875 "/></g></g></g><g fill="#243544" fill-opacity="1"><g transform="translate(128.853112, 19.370979)"><g><path d="M 4 0.1875 C 3.039062 0.1875 2.289062 -0.0625 1.75 -0.5625 C 1.21875 -1.0625 0.953125 -1.773438 0.953125 -2.703125 C 0.953125 -3.273438 1.070312 -3.753906 1.3125 -4.140625 C 1.550781 -4.535156 1.914062 -4.859375 2.40625 -5.109375 C 2.90625 -5.359375 3.554688 -5.550781 4.359375 -5.6875 C 5.066406 -5.800781 5.601562 -5.929688 5.96875 -6.078125 C 6.332031 -6.234375 6.578125 -6.398438 6.703125 -6.578125 C 6.828125 -6.753906 6.890625 -6.984375 6.890625 -7.265625 C 6.890625 -7.703125 6.738281 -8.035156 6.4375 -8.265625 C 6.132812 -8.503906 5.648438 -8.625 4.984375 -8.625 C 4.359375 -8.625 3.820312 -8.5 3.375 -8.25 C 2.925781 -8.007812 2.515625 -7.648438 2.140625 -7.171875 L 1.96875 -7.171875 L 1.265625 -8.171875 C 1.671875 -8.691406 2.191406 -9.101562 2.828125 -9.40625 C 3.460938 -9.71875 4.179688 -9.875 4.984375 -9.875 C 6.128906 -9.875 6.972656 -9.625 7.515625 -9.125 C 8.054688 -8.625 8.328125 -7.929688 8.328125 -7.046875 L 8.328125 -1.90625 C 8.328125 -1.363281 8.554688 -1.09375 9.015625 -1.09375 C 9.160156 -1.09375 9.304688 -1.117188 9.453125 -1.171875 L 9.578125 -1.140625 L 9.734375 -0.15625 C 9.628906 -0.0820312 9.488281 -0.03125 9.3125 0 C 9.144531 0.0390625 8.972656 0.0625 8.796875 0.0625 C 8.253906 0.0625 7.847656 -0.0507812 7.578125 -0.28125 C 7.304688 -0.507812 7.132812 -0.851562 7.0625 -1.3125 L 6.875 -1.328125 C 6.601562 -0.828125 6.234375 -0.445312 5.765625 -0.1875 C 5.296875 0.0625 4.707031 0.1875 4 0.1875 Z M 4.3125 -0.953125 C 4.851562 -0.953125 5.320312 -1.078125 5.71875 -1.328125 C 6.113281 -1.578125 6.414062 -1.925781 6.625 -2.375 C 6.832031 -2.832031 6.9375 -3.351562 6.9375 -3.9375 L 6.9375 -5.171875 L 6.765625 -5.203125 C 6.554688 -5.054688 6.296875 -4.929688 5.984375 -4.828125 C 5.671875 -4.722656 5.238281 -4.628906 4.6875 -4.546875 C 4.125 -4.472656 3.675781 -4.351562 3.34375 -4.1875 C 3.007812 -4.03125 2.769531 -3.832031 2.625 -3.59375 C 2.488281 -3.351562 2.421875 -3.054688 2.421875 -2.703125 C 2.421875 -2.128906 2.585938 -1.691406 2.921875 -1.390625 C 3.253906 -1.097656 3.71875 -0.953125 4.3125 -0.953125 Z M 4.3125 -0.953125 "/></g></g></g><g fill="#243544" fill-opacity="1"><g transform="translate(138.869429, 19.370979)"><g><path d="M 4 0.1875 C 3.039062 0.1875 2.289062 -0.0625 1.75 -0.5625 C 1.21875 -1.0625 0.953125 -1.773438 0.953125 -2.703125 C 0.953125 -3.273438 1.070312 -3.753906 1.3125 -4.140625 C 1.550781 -4.535156 1.914062 -4.859375 2.40625 -5.109375 C 2.90625 -5.359375 3.554688 -5.550781 4.359375 -5.6875 C 5.066406 -5.800781 5.601562 -5.929688 5.96875 -6.078125 C 6.332031 -6.234375 6.578125 -6.398438 6.703125 -6.578125 C 6.828125 -6.753906 6.890625 -6.984375 6.890625 -7.265625 C 6.890625 -7.703125 6.738281 -8.035156 6.4375 -8.265625 C 6.132812 -8.503906 5.648438 -8.625 4.984375 -8.625 C 4.359375 -8.625 3.820312 -8.5 3.375 -8.25 C 2.925781 -8.007812 2.515625 -7.648438 2.140625 -7.171875 L 1.96875 -7.171875 L 1.265625 -8.171875 C 1.671875 -8.691406 2.191406 -9.101562 2.828125 -9.40625 C 3.460938 -9.71875 4.179688 -9.875 4.984375 -9.875 C 6.128906 -9.875 6.972656 -9.625 7.515625 -9.125 C 8.054688 -8.625 8.328125 -7.929688 8.328125 -7.046875 L 8.328125 -1.90625 C 8.328125 -1.363281 8.554688 -1.09375 9.015625 -1.09375 C 9.160156 -1.09375 9.304688 -1.117188 9.453125 -1.171875 L 9.578125 -1.140625 L 9.734375 -0.15625 C 9.628906 -0.0820312 9.488281 -0.03125 9.3125 0 C 9.144531 0.0390625 8.972656 0.0625 8.796875 0.0625 C 8.253906 0.0625 7.847656 -0.0507812 7.578125 -0.28125 C 7.304688 -0.507812 7.132812 -0.851562 7.0625 -1.3125 L 6.875 -1.328125 C 6.601562 -0.828125 6.234375 -0.445312 5.765625 -0.1875 C 5.296875 0.0625 4.707031 0.1875 4 0.1875 Z M 4.3125 -0.953125 C 4.851562 -0.953125 5.320312 -1.078125 5.71875 -1.328125 C 6.113281 -1.578125 6.414062 -1.925781 6.625 -2.375 C 6.832031 -2.832031 6.9375 -3.351562 6.9375 -3.9375 L 6.9375 -5.171875 L 6.765625 -5.203125 C 6.554688 -5.054688 6.296875 -4.929688 5.984375 -4.828125 C 5.671875 -4.722656 5.238281 -4.628906 4.6875 -4.546875 C 4.125 -4.472656 3.675781 -4.351562 3.34375 -4.1875 C 3.007812 -4.03125 2.769531 -3.832031 2.625 -3.59375 C 2.488281 -3.351562 2.421875 -3.054688 2.421875 -2.703125 C 2.421875 -2.128906 2.585938 -1.691406 2.921875 -1.390625 C 3.253906 -1.097656 3.71875 -0.953125 4.3125 -0.953125 Z M 4.3125 -0.953125 "/></g></g></g><g fill="#243544" fill-opacity="1"><g transform="translate(148.885746, 19.370979)"><g><path d="M 5.609375 0.1875 C 4.804688 0.1875 4.082031 0.078125 3.4375 -0.140625 C 2.789062 -0.359375 2.253906 -0.644531 1.828125 -1 C 1.398438 -1.363281 1.082031 -1.757812 0.875 -2.1875 L 1.703125 -3.1875 L 1.921875 -3.1875 C 2.722656 -1.84375 3.953125 -1.171875 5.609375 -1.171875 C 6.578125 -1.171875 7.296875 -1.375 7.765625 -1.78125 C 8.234375 -2.1875 8.46875 -2.75 8.46875 -3.46875 C 8.46875 -3.882812 8.390625 -4.238281 8.234375 -4.53125 C 8.085938 -4.832031 7.832031 -5.085938 7.46875 -5.296875 C 7.113281 -5.503906 6.628906 -5.679688 6.015625 -5.828125 L 4.515625 -6.203125 C 3.398438 -6.472656 2.578125 -6.898438 2.046875 -7.484375 C 1.515625 -8.078125 1.25 -8.820312 1.25 -9.71875 C 1.25 -10.351562 1.410156 -10.921875 1.734375 -11.421875 C 2.066406 -11.929688 2.546875 -12.320312 3.171875 -12.59375 C 3.804688 -12.875 4.5625 -13.015625 5.4375 -13.015625 C 6.40625 -13.015625 7.222656 -12.878906 7.890625 -12.609375 C 8.554688 -12.335938 9.085938 -11.929688 9.484375 -11.390625 L 8.75 -10.390625 L 8.53125 -10.390625 C 8.15625 -10.847656 7.71875 -11.179688 7.21875 -11.390625 C 6.71875 -11.597656 6.125 -11.703125 5.4375 -11.703125 C 4.550781 -11.703125 3.878906 -11.53125 3.421875 -11.1875 C 2.972656 -10.84375 2.75 -10.363281 2.75 -9.75 C 2.75 -9.175781 2.914062 -8.71875 3.25 -8.375 C 3.582031 -8.03125 4.144531 -7.765625 4.9375 -7.578125 L 6.46875 -7.203125 C 7.71875 -6.910156 8.617188 -6.460938 9.171875 -5.859375 C 9.734375 -5.253906 10.015625 -4.476562 10.015625 -3.53125 C 10.015625 -2.8125 9.851562 -2.171875 9.53125 -1.609375 C 9.207031 -1.046875 8.710938 -0.601562 8.046875 -0.28125 C 7.390625 0.03125 6.578125 0.1875 5.609375 0.1875 Z M 5.609375 0.1875 "/></g></g></g><g fill="#243544" fill-opacity="1"><g transform="translate(159.885259, 19.370979)"><g/></g></g><g fill="#243544" fill-opacity="1"><g transform="translate(164.292084, 19.370979)"><g><path d="M 6.53125 -12.84375 C 7.414062 -12.84375 8.171875 -12.679688 8.796875 -12.359375 C 9.429688 -12.046875 9.914062 -11.59375 10.25 -11 C 10.582031 -10.414062 10.75 -9.726562 10.75 -8.9375 C 10.75 -8.132812 10.582031 -7.441406 10.25 -6.859375 C 9.914062 -6.273438 9.429688 -5.820312 8.796875 -5.5 C 8.171875 -5.175781 7.414062 -5.015625 6.53125 -5.015625 L 3.453125 -5.015625 L 3.453125 0 L 1.9375 0 L 1.9375 -12.84375 Z M 6.484375 -6.3125 C 8.273438 -6.3125 9.171875 -7.1875 9.171875 -8.9375 C 9.171875 -10.6875 8.273438 -11.5625 6.484375 -11.5625 L 3.453125 -11.5625 L 3.453125 -6.3125 Z M 6.484375 -6.3125 "/></g></g></g><g fill="#243544" fill-opacity="1"><g transform="translate(175.99388, 19.370979)"><g><path d="M 3.859375 0.1875 C 3.171875 0.1875 2.628906 -0.00390625 2.234375 -0.390625 C 1.847656 -0.785156 1.65625 -1.367188 1.65625 -2.140625 L 1.65625 -13.578125 L 3.078125 -13.578125 L 3.078125 -2.234375 C 3.078125 -1.835938 3.15625 -1.546875 3.3125 -1.359375 C 3.46875 -1.179688 3.710938 -1.09375 4.046875 -1.09375 C 4.242188 -1.09375 4.441406 -1.125 4.640625 -1.1875 L 4.765625 -1.15625 L 4.9375 -0.03125 C 4.832031 0.03125 4.679688 0.0820312 4.484375 0.125 C 4.285156 0.164062 4.078125 0.1875 3.859375 0.1875 Z M 3.859375 0.1875 "/></g></g></g><g fill="#243544" fill-opacity="1"><g transform="translate(181.261002, 19.370979)"><g><path d="M 4 0.1875 C 3.039062 0.1875 2.289062 -0.0625 1.75 -0.5625 C 1.21875 -1.0625 0.953125 -1.773438 0.953125 -2.703125 C 0.953125 -3.273438 1.070312 -3.753906 1.3125 -4.140625 C 1.550781 -4.535156 1.914062 -4.859375 2.40625 -5.109375 C 2.90625 -5.359375 3.554688 -5.550781 4.359375 -5.6875 C 5.066406 -5.800781 5.601562 -5.929688 5.96875 -6.078125 C 6.332031 -6.234375 6.578125 -6.398438 6.703125 -6.578125 C 6.828125 -6.753906 6.890625 -6.984375 6.890625 -7.265625 C 6.890625 -7.703125 6.738281 -8.035156 6.4375 -8.265625 C 6.132812 -8.503906 5.648438 -8.625 4.984375 -8.625 C 4.359375 -8.625 3.820312 -8.5 3.375 -8.25 C 2.925781 -8.007812 2.515625 -7.648438 2.140625 -7.171875 L 1.96875 -7.171875 L 1.265625 -8.171875 C 1.671875 -8.691406 2.191406 -9.101562 2.828125 -9.40625 C 3.460938 -9.71875 4.179688 -9.875 4.984375 -9.875 C 6.128906 -9.875 6.972656 -9.625 7.515625 -9.125 C 8.054688 -8.625 8.328125 -7.929688 8.328125 -7.046875 L 8.328125 -1.90625 C 8.328125 -1.363281 8.554688 -1.09375 9.015625 -1.09375 C 9.160156 -1.09375 9.304688 -1.117188 9.453125 -1.171875 L 9.578125 -1.140625 L 9.734375 -0.15625 C 9.628906 -0.0820312 9.488281 -0.03125 9.3125 0 C 9.144531 0.0390625 8.972656 0.0625 8.796875 0.0625 C 8.253906 0.0625 7.847656 -0.0507812 7.578125 -0.28125 C 7.304688 -0.507812 7.132812 -0.851562 7.0625 -1.3125 L 6.875 -1.328125 C 6.601562 -0.828125 6.234375 -0.445312 5.765625 -0.1875 C 5.296875 0.0625 4.707031 0.1875 4 0.1875 Z M 4.3125 -0.953125 C 4.851562 -0.953125 5.320312 -1.078125 5.71875 -1.328125 C 6.113281 -1.578125 6.414062 -1.925781 6.625 -2.375 C 6.832031 -2.832031 6.9375 -3.351562 6.9375 -3.9375 L 6.9375 -5.171875 L 6.765625 -5.203125 C 6.554688 -5.054688 6.296875 -4.929688 5.984375 -4.828125 C 5.671875 -4.722656 5.238281 -4.628906 4.6875 -4.546875 C 4.125 -4.472656 3.675781 -4.351562 3.34375 -4.1875 C 3.007812 -4.03125 2.769531 -3.832031 2.625 -3.59375 C 2.488281 -3.351562 2.421875 -3.054688 2.421875 -2.703125 C 2.421875 -2.128906 2.585938 -1.691406 2.921875 -1.390625 C 3.253906 -1.097656 3.71875 -0.953125 4.3125 -0.953125 Z M 4.3125 -0.953125 "/></g></g></g><g fill="#243544" fill-opacity="1"><g transform="translate(191.277319, 19.370979)"><g><path d="M 6.546875 -1.53125 L 7 -0.515625 C 6.78125 -0.285156 6.484375 -0.113281 6.109375 0 C 5.734375 0.125 5.332031 0.1875 4.90625 0.1875 C 3.050781 0.1875 2.125 -0.75 2.125 -2.625 L 2.125 -8.515625 L 0.4375 -8.515625 L 0.4375 -9.6875 L 2.125 -9.6875 L 2.125 -11.734375 L 3.5625 -11.984375 L 3.5625 -9.6875 L 6.671875 -9.6875 L 6.671875 -8.515625 L 3.5625 -8.515625 L 3.5625 -2.765625 C 3.5625 -1.648438 4.039062 -1.09375 5 -1.09375 C 5.53125 -1.09375 5.984375 -1.238281 6.359375 -1.53125 Z M 6.546875 -1.53125 "/></g></g></g><g fill="#243544" fill-opacity="1"><g transform="translate(198.65129, 19.370979)"><g><path d="M 2.15625 0 L 2.15625 -8.515625 L 0.46875 -8.515625 L 0.46875 -9.6875 L 2.15625 -9.6875 C 2.050781 -10.113281 2 -10.515625 2 -10.890625 C 2 -11.523438 2.128906 -12.054688 2.390625 -12.484375 C 2.660156 -12.910156 3.03125 -13.226562 3.5 -13.4375 C 3.976562 -13.65625 4.53125 -13.765625 5.15625 -13.765625 C 6.125 -13.765625 6.863281 -13.554688 7.375 -13.140625 L 6.828125 -12.125 L 6.640625 -12.09375 C 6.253906 -12.394531 5.757812 -12.546875 5.15625 -12.546875 C 4.582031 -12.546875 4.148438 -12.398438 3.859375 -12.109375 C 3.578125 -11.816406 3.4375 -11.398438 3.4375 -10.859375 C 3.4375 -10.523438 3.488281 -10.132812 3.59375 -9.6875 L 6.671875 -9.6875 L 6.671875 -8.515625 L 3.59375 -8.515625 L 3.59375 0 Z M 2.15625 0 "/></g></g></g><g fill="#243544" fill-opacity="1"><g transform="translate(205.55122, 19.370979)"><g><path d="M 5.5625 0.1875 C 4.644531 0.1875 3.847656 -0.00390625 3.171875 -0.390625 C 2.492188 -0.773438 1.972656 -1.34375 1.609375 -2.09375 C 1.242188 -2.851562 1.0625 -3.769531 1.0625 -4.84375 C 1.0625 -5.914062 1.242188 -6.828125 1.609375 -7.578125 C 1.972656 -8.335938 2.492188 -8.910156 3.171875 -9.296875 C 3.847656 -9.679688 4.644531 -9.875 5.5625 -9.875 C 6.46875 -9.875 7.257812 -9.679688 7.9375 -9.296875 C 8.613281 -8.910156 9.132812 -8.335938 9.5 -7.578125 C 9.875 -6.828125 10.0625 -5.914062 10.0625 -4.84375 C 10.0625 -3.769531 9.875 -2.851562 9.5 -2.09375 C 9.132812 -1.34375 8.613281 -0.773438 7.9375 -0.390625 C 7.257812 -0.00390625 6.46875 0.1875 5.5625 0.1875 Z M 5.5625 -1.09375 C 6.519531 -1.09375 7.253906 -1.394531 7.765625 -2 C 8.285156 -2.613281 8.546875 -3.5625 8.546875 -4.84375 C 8.546875 -6.125 8.285156 -7.066406 7.765625 -7.671875 C 7.253906 -8.285156 6.519531 -8.59375 5.5625 -8.59375 C 4.59375 -8.59375 3.847656 -8.285156 3.328125 -7.671875 C 2.816406 -7.054688 2.5625 -6.113281 2.5625 -4.84375 C 2.5625 -3.5625 2.816406 -2.613281 3.328125 -2 C 3.847656 -1.394531 4.59375 -1.09375 5.5625 -1.09375 Z M 5.5625 -1.09375 "/></g></g></g><g fill="#243544" fill-opacity="1"><g transform="translate(216.664847, 19.370979)"><g><path d="M 1.6875 0 L 1.6875 -9.6875 L 3.046875 -9.6875 L 3.046875 -8.171875 L 3.234375 -8.125 C 3.679688 -9.226562 4.53125 -9.78125 5.78125 -9.78125 C 6.4375 -9.78125 6.929688 -9.65625 7.265625 -9.40625 L 6.890625 -8.203125 L 6.71875 -8.171875 C 6.351562 -8.347656 5.957031 -8.4375 5.53125 -8.4375 C 4.75 -8.4375 4.148438 -8.144531 3.734375 -7.5625 C 3.328125 -6.988281 3.125 -6.050781 3.125 -4.75 L 3.125 0 Z M 1.6875 0 "/></g></g></g><g fill="#243544" fill-opacity="1"><g transform="translate(224.144148, 19.370979)"><g><path d="M 1.6875 0 L 1.6875 -9.6875 L 3.046875 -9.6875 L 3.046875 -8.25 L 3.234375 -8.21875 C 3.554688 -8.757812 3.953125 -9.171875 4.421875 -9.453125 C 4.890625 -9.734375 5.445312 -9.875 6.09375 -9.875 C 6.84375 -9.875 7.421875 -9.726562 7.828125 -9.4375 C 8.242188 -9.15625 8.566406 -8.695312 8.796875 -8.0625 L 8.96875 -8.0625 C 9.300781 -8.65625 9.710938 -9.101562 10.203125 -9.40625 C 10.691406 -9.71875 11.296875 -9.875 12.015625 -9.875 C 13.003906 -9.875 13.742188 -9.601562 14.234375 -9.0625 C 14.722656 -8.519531 14.96875 -7.703125 14.96875 -6.609375 L 14.96875 0 L 13.546875 0 L 13.546875 -6.5625 C 13.546875 -7.269531 13.394531 -7.789062 13.09375 -8.125 C 12.800781 -8.457031 12.328125 -8.625 11.671875 -8.625 C 10.898438 -8.625 10.269531 -8.34375 9.78125 -7.78125 C 9.289062 -7.21875 9.046875 -6.289062 9.046875 -5 L 9.046875 0 L 7.609375 0 L 7.609375 -6.5625 C 7.609375 -7.269531 7.460938 -7.789062 7.171875 -8.125 C 6.878906 -8.457031 6.40625 -8.625 5.75 -8.625 C 4.96875 -8.625 4.332031 -8.347656 3.84375 -7.796875 C 3.363281 -7.253906 3.125 -6.375 3.125 -5.15625 L 3.125 0 Z M 1.6875 0 "/></g></g></g></g></g><g transform="matrix(1, 0, 0, 1, 55, 177)"><g clip-path="url(#2a515a21bd)"><g fill="#243544" fill-opacity="1"><g transform="translate(0.272174, 38.377055)"><g><path d="M 10.78125 -22.25 L 10.78125 0 L 2.609375 0 L 2.609375 -35.859375 L 10.78125 -35.859375 L 25.03125 -13.609375 L 25.125 -13.609375 L 25.125 -35.859375 L 33.296875 -35.859375 L 33.296875 0 L 25.125 0 L 10.859375 -22.25 Z M 10.78125 -22.25 "/></g></g></g><g fill="#243544" fill-opacity="1"><g transform="translate(36.171188, 38.377055)"><g><path d="M 25.171875 -10.078125 L 9 -10.078125 C 9 -8.515625 9.503906 -7.359375 10.515625 -6.609375 C 11.535156 -5.859375 12.640625 -5.484375 13.828125 -5.484375 C 15.066406 -5.484375 16.046875 -5.648438 16.765625 -5.984375 C 17.492188 -6.316406 18.320312 -6.972656 19.25 -7.953125 L 24.828125 -5.171875 C 22.503906 -1.285156 18.648438 0.65625 13.265625 0.65625 C 9.898438 0.65625 7.015625 -0.492188 4.609375 -2.796875 C 2.203125 -5.109375 1 -7.882812 1 -11.125 C 1 -14.375 2.203125 -17.15625 4.609375 -19.46875 C 7.015625 -21.789062 9.898438 -22.953125 13.265625 -22.953125 C 16.796875 -22.953125 19.671875 -21.929688 21.890625 -19.890625 C 24.109375 -17.847656 25.21875 -14.925781 25.21875 -11.125 C 25.21875 -10.601562 25.203125 -10.253906 25.171875 -10.078125 Z M 9.21875 -14.34375 L 17.6875 -14.34375 C 17.519531 -15.5 17.066406 -16.390625 16.328125 -17.015625 C 15.585938 -17.640625 14.632812 -17.953125 13.46875 -17.953125 C 12.195312 -17.953125 11.179688 -17.617188 10.421875 -16.953125 C 9.671875 -16.285156 9.269531 -15.414062 9.21875 -14.34375 Z M 9.21875 -14.34375 "/></g></g></g><g fill="#243544" fill-opacity="1"><g transform="translate(62.378331, 38.377055)"><g><path d="M 28.421875 0 L 19.125 0 L 14.21875 -6.296875 L 9.296875 0 L 0 0 L 9.515625 -11.65625 L 1.34375 -22.296875 L 10.34375 -22.296875 L 14.21875 -17.125 L 18.078125 -22.296875 L 27.078125 -22.296875 L 18.90625 -11.65625 Z M 28.421875 0 "/></g></g></g><g fill="#243544" fill-opacity="1"><g transform="translate(90.802012, 38.377055)"><g><path d="M 4.71875 -2.640625 C 2.238281 -4.847656 1 -7.675781 1 -11.125 C 1 -14.570312 2.285156 -17.40625 4.859375 -19.625 C 7.441406 -21.84375 10.632812 -22.953125 14.4375 -22.953125 C 18.175781 -22.953125 21.328125 -21.832031 23.890625 -19.59375 C 26.453125 -17.363281 27.734375 -14.539062 27.734375 -11.125 C 27.734375 -7.707031 26.476562 -4.890625 23.96875 -2.671875 C 21.46875 -0.453125 18.289062 0.65625 14.4375 0.65625 C 10.4375 0.65625 7.195312 -0.441406 4.71875 -2.640625 Z M 10.671875 -14.90625 C 9.671875 -13.925781 9.171875 -12.664062 9.171875 -11.125 C 9.171875 -9.59375 9.648438 -8.335938 10.609375 -7.359375 C 11.566406 -6.390625 12.828125 -5.90625 14.390625 -5.90625 C 15.898438 -5.90625 17.140625 -6.398438 18.109375 -7.390625 C 19.078125 -8.378906 19.5625 -9.625 19.5625 -11.125 C 19.5625 -12.664062 19.0625 -13.925781 18.0625 -14.90625 C 17.0625 -15.894531 15.835938 -16.390625 14.390625 -16.390625 C 12.910156 -16.390625 11.671875 -15.894531 10.671875 -14.90625 Z M 10.671875 -14.90625 "/></g></g></g><g fill="#243544" fill-opacity="1"><g transform="translate(119.52991, 38.377055)"><g><path d="M 2.609375 0 L 2.609375 -22.296875 L 10.296875 -22.296875 L 10.296875 -19.078125 L 10.390625 -19.078125 C 10.441406 -19.191406 10.53125 -19.335938 10.65625 -19.515625 C 10.789062 -19.691406 11.078125 -19.992188 11.515625 -20.421875 C 11.953125 -20.859375 12.414062 -21.25 12.90625 -21.59375 C 13.40625 -21.945312 14.046875 -22.257812 14.828125 -22.53125 C 15.609375 -22.8125 16.40625 -22.953125 17.21875 -22.953125 C 18.050781 -22.953125 18.875 -22.832031 19.6875 -22.59375 C 20.5 -22.363281 21.09375 -22.132812 21.46875 -21.90625 L 22.078125 -21.5625 L 18.859375 -15.046875 C 17.910156 -15.847656 16.578125 -16.25 14.859375 -16.25 C 13.929688 -16.25 13.132812 -16.046875 12.46875 -15.640625 C 11.800781 -15.242188 11.332031 -14.753906 11.0625 -14.171875 C 10.789062 -13.585938 10.59375 -13.09375 10.46875 -12.6875 C 10.351562 -12.28125 10.296875 -11.960938 10.296875 -11.734375 L 10.296875 0 Z M 2.609375 0 "/></g></g></g><g fill="#243544" fill-opacity="1"><g transform="translate(141.173619, 38.377055)"><g><path d="M 4.125 -2.75 C 2.039062 -5.03125 1 -7.820312 1 -11.125 C 1 -14.425781 2.039062 -17.222656 4.125 -19.515625 C 6.21875 -21.804688 8.867188 -22.953125 12.078125 -22.953125 C 15.035156 -22.953125 17.472656 -22.023438 19.390625 -20.171875 L 19.390625 -22.296875 L 27.078125 -22.296875 L 27.078125 0 L 19.46875 0 L 19.46875 -2.515625 L 19.390625 -2.515625 C 17.472656 -0.398438 15.035156 0.65625 12.078125 0.65625 C 8.867188 0.65625 6.21875 -0.476562 4.125 -2.75 Z M 10.671875 -14.90625 C 9.671875 -13.925781 9.171875 -12.664062 9.171875 -11.125 C 9.171875 -9.59375 9.648438 -8.335938 10.609375 -7.359375 C 11.566406 -6.390625 12.828125 -5.90625 14.390625 -5.90625 C 15.898438 -5.90625 17.140625 -6.398438 18.109375 -7.390625 C 19.078125 -8.378906 19.5625 -9.625 19.5625 -11.125 C 19.5625 -12.664062 19.0625 -13.925781 18.0625 -14.90625 C 17.0625 -15.894531 15.835938 -16.390625 14.390625 -16.390625 C 12.910156 -16.390625 11.671875 -15.894531 10.671875 -14.90625 Z M 10.671875 -14.90625 "/></g></g></g><g fill="#243544" fill-opacity="1"><g transform="translate(170.857677, 38.377055)"><g><path d="M 15.828125 -36.515625 C 17.765625 -36.515625 19.660156 -36.226562 21.515625 -35.65625 C 23.367188 -35.09375 24.742188 -34.539062 25.640625 -34 L 26.953125 -33.125 L 23.640625 -26.609375 C 23.378906 -26.773438 23.015625 -26.992188 22.546875 -27.265625 C 22.085938 -27.546875 21.222656 -27.914062 19.953125 -28.375 C 18.679688 -28.84375 17.492188 -29.078125 16.390625 -29.078125 C 15.023438 -29.078125 13.972656 -28.785156 13.234375 -28.203125 C 12.492188 -27.628906 12.125 -26.847656 12.125 -25.859375 C 12.125 -25.367188 12.296875 -24.910156 12.640625 -24.484375 C 12.992188 -24.066406 13.585938 -23.617188 14.421875 -23.140625 C 15.265625 -22.671875 16.003906 -22.289062 16.640625 -22 C 17.285156 -21.707031 18.273438 -21.269531 19.609375 -20.6875 C 21.921875 -19.707031 23.894531 -18.367188 25.53125 -16.671875 C 27.175781 -14.972656 28 -13.050781 28 -10.90625 C 28 -8.851562 27.628906 -7.054688 26.890625 -5.515625 C 26.148438 -3.984375 25.132812 -2.78125 23.84375 -1.90625 C 22.550781 -1.039062 21.125 -0.398438 19.5625 0.015625 C 18 0.441406 16.300781 0.65625 14.46875 0.65625 C 12.90625 0.65625 11.367188 0.492188 9.859375 0.171875 C 8.359375 -0.140625 7.097656 -0.535156 6.078125 -1.015625 C 5.066406 -1.492188 4.15625 -1.960938 3.34375 -2.421875 C 2.53125 -2.890625 1.9375 -3.285156 1.5625 -3.609375 L 1 -4.09375 L 5.078125 -10.953125 C 5.429688 -10.660156 5.910156 -10.289062 6.515625 -9.84375 C 7.128906 -9.394531 8.207031 -8.789062 9.75 -8.03125 C 11.300781 -7.28125 12.671875 -6.90625 13.859375 -6.90625 C 17.316406 -6.90625 19.046875 -8.082031 19.046875 -10.4375 C 19.046875 -10.925781 18.921875 -11.378906 18.671875 -11.796875 C 18.421875 -12.222656 17.984375 -12.644531 17.359375 -13.0625 C 16.742188 -13.476562 16.195312 -13.8125 15.71875 -14.0625 C 15.238281 -14.3125 14.453125 -14.6875 13.359375 -15.1875 C 12.273438 -15.695312 11.472656 -16.082031 10.953125 -16.34375 C 8.773438 -17.414062 7.09375 -18.753906 5.90625 -20.359375 C 4.71875 -21.972656 4.125 -23.707031 4.125 -25.5625 C 4.125 -28.78125 5.3125 -31.410156 7.6875 -33.453125 C 10.070312 -35.492188 12.785156 -36.515625 15.828125 -36.515625 Z M 15.828125 -36.515625 "/></g></g></g><g fill="#243544" fill-opacity="1"><g transform="translate(200.063663, 38.377055)"><g><path d="M 25.5625 -19.53125 C 27.644531 -17.257812 28.6875 -14.472656 28.6875 -11.171875 C 28.6875 -7.867188 27.644531 -5.070312 25.5625 -2.78125 C 23.476562 -0.488281 20.828125 0.65625 17.609375 0.65625 C 14.648438 0.65625 12.210938 -0.269531 10.296875 -2.125 L 10.296875 11.296875 L 2.609375 11.296875 L 2.609375 -22.296875 L 10.21875 -22.296875 L 10.21875 -19.78125 L 10.296875 -19.78125 C 12.210938 -21.894531 14.648438 -22.953125 17.609375 -22.953125 C 20.828125 -22.953125 23.476562 -21.8125 25.5625 -19.53125 Z M 19.015625 -7.390625 C 20.015625 -8.378906 20.515625 -9.640625 20.515625 -11.171875 C 20.515625 -12.703125 20.035156 -13.953125 19.078125 -14.921875 C 18.117188 -15.898438 16.859375 -16.390625 15.296875 -16.390625 C 13.796875 -16.390625 12.554688 -15.894531 11.578125 -14.90625 C 10.609375 -13.925781 10.125 -12.679688 10.125 -11.171875 C 10.125 -9.640625 10.625 -8.378906 11.625 -7.390625 C 12.625 -6.398438 13.847656 -5.90625 15.296875 -5.90625 C 16.773438 -5.90625 18.015625 -6.398438 19.015625 -7.390625 Z M 19.015625 -7.390625 "/></g></g></g><g fill="#243544" fill-opacity="1"><g transform="translate(229.747722, 38.377055)"><g><path d="M 4.125 -2.75 C 2.039062 -5.03125 1 -7.820312 1 -11.125 C 1 -14.425781 2.039062 -17.222656 4.125 -19.515625 C 6.21875 -21.804688 8.867188 -22.953125 12.078125 -22.953125 C 15.035156 -22.953125 17.472656 -22.023438 19.390625 -20.171875 L 19.390625 -22.296875 L 27.078125 -22.296875 L 27.078125 0 L 19.46875 0 L 19.46875 -2.515625 L 19.390625 -2.515625 C 17.472656 -0.398438 15.035156 0.65625 12.078125 0.65625 C 8.867188 0.65625 6.21875 -0.476562 4.125 -2.75 Z M 10.671875 -14.90625 C 9.671875 -13.925781 9.171875 -12.664062 9.171875 -11.125 C 9.171875 -9.59375 9.648438 -8.335938 10.609375 -7.359375 C 11.566406 -6.390625 12.828125 -5.90625 14.390625 -5.90625 C 15.898438 -5.90625 17.140625 -6.398438 18.109375 -7.390625 C 19.078125 -8.378906 19.5625 -9.625 19.5625 -11.125 C 19.5625 -12.664062 19.0625 -13.925781 18.0625 -14.90625 C 17.0625 -15.894531 15.835938 -16.390625 14.390625 -16.390625 C 12.910156 -16.390625 11.671875 -15.894531 10.671875 -14.90625 Z M 10.671875 -14.90625 "/></g></g></g><g fill="#243544" fill-opacity="1"><g transform="translate(259.43178, 38.377055)"><g><path d="M 14.46875 -16.65625 C 13.019531 -16.65625 11.773438 -16.117188 10.734375 -15.046875 C 9.691406 -13.972656 9.171875 -12.679688 9.171875 -11.171875 C 9.171875 -9.640625 9.691406 -8.335938 10.734375 -7.265625 C 11.773438 -6.191406 13.019531 -5.65625 14.46875 -5.65625 C 15.164062 -5.65625 15.828125 -5.738281 16.453125 -5.90625 C 17.078125 -6.082031 17.535156 -6.257812 17.828125 -6.4375 L 18.21875 -6.6875 L 20.828125 -1.34375 C 20.617188 -1.195312 20.332031 -1.015625 19.96875 -0.796875 C 19.613281 -0.585938 18.789062 -0.296875 17.5 0.078125 C 16.207031 0.460938 14.820312 0.65625 13.34375 0.65625 C 10.070312 0.65625 7.195312 -0.492188 4.71875 -2.796875 C 2.238281 -5.109375 1 -7.867188 1 -11.078125 C 1 -14.328125 2.238281 -17.117188 4.71875 -19.453125 C 7.195312 -21.785156 10.070312 -22.953125 13.34375 -22.953125 C 14.820312 -22.953125 16.179688 -22.773438 17.421875 -22.421875 C 18.671875 -22.078125 19.554688 -21.734375 20.078125 -21.390625 L 20.828125 -20.859375 L 18.21875 -15.609375 C 17.257812 -16.304688 16.007812 -16.65625 14.46875 -16.65625 Z M 14.46875 -16.65625 "/></g></g></g><g fill="#243544" fill-opacity="1"><g transform="translate(280.771273, 38.377055)"><g><path d="M 25.171875 -10.078125 L 9 -10.078125 C 9 -8.515625 9.503906 -7.359375 10.515625 -6.609375 C 11.535156 -5.859375 12.640625 -5.484375 13.828125 -5.484375 C 15.066406 -5.484375 16.046875 -5.648438 16.765625 -5.984375 C 17.492188 -6.316406 18.320312 -6.972656 19.25 -7.953125 L 24.828125 -5.171875 C 22.503906 -1.285156 18.648438 0.65625 13.265625 0.65625 C 9.898438 0.65625 7.015625 -0.492188 4.609375 -2.796875 C 2.203125 -5.109375 1 -7.882812 1 -11.125 C 1 -14.375 2.203125 -17.15625 4.609375 -19.46875 C 7.015625 -21.789062 9.898438 -22.953125 13.265625 -22.953125 C 16.796875 -22.953125 19.671875 -21.929688 21.890625 -19.890625 C 24.109375 -17.847656 25.21875 -14.925781 25.21875 -11.125 C 25.21875 -10.601562 25.203125 -10.253906 25.171875 -10.078125 Z M 9.21875 -14.34375 L 17.6875 -14.34375 C 17.519531 -15.5 17.066406 -16.390625 16.328125 -17.015625 C 15.585938 -17.640625 14.632812 -17.953125 13.46875 -17.953125 C 12.195312 -17.953125 11.179688 -17.617188 10.421875 -16.953125 C 9.671875 -16.285156 9.269531 -15.414062 9.21875 -14.34375 Z M 9.21875 -14.34375 "/></g></g></g></g></g></svg>