<svg xmlns="http://www.w3.org/2000/svg" xmlns:xlink="http://www.w3.org/1999/xlink" width="500" zoomAndPan="magnify" viewBox="0 0 375 187.499995" height="250" preserveAspectRatio="xMidYMid meet" version="1.0"><defs><g/><clipPath id="f2dd66bc0f"><path d="M 0.5 0 L 374 0 L 374 174 L 0.5 174 Z M 0.5 0 " clip-rule="nonzero"/></clipPath><clipPath id="1ed46444ff"><path d="M 2 10 L 253 10 L 253 167 L 2 167 Z M 2 10 " clip-rule="nonzero"/></clipPath><clipPath id="c597a80e45"><path d="M -9.714844 28.933594 L 239.957031 -6.183594 L 260.195312 137.710938 L 10.523438 172.828125 Z M -9.714844 28.933594 " clip-rule="nonzero"/></clipPath><clipPath id="d9336f7841"><path d="M -9.714844 28.933594 L 239.957031 -6.183594 L 260.195312 137.710938 L 10.523438 172.828125 Z M -9.714844 28.933594 " clip-rule="nonzero"/></clipPath><clipPath id="b6bee42fb0"><path d="M -9.714844 28.933594 L 239.957031 -6.183594 L 260.195312 137.710938 L 10.523438 172.828125 Z M -9.714844 28.933594 " clip-rule="nonzero"/></clipPath><clipPath id="331321e0c9"><rect x="0" width="263" y="0" height="28"/></clipPath><clipPath id="bbd6155706"><path d="M 38 87 L 373.425781 87 L 373.425781 147 L 38 147 Z M 38 87 " clip-rule="nonzero"/></clipPath><clipPath id="3777746a11"><rect x="0" width="336" y="0" height="60"/></clipPath><clipPath id="fe0314bfa6"><rect x="0" width="374" y="0" height="174"/></clipPath></defs><g clip-path="url(#f2dd66bc0f)"><g transform="matrix(1, 0, 0, 1, 0, 0)"><g clip-path="url(#fe0314bfa6)"><g clip-path="url(#1ed46444ff)"><g clip-path="url(#c597a80e45)"><g clip-path="url(#d9336f7841)"><g clip-path="url(#b6bee42fb0)"><path fill="#4f98d8" d="M 2.941406 118.621094 L 2.757812 116.992188 L 2.65625 115.457031 C 2.390625 111.363281 2.589844 107.210938 3.230469 103.109375 C 3.863281 99.003906 4.984375 94.960938 6.519531 91.066406 C 8.066406 87.179688 10.035156 83.441406 12.386719 79.941406 C 14.75 76.457031 17.476562 73.1875 20.554688 70.257812 C 23.644531 67.34375 27.042969 64.71875 30.710938 62.515625 C 34.378906 60.3125 38.289062 58.472656 42.367188 57.105469 C 46.445312 55.734375 50.65625 54.789062 54.9375 54.308594 C 56.363281 54.152344 57.800781 54.050781 59.242188 53.992188 C 59.59375 53.25 59.957031 52.507812 60.332031 51.773438 C 61.949219 48.644531 63.785156 45.632812 65.8125 42.75 C 67.835938 39.863281 70.074219 37.128906 72.488281 34.554688 C 74.902344 31.980469 77.476562 29.554688 80.230469 27.34375 C 82.976562 25.125 85.878906 23.089844 88.902344 21.265625 C 91.933594 19.445312 95.09375 17.84375 98.34375 16.457031 C 101.59375 15.0625 104.941406 13.921875 108.347656 13.007812 C 111.75 12.09375 115.210938 11.40625 118.695312 10.976562 L 121.140625 10.714844 L 122.515625 10.605469 L 123.917969 10.503906 C 124.832031 10.449219 125.683594 10.429688 126.566406 10.398438 C 127.445312 10.367188 128.324219 10.386719 129.203125 10.386719 C 132.714844 10.441406 136.21875 10.730469 139.683594 11.253906 C 143.144531 11.792969 146.566406 12.570312 149.910156 13.574219 C 153.257812 14.574219 156.515625 15.832031 159.675781 17.28125 C 162.835938 18.730469 165.871094 20.417969 168.78125 22.285156 C 171.691406 24.144531 174.453125 26.226562 177.0625 28.464844 C 180.78125 31.667969 184.160156 35.238281 187.148438 39.085938 C 189.230469 38.605469 191.328125 38.246094 193.433594 37.996094 C 193.976562 37.9375 194.527344 37.882812 195.074219 37.835938 L 195.121094 37.832031 C 195.089844 37.835938 195.5 37.78125 195.335938 37.800781 L 195.359375 37.800781 L 195.628906 37.789062 L 195.984375 37.769531 L 196.703125 37.738281 L 197.417969 37.699219 C 197.664062 37.6875 197.867188 37.671875 198.183594 37.671875 L 199.933594 37.644531 C 201.125 37.605469 202.171875 37.691406 203.273438 37.738281 C 203.816406 37.757812 204.359375 37.8125 204.902344 37.867188 L 206.527344 38.03125 C 207.605469 38.167969 208.679688 38.332031 209.746094 38.511719 L 211.339844 38.832031 C 211.871094 38.941406 212.402344 39.046875 212.921875 39.191406 C 213.96875 39.460938 215.019531 39.714844 216.039062 40.050781 L 217.578125 40.53125 L 219.089844 41.089844 C 221.101562 41.824219 223.046875 42.71875 224.945312 43.667969 C 225.878906 44.171875 226.8125 44.679688 227.722656 45.21875 L 229.070312 46.050781 L 229.738281 46.46875 L 230.394531 46.914062 L 231.6875 47.816406 C 232.117188 48.117188 232.527344 48.449219 232.945312 48.765625 C 233.355469 49.089844 233.78125 49.394531 234.179688 49.734375 L 235.375 50.746094 L 235.96875 51.253906 L 236.539062 51.789062 L 237.667969 52.859375 C 238.40625 53.59375 239.121094 54.347656 239.824219 55.097656 C 241.195312 56.648438 242.519531 58.21875 243.683594 59.902344 C 243.976562 60.324219 244.273438 60.738281 244.558594 61.160156 L 245.371094 62.457031 C 245.929688 63.300781 246.40625 64.207031 246.90625 65.082031 C 247.164062 65.519531 247.375 65.976562 247.601562 66.425781 L 248.273438 67.78125 C 248.667969 68.710938 249.085938 69.621094 249.441406 70.558594 C 249.777344 71.5 250.164062 72.417969 250.441406 73.375 L 250.886719 74.796875 C 251.027344 75.269531 251.132812 75.753906 251.257812 76.234375 C 251.371094 76.714844 251.5 77.1875 251.609375 77.667969 L 251.890625 79.117188 C 252.105469 80.074219 252.207031 81.054688 252.339844 82.019531 C 252.414062 82.496094 252.453125 82.984375 252.492188 83.46875 L 252.605469 84.917969 C 252.652344 85.886719 252.660156 86.851562 252.675781 87.8125 C 252.363281 86.898438 252.097656 85.980469 251.777344 85.082031 L 251.28125 83.742188 C 251.121094 83.300781 250.957031 82.855469 250.761719 82.425781 C 250.382812 81.558594 250.039062 80.683594 249.617188 79.84375 L 249.015625 78.582031 C 248.804688 78.164062 248.574219 77.757812 248.355469 77.347656 C 248.128906 76.941406 247.925781 76.53125 247.679688 76.132812 L 246.96875 74.945312 C 246.515625 74.144531 245.96875 73.398438 245.472656 72.632812 C 244.960938 71.878906 244.390625 71.15625 243.855469 70.425781 C 243.269531 69.726562 242.734375 69.003906 242.132812 68.324219 C 241.523438 67.65625 240.953125 66.964844 240.308594 66.335938 L 239.367188 65.378906 C 239.046875 65.070312 238.710938 64.773438 238.386719 64.46875 C 237.089844 63.25 235.710938 62.128906 234.3125 61.066406 C 233.597656 60.554688 232.878906 60.046875 232.152344 59.5625 L 231.042969 58.863281 L 230.492188 58.515625 L 229.921875 58.195312 L 228.792969 57.546875 C 228.417969 57.332031 228.023438 57.148438 227.640625 56.945312 C 227.253906 56.753906 226.878906 56.542969 226.484375 56.363281 L 225.3125 55.832031 L 224.726562 55.5625 L 224.128906 55.320312 L 222.9375 54.84375 C 222.140625 54.542969 221.332031 54.269531 220.527344 54 C 218.902344 53.507812 217.277344 53.046875 215.625 52.738281 L 214.390625 52.496094 L 213.148438 52.3125 C 212.328125 52.167969 211.492188 52.109375 210.667969 52.019531 C 210.257812 51.96875 209.84375 51.953125 209.429688 51.933594 L 208.1875 51.871094 C 207.363281 51.855469 206.535156 51.851562 205.714844 51.855469 L 204.484375 51.914062 C 204.074219 51.929688 203.664062 51.941406 203.257812 51.992188 C 202.453125 52.082031 201.589844 52.125 200.878906 52.253906 L 199.773438 52.410156 C 199.613281 52.425781 199.347656 52.484375 199.121094 52.523438 L 198.414062 52.648438 L 197.710938 52.777344 L 197.183594 52.871094 L 197.09375 52.890625 L 197.070312 52.894531 C 196.894531 52.917969 197.289062 52.867188 197.242188 52.875 L 197.207031 52.882812 C 196.808594 52.972656 196.414062 53.0625 196.019531 53.160156 C 194.449219 53.554688 192.90625 54.015625 191.402344 54.574219 C 189.898438 55.136719 188.433594 55.769531 187.011719 56.476562 L 181.554688 59.179688 L 176.984375 53.683594 C 173.601562 49.613281 169.714844 46.019531 165.46875 42.996094 C 163.347656 41.480469 161.128906 40.125 158.851562 38.898438 C 156.566406 37.675781 154.203125 36.628906 151.800781 35.710938 C 149.398438 34.796875 146.9375 34.070312 144.453125 33.480469 C 141.96875 32.894531 139.449219 32.480469 136.917969 32.234375 C 134.390625 31.976562 131.851562 31.890625 129.316406 31.980469 C 128.683594 32.011719 128.050781 32.023438 127.417969 32.066406 C 126.792969 32.121094 126.132812 32.15625 125.539062 32.214844 L 123.800781 32.40625 L 121.75 32.703125 C 119.246094 33.121094 116.777344 33.671875 114.363281 34.394531 C 111.945312 35.113281 109.589844 36 107.292969 37.015625 C 105 38.035156 102.777344 39.21875 100.644531 40.535156 C 98.503906 41.84375 96.453125 43.296875 94.507812 44.882812 C 92.566406 46.476562 90.707031 48.171875 88.984375 50 C 87.257812 51.824219 85.65625 53.769531 84.167969 55.796875 C 82.6875 57.828125 81.347656 59.960938 80.144531 62.171875 C 78.933594 64.378906 77.875 66.667969 76.972656 69.019531 L 73.777344 77.359375 L 65.261719 76.222656 C 62.53125 75.855469 59.757812 75.738281 56.984375 75.945312 C 54.210938 76.15625 51.4375 76.605469 48.761719 77.371094 C 46.082031 78.136719 43.464844 79.148438 40.980469 80.453125 C 38.496094 81.757812 36.117188 83.296875 33.921875 85.097656 C 31.734375 86.902344 29.707031 88.933594 27.914062 91.171875 C 26.113281 93.402344 24.527344 95.828125 23.203125 98.40625 C 22.859375 99.046875 22.578125 99.710938 22.253906 100.367188 C 21.960938 101.027344 21.691406 101.703125 21.40625 102.375 C 21.167969 103.0625 20.902344 103.742188 20.675781 104.4375 C 20.472656 105.136719 20.21875 105.832031 20.042969 106.539062 C 19.269531 109.367188 18.792969 112.292969 18.609375 115.265625 L 18.542969 116.386719 L 18.53125 117.402344 C 18.527344 117.753906 18.507812 118.0625 18.511719 118.453125 L 18.578125 119.777344 L 18.609375 120.441406 L 18.628906 120.773438 L 18.632812 120.855469 L 18.632812 120.898438 C 18.65625 121.082031 18.605469 120.695312 18.613281 120.746094 L 18.625 120.886719 L 18.726562 122.015625 C 18.765625 122.390625 18.78125 122.773438 18.839844 123.144531 L 19 124.269531 C 19.425781 127.269531 20.179688 130.242188 21.226562 133.136719 C 22.277344 136.03125 23.65625 138.839844 25.324219 141.503906 C 26.984375 144.167969 28.933594 146.707031 31.164062 149.023438 C 33.398438 151.328125 35.84375 153.503906 38.566406 155.347656 C 41.285156 157.195312 44.199219 158.847656 47.308594 160.140625 L 48.480469 160.632812 L 49.667969 161.074219 C 50.066406 161.21875 50.464844 161.386719 50.871094 161.507812 L 52.089844 161.894531 C 52.898438 162.171875 53.734375 162.359375 54.566406 162.585938 L 55.191406 162.753906 L 55.820312 162.890625 L 57.089844 163.171875 C 57.511719 163.273438 57.941406 163.335938 58.371094 163.410156 L 59.660156 163.621094 C 60.523438 163.75 61.394531 163.84375 62.269531 163.957031 C 63.140625 164.042969 64.015625 164.082031 64.90625 164.160156 L 67.589844 164.25 C 66.722656 164.488281 65.859375 164.71875 64.992188 164.9375 C 64.113281 165.121094 63.21875 165.304688 62.320312 165.464844 C 61.425781 165.585938 60.527344 165.75 59.617188 165.839844 L 58.253906 165.953125 C 57.796875 165.992188 57.339844 166.039062 56.882812 166.046875 C 55.046875 166.136719 53.195312 166.132812 51.34375 165.992188 L 49.953125 165.886719 C 49.488281 165.859375 49.03125 165.78125 48.5625 165.730469 L 47.171875 165.554688 C 46.710938 165.480469 46.25 165.394531 45.789062 165.304688 C 42.101562 164.613281 38.433594 163.546875 34.925781 162.027344 C 34.050781 161.640625 33.183594 161.230469 32.3125 160.820312 C 31.46875 160.371094 30.605469 159.941406 29.765625 159.464844 C 28.09375 158.503906 26.445312 157.472656 24.882812 156.316406 C 21.742188 154.023438 18.808594 151.382812 16.183594 148.421875 C 15.84375 148.0625 15.53125 147.679688 15.21875 147.292969 L 14.277344 146.144531 C 13.660156 145.367188 13.089844 144.554688 12.492188 143.753906 C 11.929688 142.933594 11.382812 142.097656 10.839844 141.253906 C 10.339844 140.394531 9.8125 139.539062 9.332031 138.664062 C 7.402344 135.144531 5.867188 131.382812 4.742188 127.484375 L 4.332031 126.015625 C 4.191406 125.527344 4.101562 125.03125 3.980469 124.539062 L 3.648438 123.046875 L 3.375 121.523438 L 3.136719 120.21875 C 3.066406 119.726562 3.003906 119.152344 2.941406 118.621094 " fill-opacity="1" fill-rule="nonzero"/></g></g></g></g><g transform="matrix(1, 0, 0, 1, 59, 139)"><g clip-path="url(#331321e0c9)"><g fill="#243544" fill-opacity="1"><g transform="translate(1.509761, 20.485627)"><g><path d="M 3.625 0 L 2.109375 0 L 2.109375 -13.96875 L 4.546875 -13.96875 L 8.78125 -2.140625 L 8.984375 -2.140625 L 13.203125 -13.96875 L 15.5625 -13.96875 L 15.5625 0 L 14 0 L 14 -11.390625 L 13.765625 -11.4375 L 9.640625 0 L 8 0 L 3.875 -11.4375 L 3.625 -11.390625 Z M 3.625 0 "/></g></g></g><g fill="#243544" fill-opacity="1"><g transform="translate(19.184808, 20.485627)"><g><path d="M 5.203125 0.203125 C 4.015625 0.203125 3.128906 -0.109375 2.546875 -0.734375 C 1.960938 -1.367188 1.671875 -2.296875 1.671875 -3.515625 L 1.671875 -10.53125 L 3.234375 -10.53125 L 3.234375 -3.546875 C 3.234375 -1.953125 3.984375 -1.15625 5.484375 -1.15625 C 6.441406 -1.15625 7.195312 -1.46875 7.75 -2.09375 C 8.300781 -2.71875 8.578125 -3.726562 8.578125 -5.125 L 8.578125 -10.53125 L 10.140625 -10.53125 L 10.140625 0 L 8.65625 0 L 8.65625 -1.65625 L 8.46875 -1.703125 C 8.101562 -1.054688 7.664062 -0.578125 7.15625 -0.265625 C 6.65625 0.046875 6.003906 0.203125 5.203125 0.203125 Z M 5.203125 0.203125 "/></g></g></g><g fill="#243544" fill-opacity="1"><g transform="translate(31.149605, 20.485627)"><g><path d="M 4.1875 0.203125 C 3.445312 0.203125 2.863281 -0.00390625 2.4375 -0.421875 C 2.007812 -0.847656 1.796875 -1.484375 1.796875 -2.328125 L 1.796875 -14.765625 L 3.359375 -14.765625 L 3.359375 -2.4375 C 3.359375 -2 3.441406 -1.679688 3.609375 -1.484375 C 3.773438 -1.285156 4.035156 -1.1875 4.390625 -1.1875 C 4.609375 -1.1875 4.828125 -1.222656 5.046875 -1.296875 L 5.1875 -1.265625 L 5.375 -0.03125 C 5.257812 0.0390625 5.09375 0.0976562 4.875 0.140625 C 4.664062 0.179688 4.4375 0.203125 4.1875 0.203125 Z M 4.1875 0.203125 "/></g></g></g><g fill="#243544" fill-opacity="1"><g transform="translate(36.878954, 20.485627)"><g><path d="M 7.125 -1.671875 L 7.625 -0.546875 C 7.375 -0.304688 7.046875 -0.125 6.640625 0 C 6.234375 0.132812 5.796875 0.203125 5.328125 0.203125 C 3.316406 0.203125 2.3125 -0.816406 2.3125 -2.859375 L 2.3125 -9.265625 L 0.484375 -9.265625 L 0.484375 -10.546875 L 2.3125 -10.546875 L 2.3125 -12.765625 L 3.875 -13.03125 L 3.875 -10.546875 L 7.265625 -10.546875 L 7.265625 -9.265625 L 3.875 -9.265625 L 3.875 -3.015625 C 3.875 -1.796875 4.394531 -1.1875 5.4375 -1.1875 C 6.007812 -1.1875 6.503906 -1.347656 6.921875 -1.671875 Z M 7.125 -1.671875 "/></g></g></g><g fill="#243544" fill-opacity="1"><g transform="translate(44.900042, 20.485627)"><g><path d="M 2.625 -12.578125 C 2.289062 -12.578125 2.019531 -12.675781 1.8125 -12.875 C 1.601562 -13.082031 1.5 -13.347656 1.5 -13.671875 C 1.5 -13.984375 1.601562 -14.242188 1.8125 -14.453125 C 2.019531 -14.660156 2.289062 -14.765625 2.625 -14.765625 C 2.945312 -14.765625 3.210938 -14.660156 3.421875 -14.453125 C 3.628906 -14.242188 3.734375 -13.984375 3.734375 -13.671875 C 3.734375 -13.347656 3.628906 -13.082031 3.421875 -12.875 C 3.210938 -12.675781 2.945312 -12.578125 2.625 -12.578125 Z M 1.828125 0 L 1.828125 -10.53125 L 3.390625 -10.53125 L 3.390625 0 Z M 1.828125 0 "/></g></g></g><g fill="#243544" fill-opacity="1"><g transform="translate(50.123305, 20.485627)"><g><path d="M 6.421875 -6.078125 L 1 -6.078125 L 1 -7.484375 L 6.421875 -7.484375 Z M 6.421875 -6.078125 "/></g></g></g><g fill="#243544" fill-opacity="1"><g transform="translate(57.533263, 20.485627)"><g><path d="M 10.90625 -13.96875 L 10.90625 -12.578125 L 6.53125 -12.578125 L 6.53125 0 L 4.890625 0 L 4.890625 -12.578125 L 0.515625 -12.578125 L 0.515625 -13.96875 Z M 10.90625 -13.96875 "/></g></g></g><g fill="#243544" fill-opacity="1"><g transform="translate(68.934667, 20.485627)"><g><path d="M 10.046875 -4.90625 L 2.796875 -4.90625 C 2.835938 -3.625 3.144531 -2.679688 3.71875 -2.078125 C 4.289062 -1.484375 5.070312 -1.1875 6.0625 -1.1875 C 6.8125 -1.1875 7.414062 -1.320312 7.875 -1.59375 C 8.332031 -1.863281 8.691406 -2.285156 8.953125 -2.859375 L 9.15625 -2.859375 L 10.171875 -2.25 C 9.867188 -1.488281 9.378906 -0.890625 8.703125 -0.453125 C 8.035156 -0.015625 7.15625 0.203125 6.0625 0.203125 C 5.039062 0.203125 4.164062 0.00390625 3.4375 -0.390625 C 2.707031 -0.796875 2.144531 -1.40625 1.75 -2.21875 C 1.351562 -3.039062 1.15625 -4.054688 1.15625 -5.265625 C 1.15625 -6.460938 1.363281 -7.46875 1.78125 -8.28125 C 2.195312 -9.101562 2.765625 -9.71875 3.484375 -10.125 C 4.210938 -10.53125 5.039062 -10.734375 5.96875 -10.734375 C 7.320312 -10.734375 8.375 -10.351562 9.125 -9.59375 C 9.882812 -8.832031 10.269531 -7.703125 10.28125 -6.203125 C 10.28125 -5.617188 10.265625 -5.226562 10.234375 -5.03125 Z M 8.734375 -6.203125 C 8.710938 -7.328125 8.460938 -8.144531 7.984375 -8.65625 C 7.515625 -9.164062 6.84375 -9.421875 5.96875 -9.421875 C 5.039062 -9.421875 4.316406 -9.160156 3.796875 -8.640625 C 3.273438 -8.128906 2.957031 -7.316406 2.84375 -6.203125 Z M 8.734375 -6.203125 "/></g></g></g><g fill="#243544" fill-opacity="1"><g transform="translate(80.16419, 20.485627)"><g><path d="M 1.828125 0 L 1.828125 -10.53125 L 3.3125 -10.53125 L 3.3125 -8.890625 L 3.515625 -8.828125 C 3.867188 -9.453125 4.316406 -9.925781 4.859375 -10.25 C 5.398438 -10.570312 6.0625 -10.734375 6.84375 -10.734375 C 8.113281 -10.734375 9.03125 -10.410156 9.59375 -9.765625 C 10.164062 -9.117188 10.453125 -8.125 10.453125 -6.78125 L 10.453125 0 L 8.90625 0 L 8.90625 -6.75 C 8.90625 -7.382812 8.820312 -7.894531 8.65625 -8.28125 C 8.5 -8.664062 8.25 -8.941406 7.90625 -9.109375 C 7.5625 -9.285156 7.113281 -9.375 6.5625 -9.375 C 5.613281 -9.375 4.847656 -9.0625 4.265625 -8.4375 C 3.679688 -7.8125 3.390625 -6.800781 3.390625 -5.40625 L 3.390625 0 Z M 1.828125 0 "/></g></g></g><g fill="#243544" fill-opacity="1"><g transform="translate(92.291311, 20.485627)"><g><path d="M 4.34375 0.203125 C 3.3125 0.203125 2.503906 -0.0664062 1.921875 -0.609375 C 1.335938 -1.148438 1.046875 -1.925781 1.046875 -2.9375 C 1.046875 -3.5625 1.171875 -4.085938 1.421875 -4.515625 C 1.679688 -4.941406 2.082031 -5.289062 2.625 -5.5625 C 3.164062 -5.832031 3.875 -6.039062 4.75 -6.1875 C 5.507812 -6.3125 6.085938 -6.453125 6.484375 -6.609375 C 6.890625 -6.773438 7.160156 -6.957031 7.296875 -7.15625 C 7.429688 -7.351562 7.5 -7.601562 7.5 -7.90625 C 7.5 -8.375 7.332031 -8.734375 7 -8.984375 C 6.675781 -9.242188 6.148438 -9.375 5.421875 -9.375 C 4.742188 -9.375 4.160156 -9.242188 3.671875 -8.984375 C 3.179688 -8.722656 2.734375 -8.328125 2.328125 -7.796875 L 2.140625 -7.796875 L 1.375 -8.890625 C 1.820312 -9.453125 2.390625 -9.898438 3.078125 -10.234375 C 3.765625 -10.566406 4.546875 -10.734375 5.421875 -10.734375 C 6.660156 -10.734375 7.578125 -10.460938 8.171875 -9.921875 C 8.765625 -9.378906 9.0625 -8.625 9.0625 -7.65625 L 9.0625 -2.078125 C 9.0625 -1.484375 9.304688 -1.1875 9.796875 -1.1875 C 9.960938 -1.1875 10.125 -1.21875 10.28125 -1.28125 L 10.40625 -1.234375 L 10.59375 -0.15625 C 10.476562 -0.0820312 10.328125 -0.0234375 10.140625 0.015625 C 9.953125 0.0546875 9.757812 0.078125 9.5625 0.078125 C 8.976562 0.078125 8.535156 -0.046875 8.234375 -0.296875 C 7.941406 -0.554688 7.757812 -0.9375 7.6875 -1.4375 L 7.484375 -1.453125 C 7.179688 -0.898438 6.773438 -0.484375 6.265625 -0.203125 C 5.753906 0.0664062 5.113281 0.203125 4.34375 0.203125 Z M 4.6875 -1.046875 C 5.269531 -1.046875 5.773438 -1.179688 6.203125 -1.453125 C 6.640625 -1.722656 6.972656 -2.101562 7.203125 -2.59375 C 7.429688 -3.082031 7.546875 -3.644531 7.546875 -4.28125 L 7.546875 -5.625 L 7.359375 -5.671875 C 7.128906 -5.503906 6.84375 -5.363281 6.5 -5.25 C 6.164062 -5.132812 5.695312 -5.035156 5.09375 -4.953125 C 4.476562 -4.867188 3.988281 -4.738281 3.625 -4.5625 C 3.269531 -4.394531 3.015625 -4.175781 2.859375 -3.90625 C 2.710938 -3.644531 2.640625 -3.320312 2.640625 -2.9375 C 2.640625 -2.3125 2.816406 -1.835938 3.171875 -1.515625 C 3.535156 -1.203125 4.039062 -1.046875 4.6875 -1.046875 Z M 4.6875 -1.046875 "/></g></g></g><g fill="#243544" fill-opacity="1"><g transform="translate(103.18663, 20.485627)"><g><path d="M 1.828125 0 L 1.828125 -10.53125 L 3.3125 -10.53125 L 3.3125 -8.890625 L 3.515625 -8.828125 C 3.867188 -9.453125 4.316406 -9.925781 4.859375 -10.25 C 5.398438 -10.570312 6.0625 -10.734375 6.84375 -10.734375 C 8.113281 -10.734375 9.03125 -10.410156 9.59375 -9.765625 C 10.164062 -9.117188 10.453125 -8.125 10.453125 -6.78125 L 10.453125 0 L 8.90625 0 L 8.90625 -6.75 C 8.90625 -7.382812 8.820312 -7.894531 8.65625 -8.28125 C 8.5 -8.664062 8.25 -8.941406 7.90625 -9.109375 C 7.5625 -9.285156 7.113281 -9.375 6.5625 -9.375 C 5.613281 -9.375 4.847656 -9.0625 4.265625 -8.4375 C 3.679688 -7.8125 3.390625 -6.800781 3.390625 -5.40625 L 3.390625 0 Z M 1.828125 0 "/></g></g></g><g fill="#243544" fill-opacity="1"><g transform="translate(115.313751, 20.485627)"><g><path d="M 7.125 -1.671875 L 7.625 -0.546875 C 7.375 -0.304688 7.046875 -0.125 6.640625 0 C 6.234375 0.132812 5.796875 0.203125 5.328125 0.203125 C 3.316406 0.203125 2.3125 -0.816406 2.3125 -2.859375 L 2.3125 -9.265625 L 0.484375 -9.265625 L 0.484375 -10.546875 L 2.3125 -10.546875 L 2.3125 -12.765625 L 3.875 -13.03125 L 3.875 -10.546875 L 7.265625 -10.546875 L 7.265625 -9.265625 L 3.875 -9.265625 L 3.875 -3.015625 C 3.875 -1.796875 4.394531 -1.1875 5.4375 -1.1875 C 6.007812 -1.1875 6.503906 -1.347656 6.921875 -1.671875 Z M 7.125 -1.671875 "/></g></g></g><g fill="#243544" fill-opacity="1"><g transform="translate(123.33484, 20.485627)"><g/></g></g><g fill="#243544" fill-opacity="1"><g transform="translate(128.128395, 20.485627)"><g><path d="M 6.109375 0.203125 C 5.222656 0.203125 4.429688 0.0820312 3.734375 -0.15625 C 3.035156 -0.394531 2.453125 -0.707031 1.984375 -1.09375 C 1.523438 -1.488281 1.179688 -1.914062 0.953125 -2.375 L 1.859375 -3.46875 L 2.09375 -3.46875 C 2.957031 -2.007812 4.296875 -1.28125 6.109375 -1.28125 C 7.160156 -1.28125 7.941406 -1.5 8.453125 -1.9375 C 8.960938 -2.375 9.21875 -2.984375 9.21875 -3.765625 C 9.21875 -4.222656 9.132812 -4.613281 8.96875 -4.9375 C 8.800781 -5.257812 8.519531 -5.53125 8.125 -5.75 C 7.738281 -5.976562 7.210938 -6.175781 6.546875 -6.34375 L 4.90625 -6.75 C 3.6875 -7.039062 2.789062 -7.503906 2.21875 -8.140625 C 1.644531 -8.785156 1.359375 -9.597656 1.359375 -10.578125 C 1.359375 -11.265625 1.535156 -11.878906 1.890625 -12.421875 C 2.242188 -12.972656 2.765625 -13.398438 3.453125 -13.703125 C 4.140625 -14.015625 4.960938 -14.171875 5.921875 -14.171875 C 6.972656 -14.171875 7.859375 -14.019531 8.578125 -13.71875 C 9.304688 -13.425781 9.882812 -12.984375 10.3125 -12.390625 L 9.515625 -11.3125 L 9.28125 -11.3125 C 8.875 -11.800781 8.394531 -12.160156 7.84375 -12.390625 C 7.300781 -12.617188 6.660156 -12.734375 5.921875 -12.734375 C 4.953125 -12.734375 4.21875 -12.546875 3.71875 -12.171875 C 3.226562 -11.796875 2.984375 -11.273438 2.984375 -10.609375 C 2.984375 -9.984375 3.164062 -9.484375 3.53125 -9.109375 C 3.894531 -8.734375 4.507812 -8.445312 5.375 -8.25 L 7.046875 -7.84375 C 8.398438 -7.519531 9.378906 -7.03125 9.984375 -6.375 C 10.597656 -5.71875 10.90625 -4.875 10.90625 -3.84375 C 10.90625 -3.0625 10.726562 -2.363281 10.375 -1.75 C 10.019531 -1.144531 9.484375 -0.664062 8.765625 -0.3125 C 8.046875 0.03125 7.160156 0.203125 6.109375 0.203125 Z M 6.109375 0.203125 "/></g></g></g><g fill="#243544" fill-opacity="1"><g transform="translate(140.093191, 20.485627)"><g><path d="M 4.34375 0.203125 C 3.3125 0.203125 2.503906 -0.0664062 1.921875 -0.609375 C 1.335938 -1.148438 1.046875 -1.925781 1.046875 -2.9375 C 1.046875 -3.5625 1.171875 -4.085938 1.421875 -4.515625 C 1.679688 -4.941406 2.082031 -5.289062 2.625 -5.5625 C 3.164062 -5.832031 3.875 -6.039062 4.75 -6.1875 C 5.507812 -6.3125 6.085938 -6.453125 6.484375 -6.609375 C 6.890625 -6.773438 7.160156 -6.957031 7.296875 -7.15625 C 7.429688 -7.351562 7.5 -7.601562 7.5 -7.90625 C 7.5 -8.375 7.332031 -8.734375 7 -8.984375 C 6.675781 -9.242188 6.148438 -9.375 5.421875 -9.375 C 4.742188 -9.375 4.160156 -9.242188 3.671875 -8.984375 C 3.179688 -8.722656 2.734375 -8.328125 2.328125 -7.796875 L 2.140625 -7.796875 L 1.375 -8.890625 C 1.820312 -9.453125 2.390625 -9.898438 3.078125 -10.234375 C 3.765625 -10.566406 4.546875 -10.734375 5.421875 -10.734375 C 6.660156 -10.734375 7.578125 -10.460938 8.171875 -9.921875 C 8.765625 -9.378906 9.0625 -8.625 9.0625 -7.65625 L 9.0625 -2.078125 C 9.0625 -1.484375 9.304688 -1.1875 9.796875 -1.1875 C 9.960938 -1.1875 10.125 -1.21875 10.28125 -1.28125 L 10.40625 -1.234375 L 10.59375 -0.15625 C 10.476562 -0.0820312 10.328125 -0.0234375 10.140625 0.015625 C 9.953125 0.0546875 9.757812 0.078125 9.5625 0.078125 C 8.976562 0.078125 8.535156 -0.046875 8.234375 -0.296875 C 7.941406 -0.554688 7.757812 -0.9375 7.6875 -1.4375 L 7.484375 -1.453125 C 7.179688 -0.898438 6.773438 -0.484375 6.265625 -0.203125 C 5.753906 0.0664062 5.113281 0.203125 4.34375 0.203125 Z M 4.6875 -1.046875 C 5.269531 -1.046875 5.773438 -1.179688 6.203125 -1.453125 C 6.640625 -1.722656 6.972656 -2.101562 7.203125 -2.59375 C 7.429688 -3.082031 7.546875 -3.644531 7.546875 -4.28125 L 7.546875 -5.625 L 7.359375 -5.671875 C 7.128906 -5.503906 6.84375 -5.363281 6.5 -5.25 C 6.164062 -5.132812 5.695312 -5.035156 5.09375 -4.953125 C 4.476562 -4.867188 3.988281 -4.738281 3.625 -4.5625 C 3.269531 -4.394531 3.015625 -4.175781 2.859375 -3.90625 C 2.710938 -3.644531 2.640625 -3.320312 2.640625 -2.9375 C 2.640625 -2.3125 2.816406 -1.835938 3.171875 -1.515625 C 3.535156 -1.203125 4.039062 -1.046875 4.6875 -1.046875 Z M 4.6875 -1.046875 "/></g></g></g><g fill="#243544" fill-opacity="1"><g transform="translate(150.98851, 20.485627)"><g><path d="M 4.34375 0.203125 C 3.3125 0.203125 2.503906 -0.0664062 1.921875 -0.609375 C 1.335938 -1.148438 1.046875 -1.925781 1.046875 -2.9375 C 1.046875 -3.5625 1.171875 -4.085938 1.421875 -4.515625 C 1.679688 -4.941406 2.082031 -5.289062 2.625 -5.5625 C 3.164062 -5.832031 3.875 -6.039062 4.75 -6.1875 C 5.507812 -6.3125 6.085938 -6.453125 6.484375 -6.609375 C 6.890625 -6.773438 7.160156 -6.957031 7.296875 -7.15625 C 7.429688 -7.351562 7.5 -7.601562 7.5 -7.90625 C 7.5 -8.375 7.332031 -8.734375 7 -8.984375 C 6.675781 -9.242188 6.148438 -9.375 5.421875 -9.375 C 4.742188 -9.375 4.160156 -9.242188 3.671875 -8.984375 C 3.179688 -8.722656 2.734375 -8.328125 2.328125 -7.796875 L 2.140625 -7.796875 L 1.375 -8.890625 C 1.820312 -9.453125 2.390625 -9.898438 3.078125 -10.234375 C 3.765625 -10.566406 4.546875 -10.734375 5.421875 -10.734375 C 6.660156 -10.734375 7.578125 -10.460938 8.171875 -9.921875 C 8.765625 -9.378906 9.0625 -8.625 9.0625 -7.65625 L 9.0625 -2.078125 C 9.0625 -1.484375 9.304688 -1.1875 9.796875 -1.1875 C 9.960938 -1.1875 10.125 -1.21875 10.28125 -1.28125 L 10.40625 -1.234375 L 10.59375 -0.15625 C 10.476562 -0.0820312 10.328125 -0.0234375 10.140625 0.015625 C 9.953125 0.0546875 9.757812 0.078125 9.5625 0.078125 C 8.976562 0.078125 8.535156 -0.046875 8.234375 -0.296875 C 7.941406 -0.554688 7.757812 -0.9375 7.6875 -1.4375 L 7.484375 -1.453125 C 7.179688 -0.898438 6.773438 -0.484375 6.265625 -0.203125 C 5.753906 0.0664062 5.113281 0.203125 4.34375 0.203125 Z M 4.6875 -1.046875 C 5.269531 -1.046875 5.773438 -1.179688 6.203125 -1.453125 C 6.640625 -1.722656 6.972656 -2.101562 7.203125 -2.59375 C 7.429688 -3.082031 7.546875 -3.644531 7.546875 -4.28125 L 7.546875 -5.625 L 7.359375 -5.671875 C 7.128906 -5.503906 6.84375 -5.363281 6.5 -5.25 C 6.164062 -5.132812 5.695312 -5.035156 5.09375 -4.953125 C 4.476562 -4.867188 3.988281 -4.738281 3.625 -4.5625 C 3.269531 -4.394531 3.015625 -4.175781 2.859375 -3.90625 C 2.710938 -3.644531 2.640625 -3.320312 2.640625 -2.9375 C 2.640625 -2.3125 2.816406 -1.835938 3.171875 -1.515625 C 3.535156 -1.203125 4.039062 -1.046875 4.6875 -1.046875 Z M 4.6875 -1.046875 "/></g></g></g><g fill="#243544" fill-opacity="1"><g transform="translate(161.883828, 20.485627)"><g><path d="M 6.109375 0.203125 C 5.222656 0.203125 4.429688 0.0820312 3.734375 -0.15625 C 3.035156 -0.394531 2.453125 -0.707031 1.984375 -1.09375 C 1.523438 -1.488281 1.179688 -1.914062 0.953125 -2.375 L 1.859375 -3.46875 L 2.09375 -3.46875 C 2.957031 -2.007812 4.296875 -1.28125 6.109375 -1.28125 C 7.160156 -1.28125 7.941406 -1.5 8.453125 -1.9375 C 8.960938 -2.375 9.21875 -2.984375 9.21875 -3.765625 C 9.21875 -4.222656 9.132812 -4.613281 8.96875 -4.9375 C 8.800781 -5.257812 8.519531 -5.53125 8.125 -5.75 C 7.738281 -5.976562 7.210938 -6.175781 6.546875 -6.34375 L 4.90625 -6.75 C 3.6875 -7.039062 2.789062 -7.503906 2.21875 -8.140625 C 1.644531 -8.785156 1.359375 -9.597656 1.359375 -10.578125 C 1.359375 -11.265625 1.535156 -11.878906 1.890625 -12.421875 C 2.242188 -12.972656 2.765625 -13.398438 3.453125 -13.703125 C 4.140625 -14.015625 4.960938 -14.171875 5.921875 -14.171875 C 6.972656 -14.171875 7.859375 -14.019531 8.578125 -13.71875 C 9.304688 -13.425781 9.882812 -12.984375 10.3125 -12.390625 L 9.515625 -11.3125 L 9.28125 -11.3125 C 8.875 -11.800781 8.394531 -12.160156 7.84375 -12.390625 C 7.300781 -12.617188 6.660156 -12.734375 5.921875 -12.734375 C 4.953125 -12.734375 4.21875 -12.546875 3.71875 -12.171875 C 3.226562 -11.796875 2.984375 -11.273438 2.984375 -10.609375 C 2.984375 -9.984375 3.164062 -9.484375 3.53125 -9.109375 C 3.894531 -8.734375 4.507812 -8.445312 5.375 -8.25 L 7.046875 -7.84375 C 8.398438 -7.519531 9.378906 -7.03125 9.984375 -6.375 C 10.597656 -5.71875 10.90625 -4.875 10.90625 -3.84375 C 10.90625 -3.0625 10.726562 -2.363281 10.375 -1.75 C 10.019531 -1.144531 9.484375 -0.664062 8.765625 -0.3125 C 8.046875 0.03125 7.160156 0.203125 6.109375 0.203125 Z M 6.109375 0.203125 "/></g></g></g><g fill="#243544" fill-opacity="1"><g transform="translate(173.848625, 20.485627)"><g/></g></g><g fill="#243544" fill-opacity="1"><g transform="translate(178.64218, 20.485627)"><g><path d="M 7.109375 -13.96875 C 8.066406 -13.96875 8.890625 -13.796875 9.578125 -13.453125 C 10.265625 -13.109375 10.785156 -12.613281 11.140625 -11.96875 C 11.503906 -11.332031 11.6875 -10.582031 11.6875 -9.71875 C 11.6875 -8.851562 11.503906 -8.097656 11.140625 -7.453125 C 10.785156 -6.816406 10.265625 -6.328125 9.578125 -5.984375 C 8.890625 -5.640625 8.066406 -5.46875 7.109375 -5.46875 L 3.75 -5.46875 L 3.75 0 L 2.109375 0 L 2.109375 -13.96875 Z M 7.0625 -6.875 C 9 -6.875 9.96875 -7.820312 9.96875 -9.71875 C 9.96875 -11.625 9 -12.578125 7.0625 -12.578125 L 3.75 -12.578125 L 3.75 -6.875 Z M 7.0625 -6.875 "/></g></g></g><g fill="#243544" fill-opacity="1"><g transform="translate(191.37089, 20.485627)"><g><path d="M 4.1875 0.203125 C 3.445312 0.203125 2.863281 -0.00390625 2.4375 -0.421875 C 2.007812 -0.847656 1.796875 -1.484375 1.796875 -2.328125 L 1.796875 -14.765625 L 3.359375 -14.765625 L 3.359375 -2.4375 C 3.359375 -2 3.441406 -1.679688 3.609375 -1.484375 C 3.773438 -1.285156 4.035156 -1.1875 4.390625 -1.1875 C 4.609375 -1.1875 4.828125 -1.222656 5.046875 -1.296875 L 5.1875 -1.265625 L 5.375 -0.03125 C 5.257812 0.0390625 5.09375 0.0976562 4.875 0.140625 C 4.664062 0.179688 4.4375 0.203125 4.1875 0.203125 Z M 4.1875 0.203125 "/></g></g></g><g fill="#243544" fill-opacity="1"><g transform="translate(197.100239, 20.485627)"><g><path d="M 4.34375 0.203125 C 3.3125 0.203125 2.503906 -0.0664062 1.921875 -0.609375 C 1.335938 -1.148438 1.046875 -1.925781 1.046875 -2.9375 C 1.046875 -3.5625 1.171875 -4.085938 1.421875 -4.515625 C 1.679688 -4.941406 2.082031 -5.289062 2.625 -5.5625 C 3.164062 -5.832031 3.875 -6.039062 4.75 -6.1875 C 5.507812 -6.3125 6.085938 -6.453125 6.484375 -6.609375 C 6.890625 -6.773438 7.160156 -6.957031 7.296875 -7.15625 C 7.429688 -7.351562 7.5 -7.601562 7.5 -7.90625 C 7.5 -8.375 7.332031 -8.734375 7 -8.984375 C 6.675781 -9.242188 6.148438 -9.375 5.421875 -9.375 C 4.742188 -9.375 4.160156 -9.242188 3.671875 -8.984375 C 3.179688 -8.722656 2.734375 -8.328125 2.328125 -7.796875 L 2.140625 -7.796875 L 1.375 -8.890625 C 1.820312 -9.453125 2.390625 -9.898438 3.078125 -10.234375 C 3.765625 -10.566406 4.546875 -10.734375 5.421875 -10.734375 C 6.660156 -10.734375 7.578125 -10.460938 8.171875 -9.921875 C 8.765625 -9.378906 9.0625 -8.625 9.0625 -7.65625 L 9.0625 -2.078125 C 9.0625 -1.484375 9.304688 -1.1875 9.796875 -1.1875 C 9.960938 -1.1875 10.125 -1.21875 10.28125 -1.28125 L 10.40625 -1.234375 L 10.59375 -0.15625 C 10.476562 -0.0820312 10.328125 -0.0234375 10.140625 0.015625 C 9.953125 0.0546875 9.757812 0.078125 9.5625 0.078125 C 8.976562 0.078125 8.535156 -0.046875 8.234375 -0.296875 C 7.941406 -0.554688 7.757812 -0.9375 7.6875 -1.4375 L 7.484375 -1.453125 C 7.179688 -0.898438 6.773438 -0.484375 6.265625 -0.203125 C 5.753906 0.0664062 5.113281 0.203125 4.34375 0.203125 Z M 4.6875 -1.046875 C 5.269531 -1.046875 5.773438 -1.179688 6.203125 -1.453125 C 6.640625 -1.722656 6.972656 -2.101562 7.203125 -2.59375 C 7.429688 -3.082031 7.546875 -3.644531 7.546875 -4.28125 L 7.546875 -5.625 L 7.359375 -5.671875 C 7.128906 -5.503906 6.84375 -5.363281 6.5 -5.25 C 6.164062 -5.132812 5.695312 -5.035156 5.09375 -4.953125 C 4.476562 -4.867188 3.988281 -4.738281 3.625 -4.5625 C 3.269531 -4.394531 3.015625 -4.175781 2.859375 -3.90625 C 2.710938 -3.644531 2.640625 -3.320312 2.640625 -2.9375 C 2.640625 -2.3125 2.816406 -1.835938 3.171875 -1.515625 C 3.535156 -1.203125 4.039062 -1.046875 4.6875 -1.046875 Z M 4.6875 -1.046875 "/></g></g></g><g fill="#243544" fill-opacity="1"><g transform="translate(207.995557, 20.485627)"><g><path d="M 7.125 -1.671875 L 7.625 -0.546875 C 7.375 -0.304688 7.046875 -0.125 6.640625 0 C 6.234375 0.132812 5.796875 0.203125 5.328125 0.203125 C 3.316406 0.203125 2.3125 -0.816406 2.3125 -2.859375 L 2.3125 -9.265625 L 0.484375 -9.265625 L 0.484375 -10.546875 L 2.3125 -10.546875 L 2.3125 -12.765625 L 3.875 -13.03125 L 3.875 -10.546875 L 7.265625 -10.546875 L 7.265625 -9.265625 L 3.875 -9.265625 L 3.875 -3.015625 C 3.875 -1.796875 4.394531 -1.1875 5.4375 -1.1875 C 6.007812 -1.1875 6.503906 -1.347656 6.921875 -1.671875 Z M 7.125 -1.671875 "/></g></g></g><g fill="#243544" fill-opacity="1"><g transform="translate(216.016646, 20.485627)"><g><path d="M 2.34375 0 L 2.34375 -9.265625 L 0.515625 -9.265625 L 0.515625 -10.546875 L 2.34375 -10.546875 C 2.226562 -11.003906 2.171875 -11.441406 2.171875 -11.859375 C 2.171875 -12.535156 2.316406 -13.109375 2.609375 -13.578125 C 2.898438 -14.046875 3.300781 -14.394531 3.8125 -14.625 C 4.332031 -14.851562 4.929688 -14.96875 5.609375 -14.96875 C 6.660156 -14.96875 7.46875 -14.742188 8.03125 -14.296875 L 7.421875 -13.1875 L 7.21875 -13.15625 C 6.800781 -13.488281 6.265625 -13.65625 5.609375 -13.65625 C 4.992188 -13.65625 4.523438 -13.492188 4.203125 -13.171875 C 3.890625 -12.847656 3.734375 -12.394531 3.734375 -11.8125 C 3.734375 -11.445312 3.789062 -11.023438 3.90625 -10.546875 L 7.265625 -10.546875 L 7.265625 -9.265625 L 3.90625 -9.265625 L 3.90625 0 Z M 2.34375 0 "/></g></g></g><g fill="#243544" fill-opacity="1"><g transform="translate(223.522092, 20.485627)"><g><path d="M 6.046875 0.203125 C 5.054688 0.203125 4.191406 -0.00390625 3.453125 -0.421875 C 2.710938 -0.847656 2.144531 -1.46875 1.75 -2.28125 C 1.351562 -3.101562 1.15625 -4.097656 1.15625 -5.265625 C 1.15625 -6.429688 1.351562 -7.421875 1.75 -8.234375 C 2.144531 -9.054688 2.710938 -9.675781 3.453125 -10.09375 C 4.191406 -10.519531 5.054688 -10.734375 6.046875 -10.734375 C 7.035156 -10.734375 7.898438 -10.519531 8.640625 -10.09375 C 9.378906 -9.675781 9.945312 -9.054688 10.34375 -8.234375 C 10.738281 -7.421875 10.9375 -6.429688 10.9375 -5.265625 C 10.9375 -4.097656 10.738281 -3.101562 10.34375 -2.28125 C 9.945312 -1.46875 9.378906 -0.847656 8.640625 -0.421875 C 7.898438 -0.00390625 7.035156 0.203125 6.046875 0.203125 Z M 6.046875 -1.1875 C 7.097656 -1.1875 7.898438 -1.519531 8.453125 -2.1875 C 9.015625 -2.851562 9.296875 -3.878906 9.296875 -5.265625 C 9.296875 -6.660156 9.015625 -7.6875 8.453125 -8.34375 C 7.898438 -9.007812 7.097656 -9.34375 6.046875 -9.34375 C 4.992188 -9.34375 4.1875 -9.007812 3.625 -8.34375 C 3.070312 -7.675781 2.796875 -6.648438 2.796875 -5.265625 C 2.796875 -3.878906 3.070312 -2.851562 3.625 -2.1875 C 4.1875 -1.519531 4.992188 -1.1875 6.046875 -1.1875 Z M 6.046875 -1.1875 "/></g></g></g><g fill="#243544" fill-opacity="1"><g transform="translate(235.611018, 20.485627)"><g><path d="M 1.828125 0 L 1.828125 -10.53125 L 3.3125 -10.53125 L 3.3125 -8.890625 L 3.515625 -8.828125 C 4.003906 -10.023438 4.925781 -10.625 6.28125 -10.625 C 7 -10.625 7.539062 -10.492188 7.90625 -10.234375 L 7.5 -8.921875 L 7.3125 -8.890625 C 6.914062 -9.078125 6.484375 -9.171875 6.015625 -9.171875 C 5.171875 -9.171875 4.519531 -8.851562 4.0625 -8.21875 C 3.613281 -7.59375 3.390625 -6.578125 3.390625 -5.171875 L 3.390625 0 Z M 1.828125 0 "/></g></g></g><g fill="#243544" fill-opacity="1"><g transform="translate(243.746679, 20.485627)"><g><path d="M 1.828125 0 L 1.828125 -10.53125 L 3.3125 -10.53125 L 3.3125 -8.984375 L 3.515625 -8.9375 C 3.867188 -9.53125 4.296875 -9.976562 4.796875 -10.28125 C 5.304688 -10.582031 5.914062 -10.734375 6.625 -10.734375 C 7.445312 -10.734375 8.078125 -10.578125 8.515625 -10.265625 C 8.960938 -9.960938 9.3125 -9.46875 9.5625 -8.78125 L 9.765625 -8.78125 C 10.128906 -9.425781 10.578125 -9.910156 11.109375 -10.234375 C 11.640625 -10.566406 12.289062 -10.734375 13.0625 -10.734375 C 14.144531 -10.734375 14.953125 -10.441406 15.484375 -9.859375 C 16.015625 -9.273438 16.28125 -8.382812 16.28125 -7.1875 L 16.28125 0 L 14.734375 0 L 14.734375 -7.140625 C 14.734375 -7.910156 14.570312 -8.472656 14.25 -8.828125 C 13.925781 -9.191406 13.40625 -9.375 12.6875 -9.375 C 11.851562 -9.375 11.171875 -9.066406 10.640625 -8.453125 C 10.109375 -7.847656 9.84375 -6.84375 9.84375 -5.4375 L 9.84375 0 L 8.28125 0 L 8.28125 -7.140625 C 8.28125 -7.910156 8.117188 -8.472656 7.796875 -8.828125 C 7.472656 -9.191406 6.957031 -9.375 6.25 -9.375 C 5.40625 -9.375 4.71875 -9.078125 4.1875 -8.484375 C 3.65625 -7.898438 3.390625 -6.941406 3.390625 -5.609375 L 3.390625 0 Z M 1.828125 0 "/></g></g></g></g></g><g clip-path="url(#bbd6155706)"><g transform="matrix(1, 0, 0, 1, 38, 87)"><g clip-path="url(#3777746a11)"><g fill="#243544" fill-opacity="1"><g transform="translate(0.560997, 42.03504)"><g><path d="M 11.71875 -24.203125 L 11.71875 0 L 2.84375 0 L 2.84375 -39 L 11.71875 -39 L 27.234375 -14.796875 L 27.328125 -14.796875 L 27.328125 -39 L 36.21875 -39 L 36.21875 0 L 27.328125 0 L 11.828125 -24.203125 Z M 11.71875 -24.203125 "/></g></g></g><g fill="#243544" fill-opacity="1"><g transform="translate(39.610403, 42.03504)"><g><path d="M 27.375 -10.96875 L 9.78125 -10.96875 C 9.78125 -9.269531 10.332031 -8.007812 11.4375 -7.1875 C 12.539062 -6.363281 13.738281 -5.953125 15.03125 -5.953125 C 16.382812 -5.953125 17.457031 -6.132812 18.25 -6.5 C 19.039062 -6.863281 19.941406 -7.582031 20.953125 -8.65625 L 27 -5.625 C 24.476562 -1.40625 20.285156 0.703125 14.421875 0.703125 C 10.765625 0.703125 7.628906 -0.546875 5.015625 -3.046875 C 2.398438 -5.554688 1.09375 -8.578125 1.09375 -12.109375 C 1.09375 -15.640625 2.398438 -18.664062 5.015625 -21.1875 C 7.628906 -23.707031 10.765625 -24.96875 14.421875 -24.96875 C 18.265625 -24.96875 21.390625 -23.851562 23.796875 -21.625 C 26.210938 -19.40625 27.421875 -16.234375 27.421875 -12.109375 C 27.421875 -11.535156 27.40625 -11.15625 27.375 -10.96875 Z M 10.03125 -15.609375 L 19.25 -15.609375 C 19.050781 -16.867188 18.550781 -17.835938 17.75 -18.515625 C 16.945312 -19.191406 15.914062 -19.53125 14.65625 -19.53125 C 13.269531 -19.53125 12.164062 -19.164062 11.34375 -18.4375 C 10.53125 -17.71875 10.09375 -16.773438 10.03125 -15.609375 Z M 10.03125 -15.609375 "/></g></g></g><g fill="#243544" fill-opacity="1"><g transform="translate(68.117408, 42.03504)"><g><path d="M 30.921875 0 L 20.796875 0 L 15.46875 -6.859375 L 10.125 0 L 0 0 L 10.359375 -12.671875 L 1.46875 -24.25 L 11.25 -24.25 L 15.46875 -18.625 L 19.671875 -24.25 L 29.453125 -24.25 L 20.5625 -12.671875 Z M 30.921875 0 "/></g></g></g><g fill="#243544" fill-opacity="1"><g transform="translate(99.035468, 42.03504)"><g><path d="M 5.125 -2.890625 C 2.4375 -5.285156 1.09375 -8.359375 1.09375 -12.109375 C 1.09375 -15.859375 2.492188 -18.9375 5.296875 -21.34375 C 8.097656 -23.757812 11.566406 -24.96875 15.703125 -24.96875 C 19.765625 -24.96875 23.191406 -23.753906 25.984375 -21.328125 C 28.773438 -18.898438 30.171875 -15.828125 30.171875 -12.109375 C 30.171875 -8.390625 28.804688 -5.320312 26.078125 -2.90625 C 23.347656 -0.5 19.890625 0.703125 15.703125 0.703125 C 11.347656 0.703125 7.820312 -0.492188 5.125 -2.890625 Z M 11.59375 -16.21875 C 10.507812 -15.144531 9.96875 -13.769531 9.96875 -12.09375 C 9.96875 -10.425781 10.488281 -9.066406 11.53125 -8.015625 C 12.570312 -6.960938 13.945312 -6.4375 15.65625 -6.4375 C 17.289062 -6.4375 18.632812 -6.96875 19.6875 -8.03125 C 20.75 -9.101562 21.28125 -10.460938 21.28125 -12.109375 C 21.28125 -13.773438 20.734375 -15.144531 19.640625 -16.21875 C 18.554688 -17.289062 17.226562 -17.828125 15.65625 -17.828125 C 14.039062 -17.828125 12.6875 -17.289062 11.59375 -16.21875 Z M 11.59375 -16.21875 "/></g></g></g><g fill="#243544" fill-opacity="1"><g transform="translate(130.284441, 42.03504)"><g><path d="M 2.84375 0 L 2.84375 -24.25 L 11.203125 -24.25 L 11.203125 -20.75 L 11.296875 -20.75 C 11.359375 -20.882812 11.460938 -21.046875 11.609375 -21.234375 C 11.753906 -21.421875 12.0625 -21.75 12.53125 -22.21875 C 13 -22.695312 13.5 -23.125 14.03125 -23.5 C 14.570312 -23.875 15.269531 -24.210938 16.125 -24.515625 C 16.976562 -24.816406 17.84375 -24.96875 18.71875 -24.96875 C 19.632812 -24.96875 20.535156 -24.835938 21.421875 -24.578125 C 22.304688 -24.328125 22.953125 -24.078125 23.359375 -23.828125 L 24.015625 -23.453125 L 20.515625 -16.359375 C 19.472656 -17.242188 18.023438 -17.6875 16.171875 -17.6875 C 15.160156 -17.6875 14.289062 -17.460938 13.5625 -17.015625 C 12.84375 -16.578125 12.332031 -16.039062 12.03125 -15.40625 C 11.726562 -14.78125 11.515625 -14.242188 11.390625 -13.796875 C 11.265625 -13.359375 11.203125 -13.015625 11.203125 -12.765625 L 11.203125 0 Z M 2.84375 0 "/></g></g></g><g fill="#243544" fill-opacity="1"><g transform="translate(153.827538, 42.03504)"><g><path d="M 4.484375 -3 C 2.222656 -5.476562 1.09375 -8.515625 1.09375 -12.109375 C 1.09375 -15.703125 2.222656 -18.742188 4.484375 -21.234375 C 6.753906 -23.722656 9.640625 -24.96875 13.140625 -24.96875 C 16.359375 -24.96875 19.007812 -23.957031 21.09375 -21.9375 L 21.09375 -24.25 L 29.453125 -24.25 L 29.453125 0 L 21.1875 0 L 21.1875 -2.75 L 21.09375 -2.75 C 19.007812 -0.445312 16.359375 0.703125 13.140625 0.703125 C 9.640625 0.703125 6.753906 -0.53125 4.484375 -3 Z M 11.59375 -16.21875 C 10.507812 -15.144531 9.96875 -13.769531 9.96875 -12.09375 C 9.96875 -10.425781 10.488281 -9.066406 11.53125 -8.015625 C 12.570312 -6.960938 13.945312 -6.4375 15.65625 -6.4375 C 17.289062 -6.4375 18.632812 -6.96875 19.6875 -8.03125 C 20.75 -9.101562 21.28125 -10.460938 21.28125 -12.109375 C 21.28125 -13.773438 20.734375 -15.144531 19.640625 -16.21875 C 18.554688 -17.289062 17.226562 -17.828125 15.65625 -17.828125 C 14.039062 -17.828125 12.6875 -17.289062 11.59375 -16.21875 Z M 11.59375 -16.21875 "/></g></g></g><g fill="#243544" fill-opacity="1"><g transform="translate(186.116582, 42.03504)"><g><path d="M 17.203125 -39.71875 C 19.316406 -39.71875 21.382812 -39.410156 23.40625 -38.796875 C 25.425781 -38.179688 26.921875 -37.570312 27.890625 -36.96875 L 29.3125 -36.03125 L 25.71875 -28.9375 C 25.4375 -29.125 25.039062 -29.367188 24.53125 -29.671875 C 24.03125 -29.972656 23.085938 -30.375 21.703125 -30.875 C 20.316406 -31.375 19.023438 -31.625 17.828125 -31.625 C 16.347656 -31.625 15.203125 -31.304688 14.390625 -30.671875 C 13.585938 -30.046875 13.1875 -29.195312 13.1875 -28.125 C 13.1875 -27.59375 13.375 -27.097656 13.75 -26.640625 C 14.132812 -26.179688 14.78125 -25.691406 15.6875 -25.171875 C 16.601562 -24.648438 17.410156 -24.234375 18.109375 -23.921875 C 18.804688 -23.609375 19.878906 -23.132812 21.328125 -22.5 C 23.847656 -21.425781 26 -19.96875 27.78125 -18.125 C 29.5625 -16.28125 30.453125 -14.195312 30.453125 -11.875 C 30.453125 -9.632812 30.046875 -7.675781 29.234375 -6 C 28.429688 -4.332031 27.328125 -3.023438 25.921875 -2.078125 C 24.523438 -1.128906 22.972656 -0.429688 21.265625 0.015625 C 19.566406 0.472656 17.726562 0.703125 15.75 0.703125 C 14.039062 0.703125 12.367188 0.53125 10.734375 0.1875 C 9.097656 -0.15625 7.726562 -0.585938 6.625 -1.109375 C 5.519531 -1.628906 4.523438 -2.140625 3.640625 -2.640625 C 2.753906 -3.148438 2.109375 -3.578125 1.703125 -3.921875 L 1.09375 -4.4375 L 5.53125 -11.921875 C 5.90625 -11.597656 6.421875 -11.191406 7.078125 -10.703125 C 7.742188 -10.210938 8.921875 -9.554688 10.609375 -8.734375 C 12.296875 -7.921875 13.785156 -7.515625 15.078125 -7.515625 C 18.828125 -7.515625 20.703125 -8.789062 20.703125 -11.34375 C 20.703125 -11.882812 20.566406 -12.378906 20.296875 -12.828125 C 20.035156 -13.285156 19.566406 -13.742188 18.890625 -14.203125 C 18.210938 -14.660156 17.613281 -15.023438 17.09375 -15.296875 C 16.570312 -15.566406 15.71875 -15.976562 14.53125 -16.53125 C 13.351562 -17.082031 12.484375 -17.5 11.921875 -17.78125 C 9.554688 -18.945312 7.722656 -20.40625 6.421875 -22.15625 C 5.128906 -23.90625 4.484375 -25.785156 4.484375 -27.796875 C 4.484375 -31.296875 5.773438 -34.15625 8.359375 -36.375 C 10.953125 -38.601562 13.898438 -39.71875 17.203125 -39.71875 Z M 17.203125 -39.71875 "/></g></g></g><g fill="#243544" fill-opacity="1"><g transform="translate(217.8856, 42.03504)"><g><path d="M 27.796875 -21.25 C 30.066406 -18.78125 31.203125 -15.75 31.203125 -12.15625 C 31.203125 -8.5625 30.066406 -5.519531 27.796875 -3.03125 C 25.523438 -0.539062 22.644531 0.703125 19.15625 0.703125 C 15.9375 0.703125 13.285156 -0.300781 11.203125 -2.3125 L 11.203125 12.296875 L 2.84375 12.296875 L 2.84375 -24.25 L 11.109375 -24.25 L 11.109375 -21.515625 L 11.203125 -21.515625 C 13.285156 -23.816406 15.9375 -24.96875 19.15625 -24.96875 C 22.644531 -24.96875 25.523438 -23.726562 27.796875 -21.25 Z M 20.671875 -8.03125 C 21.765625 -9.101562 22.3125 -10.472656 22.3125 -12.140625 C 22.3125 -13.816406 21.789062 -15.179688 20.75 -16.234375 C 19.71875 -17.296875 18.347656 -17.828125 16.640625 -17.828125 C 15.003906 -17.828125 13.65625 -17.289062 12.59375 -16.21875 C 11.539062 -15.144531 11.015625 -13.789062 11.015625 -12.15625 C 11.015625 -10.476562 11.554688 -9.101562 12.640625 -8.03125 C 13.734375 -6.96875 15.066406 -6.4375 16.640625 -6.4375 C 18.242188 -6.4375 19.585938 -6.96875 20.671875 -8.03125 Z M 20.671875 -8.03125 "/></g></g></g><g fill="#243544" fill-opacity="1"><g transform="translate(250.174644, 42.03504)"><g><path d="M 4.484375 -3 C 2.222656 -5.476562 1.09375 -8.515625 1.09375 -12.109375 C 1.09375 -15.703125 2.222656 -18.742188 4.484375 -21.234375 C 6.753906 -23.722656 9.640625 -24.96875 13.140625 -24.96875 C 16.359375 -24.96875 19.007812 -23.957031 21.09375 -21.9375 L 21.09375 -24.25 L 29.453125 -24.25 L 29.453125 0 L 21.1875 0 L 21.1875 -2.75 L 21.09375 -2.75 C 19.007812 -0.445312 16.359375 0.703125 13.140625 0.703125 C 9.640625 0.703125 6.753906 -0.53125 4.484375 -3 Z M 11.59375 -16.21875 C 10.507812 -15.144531 9.96875 -13.769531 9.96875 -12.09375 C 9.96875 -10.425781 10.488281 -9.066406 11.53125 -8.015625 C 12.570312 -6.960938 13.945312 -6.4375 15.65625 -6.4375 C 17.289062 -6.4375 18.632812 -6.96875 19.6875 -8.03125 C 20.75 -9.101562 21.28125 -10.460938 21.28125 -12.109375 C 21.28125 -13.773438 20.734375 -15.144531 19.640625 -16.21875 C 18.554688 -17.289062 17.226562 -17.828125 15.65625 -17.828125 C 14.039062 -17.828125 12.6875 -17.289062 11.59375 -16.21875 Z M 11.59375 -16.21875 "/></g></g></g><g fill="#243544" fill-opacity="1"><g transform="translate(282.463688, 42.03504)"><g><path d="M 15.75 -18.109375 C 14.164062 -18.109375 12.804688 -17.523438 11.671875 -16.359375 C 10.535156 -15.191406 9.96875 -13.789062 9.96875 -12.15625 C 9.96875 -10.476562 10.535156 -9.054688 11.671875 -7.890625 C 12.804688 -6.722656 14.164062 -6.140625 15.75 -6.140625 C 16.5 -6.140625 17.210938 -6.234375 17.890625 -6.421875 C 18.566406 -6.617188 19.066406 -6.8125 19.390625 -7 L 19.8125 -7.28125 L 22.640625 -1.46875 C 22.421875 -1.3125 22.113281 -1.113281 21.71875 -0.875 C 21.332031 -0.632812 20.4375 -0.3125 19.03125 0.09375 C 17.625 0.5 16.117188 0.703125 14.515625 0.703125 C 10.953125 0.703125 7.820312 -0.546875 5.125 -3.046875 C 2.4375 -5.554688 1.09375 -8.5625 1.09375 -12.0625 C 1.09375 -15.59375 2.4375 -18.625 5.125 -21.15625 C 7.820312 -23.695312 10.953125 -24.96875 14.515625 -24.96875 C 16.117188 -24.96875 17.597656 -24.773438 18.953125 -24.390625 C 20.316406 -24.015625 21.28125 -23.640625 21.84375 -23.265625 L 22.640625 -22.6875 L 19.8125 -16.96875 C 18.769531 -17.726562 17.414062 -18.109375 15.75 -18.109375 Z M 15.75 -18.109375 "/></g></g></g><g fill="#243544" fill-opacity="1"><g transform="translate(305.675873, 42.03504)"><g><path d="M 27.375 -10.96875 L 9.78125 -10.96875 C 9.78125 -9.269531 10.332031 -8.007812 11.4375 -7.1875 C 12.539062 -6.363281 13.738281 -5.953125 15.03125 -5.953125 C 16.382812 -5.953125 17.457031 -6.132812 18.25 -6.5 C 19.039062 -6.863281 19.941406 -7.582031 20.953125 -8.65625 L 27 -5.625 C 24.476562 -1.40625 20.285156 0.703125 14.421875 0.703125 C 10.765625 0.703125 7.628906 -0.546875 5.015625 -3.046875 C 2.398438 -5.554688 1.09375 -8.578125 1.09375 -12.109375 C 1.09375 -15.640625 2.398438 -18.664062 5.015625 -21.1875 C 7.628906 -23.707031 10.765625 -24.96875 14.421875 -24.96875 C 18.265625 -24.96875 21.390625 -23.851562 23.796875 -21.625 C 26.210938 -19.40625 27.421875 -16.234375 27.421875 -12.109375 C 27.421875 -11.535156 27.40625 -11.15625 27.375 -10.96875 Z M 10.03125 -15.609375 L 19.25 -15.609375 C 19.050781 -16.867188 18.550781 -17.835938 17.75 -18.515625 C 16.945312 -19.191406 15.914062 -19.53125 14.65625 -19.53125 C 13.269531 -19.53125 12.164062 -19.164062 11.34375 -18.4375 C 10.53125 -17.71875 10.09375 -16.773438 10.03125 -15.609375 Z M 10.03125 -15.609375 "/></g></g></g></g></g></g></g></g></g></svg>